<?xml version="1.0" encoding="utf-8" ?>
<svg baseProfile="full" height="297mm" version="1.1" viewBox="0 0 210 297" width="210mm" xmlns="http://www.w3.org/2000/svg" xmlns:ev="http://www.w3.org/2001/xml-events" xmlns:xlink="http://www.w3.org/1999/xlink"><defs /><line stroke="black" stroke-dasharray="5,3" stroke-width="0.3" x1="0.0" x2="163.36281798666926" y1="0.0" y2="0.0" /><line stroke="black" stroke-dasharray="5,3" stroke-width="0.3" x1="0.0" x2="163.36281798666926" y1="-8.257979626587812" y2="-8.257979626587812" /><line stroke="black" stroke-dasharray="5,3" stroke-width="0.3" x1="0.0" x2="163.36281798666926" y1="8.257979626587812" y2="8.257979626587812" /><line stroke="black" stroke-dasharray="5,3" stroke-width="0.3" x1="0.0" x2="0.0" y1="-8.257979626587812" y2="8.257979626587812" /><line stroke="black" stroke-dasharray="5,3" stroke-width="0.3" x1="163.36281798666926" x2="163.36281798666926" y1="8.257979626587812" y2="-8.257979626587812" /><circle cx="0.0" cy="0.0" fill="red" r="0.5" /><line stroke="black" stroke-width="0.3" x1="0.0" x2="0.0" y1="0.0" y2="0.0" /><circle cx="0.0" cy="0.0" fill="green" r="0.5" /><circle cx="1.3613568165555772" cy="0.020476874376718968" fill="red" r="0.5" /><line stroke="black" stroke-width="0.3" x1="1.3613568165555772" x2="1.3613568165555772" y1="0.0" y2="0.020476874376718968" /><circle cx="1.3613568165555772" cy="0.0" fill="green" r="0.5" /><circle cx="2.7227136331111543" cy="0.08174072249580888" fill="red" r="0.5" /><line stroke="black" stroke-width="0.3" x1="2.7227136331111543" x2="2.7227136331111543" y1="0.0" y2="0.08174072249580888" /><circle cx="2.7227136331111543" cy="0.0" fill="green" r="0.5" /><circle cx="4.084070449666731" cy="0.18329133162976063" fill="red" r="0.5" /><line stroke="black" stroke-width="0.3" x1="4.084070449666731" x2="4.084070449666731" y1="0.0" y2="0.18329133162976063" /><circle cx="4.084070449666731" cy="0.0" fill="green" r="0.5" /><circle cx="5.445427266222309" cy="0.3242954091534216" fill="red" r="0.5" /><line stroke="black" stroke-width="0.3" x1="5.445427266222309" x2="5.445427266222309" y1="0.0" y2="0.3242954091534216" /><circle cx="5.445427266222309" cy="0.0" fill="green" r="0.5" /><circle cx="6.806784082777886" cy="0.5035872495691152" fill="red" r="0.5" /><line stroke="black" stroke-width="0.3" x1="6.806784082777886" x2="6.806784082777886" y1="0.0" y2="0.5035872495691152" /><circle cx="6.806784082777886" cy="0.0" fill="green" r="0.5" /><circle cx="8.168140899333462" cy="0.7196698201597016" fill="red" r="0.5" /><line stroke="black" stroke-width="0.3" x1="8.168140899333462" x2="8.168140899333462" y1="0.0" y2="0.7196698201597016" /><circle cx="8.168140899333462" cy="0.0" fill="green" r="0.5" /><circle cx="9.52949771588904" cy="0.970716425228396" fill="red" r="0.5" /><line stroke="black" stroke-width="0.3" x1="9.52949771588904" x2="9.52949771588904" y1="0.0" y2="0.970716425228396" /><circle cx="9.52949771588904" cy="0.0" fill="green" r="0.5" /><circle cx="10.890854532444617" cy="1.2545731659339978" fill="red" r="0.5" /><line stroke="black" stroke-width="0.3" x1="10.890854532444617" x2="10.890854532444617" y1="0.0" y2="1.2545731659339978" /><circle cx="10.890854532444617" cy="0.0" fill="green" r="0.5" /><circle cx="12.252211349000195" cy="1.5687624776993943" fill="red" r="0.5" /><line stroke="black" stroke-width="0.3" x1="12.252211349000195" x2="12.252211349000195" y1="0.0" y2="1.5687624776993943" /><circle cx="12.252211349000195" cy="0.0" fill="green" r="0.5" /><circle cx="13.613568165555773" cy="1.9104881009646846" fill="red" r="0.5" /><line stroke="black" stroke-width="0.3" x1="13.613568165555773" x2="13.613568165555773" y1="0.0" y2="1.9104881009646846" /><circle cx="13.613568165555773" cy="0.0" fill="green" r="0.5" /><circle cx="14.974924982111348" cy="2.276641923782826" fill="red" r="0.5" /><line stroke="black" stroke-width="0.3" x1="14.974924982111348" x2="14.974924982111348" y1="0.0" y2="2.276641923782826" /><circle cx="14.974924982111348" cy="0.0" fill="green" r="0.5" /><circle cx="16.336281798666924" cy="2.663813225324837" fill="red" r="0.5" /><line stroke="black" stroke-width="0.3" x1="16.336281798666924" x2="16.336281798666924" y1="0.0" y2="2.663813225324837" /><circle cx="16.336281798666924" cy="0.0" fill="green" r="0.5" /><circle cx="17.697638615222502" cy="3.068300944962452" fill="red" r="0.5" /><line stroke="black" stroke-width="0.3" x1="17.697638615222502" x2="17.697638615222502" y1="0.0" y2="3.068300944962452" /><circle cx="17.697638615222502" cy="0.0" fill="green" r="0.5" /><circle cx="19.05899543177808" cy="3.4861296970675966" fill="red" r="0.5" /><line stroke="black" stroke-width="0.3" x1="19.05899543177808" x2="19.05899543177808" y1="0.0" y2="3.4861296970675966" /><circle cx="19.05899543177808" cy="0.0" fill="green" r="0.5" /><circle cx="20.420352248333657" cy="3.9130703388100585" fill="red" r="0.5" /><line stroke="black" stroke-width="0.3" x1="20.420352248333657" x2="20.420352248333657" y1="0.0" y2="3.9130703388100585" /><circle cx="20.420352248333657" cy="0.0" fill="green" r="0.5" /><circle cx="21.781709064889235" cy="4.34466596515739" fill="red" r="0.5" /><line stroke="black" stroke-width="0.3" x1="21.781709064889235" x2="21.781709064889235" y1="0.0" y2="4.34466596515739" /><circle cx="21.781709064889235" cy="0.0" fill="green" r="0.5" /><circle cx="23.143065881444812" cy="4.776264235964064" fill="red" r="0.5" /><line stroke="black" stroke-width="0.3" x1="23.143065881444812" x2="23.143065881444812" y1="0.0" y2="4.776264235964064" /><circle cx="23.143065881444812" cy="0.0" fill="green" r="0.5" /><circle cx="24.50442269800039" cy="5.203056914371807" fill="red" r="0.5" /><line stroke="black" stroke-width="0.3" x1="24.50442269800039" x2="24.50442269800039" y1="0.0" y2="5.203056914371807" /><circle cx="24.50442269800039" cy="0.0" fill="green" r="0.5" /><circle cx="25.865779514555967" cy="5.620127390393982" fill="red" r="0.5" /><line stroke="black" stroke-width="0.3" x1="25.865779514555967" x2="25.865779514555967" y1="0.0" y2="5.620127390393982" /><circle cx="25.865779514555967" cy="0.0" fill="green" r="0.5" /><circle cx="27.227136331111545" cy="6.02250675405304" fill="red" r="0.5" /><line stroke="black" stroke-width="0.3" x1="27.227136331111545" x2="27.227136331111545" y1="0.0" y2="6.02250675405304" /><circle cx="27.227136331111545" cy="0.0" fill="green" r="0.5" /><circle cx="28.58849314766712" cy="6.405238646833027" fill="red" r="0.5" /><line stroke="black" stroke-width="0.3" x1="28.58849314766712" x2="28.58849314766712" y1="0.0" y2="6.405238646833027" /><circle cx="28.58849314766712" cy="0.0" fill="green" r="0.5" /><circle cx="29.949849964222697" cy="6.763452644436278" fill="red" r="0.5" /><line stroke="black" stroke-width="0.3" x1="29.949849964222697" x2="29.949849964222697" y1="0.0" y2="6.763452644436278" /><circle cx="29.949849964222697" cy="0.0" fill="green" r="0.5" /><circle cx="31.311206780778274" cy="7.092445308471177" fill="red" r="0.5" /><line stroke="black" stroke-width="0.3" x1="31.311206780778274" x2="31.311206780778274" y1="0.0" y2="7.092445308471177" /><circle cx="31.311206780778274" cy="0.0" fill="green" r="0.5" /><circle cx="32.67256359733385" cy="7.387767312116445" fill="red" r="0.5" /><line stroke="black" stroke-width="0.3" x1="32.67256359733385" x2="32.67256359733385" y1="0.0" y2="7.387767312116445" /><circle cx="32.67256359733385" cy="0.0" fill="green" r="0.5" /><circle cx="34.033920413889426" cy="7.645314244933282" fill="red" r="0.5" /><line stroke="black" stroke-width="0.3" x1="34.033920413889426" x2="34.033920413889426" y1="0.0" y2="7.645314244933282" /><circle cx="34.033920413889426" cy="0.0" fill="green" r="0.5" /><circle cx="35.395277230445004" cy="7.861417914233044" fill="red" r="0.5" /><line stroke="black" stroke-width="0.3" x1="35.395277230445004" x2="35.395277230445004" y1="0.0" y2="7.861417914233044" /><circle cx="35.395277230445004" cy="0.0" fill="green" r="0.5" /><circle cx="36.75663404700058" cy="8.032934289124817" fill="red" r="0.5" /><line stroke="black" stroke-width="0.3" x1="36.75663404700058" x2="36.75663404700058" y1="0.0" y2="8.032934289124817" /><circle cx="36.75663404700058" cy="0.0" fill="green" r="0.5" /><circle cx="38.11799086355616" cy="8.157323795283673" fill="red" r="0.5" /><line stroke="black" stroke-width="0.3" x1="38.11799086355616" x2="38.11799086355616" y1="0.0" y2="8.157323795283673" /><circle cx="38.11799086355616" cy="0.0" fill="green" r="0.5" /><circle cx="39.47934768011174" cy="8.23271957226656" fill="red" r="0.5" /><line stroke="black" stroke-width="0.3" x1="39.47934768011174" x2="39.47934768011174" y1="0.0" y2="8.23271957226656" /><circle cx="39.47934768011174" cy="0.0" fill="green" r="0.5" /><circle cx="40.840704496667314" cy="8.257979626587812" fill="red" r="0.5" /><line stroke="black" stroke-width="0.3" x1="40.840704496667314" x2="40.840704496667314" y1="0.0" y2="8.257979626587812" /><circle cx="40.840704496667314" cy="0.0" fill="green" r="0.5" /><circle cx="42.20206131322289" cy="8.23271957226656" fill="red" r="0.5" /><line stroke="black" stroke-width="0.3" x1="42.20206131322289" x2="42.20206131322289" y1="0.0" y2="8.23271957226656" /><circle cx="42.20206131322289" cy="0.0" fill="green" r="0.5" /><circle cx="43.56341812977847" cy="8.157323795283673" fill="red" r="0.5" /><line stroke="black" stroke-width="0.3" x1="43.56341812977847" x2="43.56341812977847" y1="0.0" y2="8.157323795283673" /><circle cx="43.56341812977847" cy="0.0" fill="green" r="0.5" /><circle cx="44.92477494633405" cy="8.032934289124817" fill="red" r="0.5" /><line stroke="black" stroke-width="0.3" x1="44.92477494633405" x2="44.92477494633405" y1="0.0" y2="8.032934289124817" /><circle cx="44.92477494633405" cy="0.0" fill="green" r="0.5" /><circle cx="46.286131762889624" cy="7.861417914233044" fill="red" r="0.5" /><line stroke="black" stroke-width="0.3" x1="46.286131762889624" x2="46.286131762889624" y1="0.0" y2="7.861417914233044" /><circle cx="46.286131762889624" cy="0.0" fill="green" r="0.5" /><circle cx="47.6474885794452" cy="7.645314244933282" fill="red" r="0.5" /><line stroke="black" stroke-width="0.3" x1="47.6474885794452" x2="47.6474885794452" y1="0.0" y2="7.645314244933282" /><circle cx="47.6474885794452" cy="0.0" fill="green" r="0.5" /><circle cx="49.00884539600078" cy="7.387767312116452" fill="red" r="0.5" /><line stroke="black" stroke-width="0.3" x1="49.00884539600078" x2="49.00884539600078" y1="0.0" y2="7.387767312116452" /><circle cx="49.00884539600078" cy="0.0" fill="green" r="0.5" /><circle cx="50.37020221255636" cy="7.092445308471177" fill="red" r="0.5" /><line stroke="black" stroke-width="0.3" x1="50.37020221255636" x2="50.37020221255636" y1="0.0" y2="7.092445308471177" /><circle cx="50.37020221255636" cy="0.0" fill="green" r="0.5" /><circle cx="51.731559029111935" cy="6.763452644436278" fill="red" r="0.5" /><line stroke="black" stroke-width="0.3" x1="51.731559029111935" x2="51.731559029111935" y1="0.0" y2="6.763452644436278" /><circle cx="51.731559029111935" cy="0.0" fill="green" r="0.5" /><circle cx="53.09291584566751" cy="6.405238646833034" fill="red" r="0.5" /><line stroke="black" stroke-width="0.3" x1="53.09291584566751" x2="53.09291584566751" y1="0.0" y2="6.405238646833034" /><circle cx="53.09291584566751" cy="0.0" fill="green" r="0.5" /><circle cx="54.45427266222309" cy="6.02250675405304" fill="red" r="0.5" /><line stroke="black" stroke-width="0.3" x1="54.45427266222309" x2="54.45427266222309" y1="0.0" y2="6.02250675405304" /><circle cx="54.45427266222309" cy="0.0" fill="green" r="0.5" /><circle cx="55.81562947877866" cy="5.620127390393982" fill="red" r="0.5" /><line stroke="black" stroke-width="0.3" x1="55.81562947877866" x2="55.81562947877866" y1="0.0" y2="5.620127390393982" /><circle cx="55.81562947877866" cy="0.0" fill="green" r="0.5" /><circle cx="57.17698629533424" cy="5.203056914371807" fill="red" r="0.5" /><line stroke="black" stroke-width="0.3" x1="57.17698629533424" x2="57.17698629533424" y1="0.0" y2="5.203056914371807" /><circle cx="57.17698629533424" cy="0.0" fill="green" r="0.5" /><circle cx="58.538343111889816" cy="4.776264235964064" fill="red" r="0.5" /><line stroke="black" stroke-width="0.3" x1="58.538343111889816" x2="58.538343111889816" y1="0.0" y2="4.776264235964064" /><circle cx="58.538343111889816" cy="0.0" fill="green" r="0.5" /><circle cx="59.89969992844539" cy="4.34466596515739" fill="red" r="0.5" /><line stroke="black" stroke-width="0.3" x1="59.89969992844539" x2="59.89969992844539" y1="0.0" y2="4.34466596515739" /><circle cx="59.89969992844539" cy="0.0" fill="green" r="0.5" /><circle cx="61.26105674500097" cy="3.9130703388100585" fill="red" r="0.5" /><line stroke="black" stroke-width="0.3" x1="61.26105674500097" x2="61.26105674500097" y1="0.0" y2="3.9130703388100585" /><circle cx="61.26105674500097" cy="0.0" fill="green" r="0.5" /><circle cx="62.62241356155655" cy="3.4861296970675966" fill="red" r="0.5" /><line stroke="black" stroke-width="0.3" x1="62.62241356155655" x2="62.62241356155655" y1="0.0" y2="3.4861296970675966" /><circle cx="62.62241356155655" cy="0.0" fill="green" r="0.5" /><circle cx="63.983770378112126" cy="3.068300944962452" fill="red" r="0.5" /><line stroke="black" stroke-width="0.3" x1="63.983770378112126" x2="63.983770378112126" y1="0.0" y2="3.068300944962452" /><circle cx="63.983770378112126" cy="0.0" fill="green" r="0.5" /><circle cx="65.3451271946677" cy="2.663813225324837" fill="red" r="0.5" /><line stroke="black" stroke-width="0.3" x1="65.3451271946677" x2="65.3451271946677" y1="0.0" y2="2.663813225324837" /><circle cx="65.3451271946677" cy="0.0" fill="green" r="0.5" /><circle cx="66.70648401122328" cy="2.276641923782833" fill="red" r="0.5" /><line stroke="black" stroke-width="0.3" x1="66.70648401122328" x2="66.70648401122328" y1="0.0" y2="2.276641923782833" /><circle cx="66.70648401122328" cy="0.0" fill="green" r="0.5" /><circle cx="68.06784082777885" cy="1.9104881009646846" fill="red" r="0.5" /><line stroke="black" stroke-width="0.3" x1="68.06784082777885" x2="68.06784082777885" y1="0.0" y2="1.9104881009646846" /><circle cx="68.06784082777885" cy="0.0" fill="green" r="0.5" /><circle cx="69.42919764433444" cy="1.5687624776993943" fill="red" r="0.5" /><line stroke="black" stroke-width="0.3" x1="69.42919764433444" x2="69.42919764433444" y1="0.0" y2="1.5687624776993943" /><circle cx="69.42919764433444" cy="0.0" fill="green" r="0.5" /><circle cx="70.79055446089001" cy="1.2545731659339978" fill="red" r="0.5" /><line stroke="black" stroke-width="0.3" x1="70.79055446089001" x2="70.79055446089001" y1="0.0" y2="1.2545731659339978" /><circle cx="70.79055446089001" cy="0.0" fill="green" r="0.5" /><circle cx="72.15191127744559" cy="0.970716425228396" fill="red" r="0.5" /><line stroke="black" stroke-width="0.3" x1="72.15191127744559" x2="72.15191127744559" y1="0.0" y2="0.970716425228396" /><circle cx="72.15191127744559" cy="0.0" fill="green" r="0.5" /><circle cx="73.51326809400116" cy="0.7196698201597016" fill="red" r="0.5" /><line stroke="black" stroke-width="0.3" x1="73.51326809400116" x2="73.51326809400116" y1="0.0" y2="0.7196698201597016" /><circle cx="73.51326809400116" cy="0.0" fill="green" r="0.5" /><circle cx="74.87462491055675" cy="0.5035872495691152" fill="red" r="0.5" /><line stroke="black" stroke-width="0.3" x1="74.87462491055675" x2="74.87462491055675" y1="0.0" y2="0.5035872495691152" /><circle cx="74.87462491055675" cy="0.0" fill="green" r="0.5" /><circle cx="76.23598172711232" cy="0.3242954091534216" fill="red" r="0.5" /><line stroke="black" stroke-width="0.3" x1="76.23598172711232" x2="76.23598172711232" y1="0.0" y2="0.3242954091534216" /><circle cx="76.23598172711232" cy="0.0" fill="green" r="0.5" /><circle cx="77.5973385436679" cy="0.18329133162976063" fill="red" r="0.5" /><line stroke="black" stroke-width="0.3" x1="77.5973385436679" x2="77.5973385436679" y1="0.0" y2="0.18329133162976063" /><circle cx="77.5973385436679" cy="0.0" fill="green" r="0.5" /><circle cx="78.95869536022347" cy="0.08174072249580888" fill="red" r="0.5" /><line stroke="black" stroke-width="0.3" x1="78.95869536022347" x2="78.95869536022347" y1="0.0" y2="0.08174072249580888" /><circle cx="78.95869536022347" cy="0.0" fill="green" r="0.5" /><circle cx="80.32005217677906" cy="0.020476874376718968" fill="red" r="0.5" /><line stroke="black" stroke-width="0.3" x1="80.32005217677906" x2="80.32005217677906" y1="0.0" y2="0.020476874376718968" /><circle cx="80.32005217677906" cy="0.0" fill="green" r="0.5" /><circle cx="81.68140899333463" cy="0.0" fill="red" r="0.5" /><line stroke="black" stroke-width="0.3" x1="81.68140899333463" x2="81.68140899333463" y1="0.0" y2="0.0" /><circle cx="81.68140899333463" cy="0.0" fill="green" r="0.5" /><circle cx="83.04276580989021" cy="0.020476874376718968" fill="red" r="0.5" /><line stroke="black" stroke-width="0.3" x1="83.04276580989021" x2="83.04276580989021" y1="0.0" y2="0.020476874376718968" /><circle cx="83.04276580989021" cy="0.0" fill="green" r="0.5" /><circle cx="84.40412262644578" cy="0.08174072249580888" fill="red" r="0.5" /><line stroke="black" stroke-width="0.3" x1="84.40412262644578" x2="84.40412262644578" y1="0.0" y2="0.08174072249580888" /><circle cx="84.40412262644578" cy="0.0" fill="green" r="0.5" /><circle cx="85.76547944300137" cy="0.18329133162976063" fill="red" r="0.5" /><line stroke="black" stroke-width="0.3" x1="85.76547944300137" x2="85.76547944300137" y1="0.0" y2="0.18329133162976063" /><circle cx="85.76547944300137" cy="0.0" fill="green" r="0.5" /><circle cx="87.12683625955694" cy="0.3242954091534216" fill="red" r="0.5" /><line stroke="black" stroke-width="0.3" x1="87.12683625955694" x2="87.12683625955694" y1="0.0" y2="0.3242954091534216" /><circle cx="87.12683625955694" cy="0.0" fill="green" r="0.5" /><circle cx="88.48819307611251" cy="0.5035872495691152" fill="red" r="0.5" /><line stroke="black" stroke-width="0.3" x1="88.48819307611251" x2="88.48819307611251" y1="0.0" y2="0.5035872495691152" /><circle cx="88.48819307611251" cy="0.0" fill="green" r="0.5" /><circle cx="89.8495498926681" cy="0.7196698201597016" fill="red" r="0.5" /><line stroke="black" stroke-width="0.3" x1="89.8495498926681" x2="89.8495498926681" y1="0.0" y2="0.7196698201597016" /><circle cx="89.8495498926681" cy="0.0" fill="green" r="0.5" /><circle cx="91.21090670922366" cy="0.970716425228396" fill="red" r="0.5" /><line stroke="black" stroke-width="0.3" x1="91.21090670922366" x2="91.21090670922366" y1="0.0" y2="0.970716425228396" /><circle cx="91.21090670922366" cy="0.0" fill="green" r="0.5" /><circle cx="92.57226352577925" cy="1.2545731659339978" fill="red" r="0.5" /><line stroke="black" stroke-width="0.3" x1="92.57226352577925" x2="92.57226352577925" y1="0.0" y2="1.2545731659339978" /><circle cx="92.57226352577925" cy="0.0" fill="green" r="0.5" /><circle cx="93.93362034233482" cy="1.5687624776993943" fill="red" r="0.5" /><line stroke="black" stroke-width="0.3" x1="93.93362034233482" x2="93.93362034233482" y1="0.0" y2="1.5687624776993943" /><circle cx="93.93362034233482" cy="0.0" fill="green" r="0.5" /><circle cx="95.2949771588904" cy="1.9104881009646846" fill="red" r="0.5" /><line stroke="black" stroke-width="0.3" x1="95.2949771588904" x2="95.2949771588904" y1="0.0" y2="1.9104881009646846" /><circle cx="95.2949771588904" cy="0.0" fill="green" r="0.5" /><circle cx="96.65633397544597" cy="2.276641923782826" fill="red" r="0.5" /><line stroke="black" stroke-width="0.3" x1="96.65633397544597" x2="96.65633397544597" y1="0.0" y2="2.276641923782826" /><circle cx="96.65633397544597" cy="0.0" fill="green" r="0.5" /><circle cx="98.01769079200156" cy="2.663813225324837" fill="red" r="0.5" /><line stroke="black" stroke-width="0.3" x1="98.01769079200156" x2="98.01769079200156" y1="0.0" y2="2.663813225324837" /><circle cx="98.01769079200156" cy="0.0" fill="green" r="0.5" /><circle cx="99.37904760855713" cy="3.068300944962459" fill="red" r="0.5" /><line stroke="black" stroke-width="0.3" x1="99.37904760855713" x2="99.37904760855713" y1="0.0" y2="3.068300944962459" /><circle cx="99.37904760855713" cy="0.0" fill="green" r="0.5" /><circle cx="100.74040442511271" cy="3.4861296970675966" fill="red" r="0.5" /><line stroke="black" stroke-width="0.3" x1="100.74040442511271" x2="100.74040442511271" y1="0.0" y2="3.4861296970675966" /><circle cx="100.74040442511271" cy="0.0" fill="green" r="0.5" /><circle cx="102.10176124166829" cy="3.9130703388100585" fill="red" r="0.5" /><line stroke="black" stroke-width="0.3" x1="102.10176124166829" x2="102.10176124166829" y1="0.0" y2="3.9130703388100585" /><circle cx="102.10176124166829" cy="0.0" fill="green" r="0.5" /><circle cx="103.46311805822387" cy="4.34466596515739" fill="red" r="0.5" /><line stroke="black" stroke-width="0.3" x1="103.46311805822387" x2="103.46311805822387" y1="0.0" y2="4.34466596515739" /><circle cx="103.46311805822387" cy="0.0" fill="green" r="0.5" /><circle cx="104.82447487477944" cy="4.776264235964057" fill="red" r="0.5" /><line stroke="black" stroke-width="0.3" x1="104.82447487477944" x2="104.82447487477944" y1="0.0" y2="4.776264235964057" /><circle cx="104.82447487477944" cy="0.0" fill="green" r="0.5" /><circle cx="106.18583169133503" cy="5.2030569143718" fill="red" r="0.5" /><line stroke="black" stroke-width="0.3" x1="106.18583169133503" x2="106.18583169133503" y1="0.0" y2="5.2030569143718" /><circle cx="106.18583169133503" cy="0.0" fill="green" r="0.5" /><circle cx="107.5471885078906" cy="5.620127390393982" fill="red" r="0.5" /><line stroke="black" stroke-width="0.3" x1="107.5471885078906" x2="107.5471885078906" y1="0.0" y2="5.620127390393982" /><circle cx="107.5471885078906" cy="0.0" fill="green" r="0.5" /><circle cx="108.90854532444618" cy="6.02250675405304" fill="red" r="0.5" /><line stroke="black" stroke-width="0.3" x1="108.90854532444618" x2="108.90854532444618" y1="0.0" y2="6.02250675405304" /><circle cx="108.90854532444618" cy="0.0" fill="green" r="0.5" /><circle cx="110.26990214100175" cy="6.405238646833027" fill="red" r="0.5" /><line stroke="black" stroke-width="0.3" x1="110.26990214100175" x2="110.26990214100175" y1="0.0" y2="6.405238646833027" /><circle cx="110.26990214100175" cy="0.0" fill="green" r="0.5" /><circle cx="111.63125895755732" cy="6.763452644436278" fill="red" r="0.5" /><line stroke="black" stroke-width="0.3" x1="111.63125895755732" x2="111.63125895755732" y1="0.0" y2="6.763452644436278" /><circle cx="111.63125895755732" cy="0.0" fill="green" r="0.5" /><circle cx="112.9926157741129" cy="7.092445308471177" fill="red" r="0.5" /><line stroke="black" stroke-width="0.3" x1="112.9926157741129" x2="112.9926157741129" y1="0.0" y2="7.092445308471177" /><circle cx="112.9926157741129" cy="0.0" fill="green" r="0.5" /><circle cx="114.35397259066848" cy="7.387767312116445" fill="red" r="0.5" /><line stroke="black" stroke-width="0.3" x1="114.35397259066848" x2="114.35397259066848" y1="0.0" y2="7.387767312116445" /><circle cx="114.35397259066848" cy="0.0" fill="green" r="0.5" /><circle cx="115.71532940722406" cy="7.645314244933282" fill="red" r="0.5" /><line stroke="black" stroke-width="0.3" x1="115.71532940722406" x2="115.71532940722406" y1="0.0" y2="7.645314244933282" /><circle cx="115.71532940722406" cy="0.0" fill="green" r="0.5" /><circle cx="117.07668622377963" cy="7.861417914233044" fill="red" r="0.5" /><line stroke="black" stroke-width="0.3" x1="117.07668622377963" x2="117.07668622377963" y1="0.0" y2="7.861417914233044" /><circle cx="117.07668622377963" cy="0.0" fill="green" r="0.5" /><circle cx="118.43804304033522" cy="8.032934289124817" fill="red" r="0.5" /><line stroke="black" stroke-width="0.3" x1="118.43804304033522" x2="118.43804304033522" y1="0.0" y2="8.032934289124817" /><circle cx="118.43804304033522" cy="0.0" fill="green" r="0.5" /><circle cx="119.79939985689079" cy="8.15732379528368" fill="red" r="0.5" /><line stroke="black" stroke-width="0.3" x1="119.79939985689079" x2="119.79939985689079" y1="0.0" y2="8.15732379528368" /><circle cx="119.79939985689079" cy="0.0" fill="green" r="0.5" /><circle cx="121.16075667344637" cy="8.23271957226656" fill="red" r="0.5" /><line stroke="black" stroke-width="0.3" x1="121.16075667344637" x2="121.16075667344637" y1="0.0" y2="8.23271957226656" /><circle cx="121.16075667344637" cy="0.0" fill="green" r="0.5" /><circle cx="122.52211349000194" cy="8.257979626587812" fill="red" r="0.5" /><line stroke="black" stroke-width="0.3" x1="122.52211349000194" x2="122.52211349000194" y1="0.0" y2="8.257979626587812" /><circle cx="122.52211349000194" cy="0.0" fill="green" r="0.5" /><circle cx="123.88347030655753" cy="8.23271957226656" fill="red" r="0.5" /><line stroke="black" stroke-width="0.3" x1="123.88347030655753" x2="123.88347030655753" y1="0.0" y2="8.23271957226656" /><circle cx="123.88347030655753" cy="0.0" fill="green" r="0.5" /><circle cx="125.2448271231131" cy="8.15732379528368" fill="red" r="0.5" /><line stroke="black" stroke-width="0.3" x1="125.2448271231131" x2="125.2448271231131" y1="0.0" y2="8.15732379528368" /><circle cx="125.2448271231131" cy="0.0" fill="green" r="0.5" /><circle cx="126.60618393966868" cy="8.032934289124817" fill="red" r="0.5" /><line stroke="black" stroke-width="0.3" x1="126.60618393966868" x2="126.60618393966868" y1="0.0" y2="8.032934289124817" /><circle cx="126.60618393966868" cy="0.0" fill="green" r="0.5" /><circle cx="127.96754075622425" cy="7.861417914233044" fill="red" r="0.5" /><line stroke="black" stroke-width="0.3" x1="127.96754075622425" x2="127.96754075622425" y1="0.0" y2="7.861417914233044" /><circle cx="127.96754075622425" cy="0.0" fill="green" r="0.5" /><circle cx="129.32889757277982" cy="7.645314244933282" fill="red" r="0.5" /><line stroke="black" stroke-width="0.3" x1="129.32889757277982" x2="129.32889757277982" y1="0.0" y2="7.645314244933282" /><circle cx="129.32889757277982" cy="0.0" fill="green" r="0.5" /><circle cx="130.6902543893354" cy="7.387767312116452" fill="red" r="0.5" /><line stroke="black" stroke-width="0.3" x1="130.6902543893354" x2="130.6902543893354" y1="0.0" y2="7.387767312116452" /><circle cx="130.6902543893354" cy="0.0" fill="green" r="0.5" /><circle cx="132.051611205891" cy="7.092445308471177" fill="red" r="0.5" /><line stroke="black" stroke-width="0.3" x1="132.051611205891" x2="132.051611205891" y1="0.0" y2="7.092445308471177" /><circle cx="132.051611205891" cy="0.0" fill="green" r="0.5" /><circle cx="133.41296802244656" cy="6.763452644436278" fill="red" r="0.5" /><line stroke="black" stroke-width="0.3" x1="133.41296802244656" x2="133.41296802244656" y1="0.0" y2="6.763452644436278" /><circle cx="133.41296802244656" cy="0.0" fill="green" r="0.5" /><circle cx="134.77432483900213" cy="6.405238646833034" fill="red" r="0.5" /><line stroke="black" stroke-width="0.3" x1="134.77432483900213" x2="134.77432483900213" y1="0.0" y2="6.405238646833034" /><circle cx="134.77432483900213" cy="0.0" fill="green" r="0.5" /><circle cx="136.1356816555577" cy="6.02250675405304" fill="red" r="0.5" /><line stroke="black" stroke-width="0.3" x1="136.1356816555577" x2="136.1356816555577" y1="0.0" y2="6.02250675405304" /><circle cx="136.1356816555577" cy="0.0" fill="green" r="0.5" /><circle cx="137.4970384721133" cy="5.620127390393982" fill="red" r="0.5" /><line stroke="black" stroke-width="0.3" x1="137.4970384721133" x2="137.4970384721133" y1="0.0" y2="5.620127390393982" /><circle cx="137.4970384721133" cy="0.0" fill="green" r="0.5" /><circle cx="138.85839528866887" cy="5.203056914371807" fill="red" r="0.5" /><line stroke="black" stroke-width="0.3" x1="138.85839528866887" x2="138.85839528866887" y1="0.0" y2="5.203056914371807" /><circle cx="138.85839528866887" cy="0.0" fill="green" r="0.5" /><circle cx="140.21975210522444" cy="4.776264235964064" fill="red" r="0.5" /><line stroke="black" stroke-width="0.3" x1="140.21975210522444" x2="140.21975210522444" y1="0.0" y2="4.776264235964064" /><circle cx="140.21975210522444" cy="0.0" fill="green" r="0.5" /><circle cx="141.58110892178001" cy="4.344665965157397" fill="red" r="0.5" /><line stroke="black" stroke-width="0.3" x1="141.58110892178001" x2="141.58110892178001" y1="0.0" y2="4.344665965157397" /><circle cx="141.58110892178001" cy="0.0" fill="green" r="0.5" /><circle cx="142.9424657383356" cy="3.9130703388100585" fill="red" r="0.5" /><line stroke="black" stroke-width="0.3" x1="142.9424657383356" x2="142.9424657383356" y1="0.0" y2="3.9130703388100585" /><circle cx="142.9424657383356" cy="0.0" fill="green" r="0.5" /><circle cx="144.30382255489118" cy="3.4861296970675966" fill="red" r="0.5" /><line stroke="black" stroke-width="0.3" x1="144.30382255489118" x2="144.30382255489118" y1="0.0" y2="3.4861296970675966" /><circle cx="144.30382255489118" cy="0.0" fill="green" r="0.5" /><circle cx="145.66517937144675" cy="3.068300944962459" fill="red" r="0.5" /><line stroke="black" stroke-width="0.3" x1="145.66517937144675" x2="145.66517937144675" y1="0.0" y2="3.068300944962459" /><circle cx="145.66517937144675" cy="0.0" fill="green" r="0.5" /><circle cx="147.02653618800232" cy="2.663813225324837" fill="red" r="0.5" /><line stroke="black" stroke-width="0.3" x1="147.02653618800232" x2="147.02653618800232" y1="0.0" y2="2.663813225324837" /><circle cx="147.02653618800232" cy="0.0" fill="green" r="0.5" /><circle cx="148.38789300455792" cy="2.276641923782826" fill="red" r="0.5" /><line stroke="black" stroke-width="0.3" x1="148.38789300455792" x2="148.38789300455792" y1="0.0" y2="2.276641923782826" /><circle cx="148.38789300455792" cy="0.0" fill="green" r="0.5" /><circle cx="149.7492498211135" cy="1.9104881009646917" fill="red" r="0.5" /><line stroke="black" stroke-width="0.3" x1="149.7492498211135" x2="149.7492498211135" y1="0.0" y2="1.9104881009646917" /><circle cx="149.7492498211135" cy="0.0" fill="green" r="0.5" /><circle cx="151.11060663766906" cy="1.5687624776993943" fill="red" r="0.5" /><line stroke="black" stroke-width="0.3" x1="151.11060663766906" x2="151.11060663766906" y1="0.0" y2="1.5687624776993943" /><circle cx="151.11060663766906" cy="0.0" fill="green" r="0.5" /><circle cx="152.47196345422464" cy="1.2545731659339978" fill="red" r="0.5" /><line stroke="black" stroke-width="0.3" x1="152.47196345422464" x2="152.47196345422464" y1="0.0" y2="1.2545731659339978" /><circle cx="152.47196345422464" cy="0.0" fill="green" r="0.5" /><circle cx="153.8333202707802" cy="0.970716425228396" fill="red" r="0.5" /><line stroke="black" stroke-width="0.3" x1="153.8333202707802" x2="153.8333202707802" y1="0.0" y2="0.970716425228396" /><circle cx="153.8333202707802" cy="0.0" fill="green" r="0.5" /><circle cx="155.1946770873358" cy="0.7196698201597016" fill="red" r="0.5" /><line stroke="black" stroke-width="0.3" x1="155.1946770873358" x2="155.1946770873358" y1="0.0" y2="0.7196698201597016" /><circle cx="155.1946770873358" cy="0.0" fill="green" r="0.5" /><circle cx="156.55603390389138" cy="0.5035872495691152" fill="red" r="0.5" /><line stroke="black" stroke-width="0.3" x1="156.55603390389138" x2="156.55603390389138" y1="0.0" y2="0.5035872495691152" /><circle cx="156.55603390389138" cy="0.0" fill="green" r="0.5" /><circle cx="157.91739072044695" cy="0.3242954091534216" fill="red" r="0.5" /><line stroke="black" stroke-width="0.3" x1="157.91739072044695" x2="157.91739072044695" y1="0.0" y2="0.3242954091534216" /><circle cx="157.91739072044695" cy="0.0" fill="green" r="0.5" /><circle cx="159.27874753700252" cy="0.18329133162976063" fill="red" r="0.5" /><line stroke="black" stroke-width="0.3" x1="159.27874753700252" x2="159.27874753700252" y1="0.0" y2="0.18329133162976063" /><circle cx="159.27874753700252" cy="0.0" fill="green" r="0.5" /><circle cx="160.64010435355812" cy="0.08174072249580888" fill="red" r="0.5" /><line stroke="black" stroke-width="0.3" x1="160.64010435355812" x2="160.64010435355812" y1="0.0" y2="0.08174072249580888" /><circle cx="160.64010435355812" cy="0.0" fill="green" r="0.5" /><circle cx="162.00146117011369" cy="0.020476874376718968" fill="red" r="0.5" /><line stroke="black" stroke-width="0.3" x1="162.00146117011369" x2="162.00146117011369" y1="0.0" y2="0.020476874376718968" /><circle cx="162.00146117011369" cy="0.0" fill="green" r="0.5" /><circle cx="163.36281798666926" cy="0.0" fill="red" r="0.5" /><line stroke="black" stroke-width="0.3" x1="163.36281798666926" x2="163.36281798666926" y1="0.0" y2="0.0" /><circle cx="163.36281798666926" cy="0.0" fill="green" r="0.5" /><polyline fill="none" points="0.0,0.0 1.3613568165555772,0.020476874376718968 2.7227136331111543,0.08174072249580888 4.084070449666731,0.18329133162976063 5.445427266222309,0.3242954091534216 6.806784082777886,0.5035872495691152 8.168140899333462,0.7196698201597016 9.52949771588904,0.970716425228396 10.890854532444617,1.2545731659339978 12.252211349000195,1.5687624776993943 13.613568165555773,1.9104881009646846 14.974924982111348,2.276641923782826 16.336281798666924,2.663813225324837 17.697638615222502,3.068300944962452 19.05899543177808,3.4861296970675966 20.420352248333657,3.9130703388100585 21.781709064889235,4.34466596515739 23.143065881444812,4.776264235964064 24.50442269800039,5.203056914371807 25.865779514555967,5.620127390393982 27.227136331111545,6.02250675405304 28.58849314766712,6.405238646833027 29.949849964222697,6.763452644436278 31.311206780778274,7.092445308471177 32.67256359733385,7.387767312116445 34.033920413889426,7.645314244933282 35.395277230445004,7.861417914233044 36.75663404700058,8.032934289124817 38.11799086355616,8.157323795283673 39.47934768011174,8.23271957226656 40.840704496667314,8.257979626587812 42.20206131322289,8.23271957226656 43.56341812977847,8.157323795283673 44.92477494633405,8.032934289124817 46.286131762889624,7.861417914233044 47.6474885794452,7.645314244933282 49.00884539600078,7.387767312116452 50.37020221255636,7.092445308471177 51.731559029111935,6.763452644436278 53.09291584566751,6.405238646833034 54.45427266222309,6.02250675405304 55.81562947877866,5.620127390393982 57.17698629533424,5.203056914371807 58.538343111889816,4.776264235964064 59.89969992844539,4.34466596515739 61.26105674500097,3.9130703388100585 62.62241356155655,3.4861296970675966 63.983770378112126,3.068300944962452 65.3451271946677,2.663813225324837 66.70648401122328,2.276641923782833 68.06784082777885,1.9104881009646846 69.42919764433444,1.5687624776993943 70.79055446089001,1.2545731659339978 72.15191127744559,0.970716425228396 73.51326809400116,0.7196698201597016 74.87462491055675,0.5035872495691152 76.23598172711232,0.3242954091534216 77.5973385436679,0.18329133162976063 78.95869536022347,0.08174072249580888 80.32005217677906,0.020476874376718968 81.68140899333463,0.0 83.04276580989021,0.020476874376718968 84.40412262644578,0.08174072249580888 85.76547944300137,0.18329133162976063 87.12683625955694,0.3242954091534216 88.48819307611251,0.5035872495691152 89.8495498926681,0.7196698201597016 91.21090670922366,0.970716425228396 92.57226352577925,1.2545731659339978 93.93362034233482,1.5687624776993943 95.2949771588904,1.9104881009646846 96.65633397544597,2.276641923782826 98.01769079200156,2.663813225324837 99.37904760855713,3.068300944962459 100.74040442511271,3.4861296970675966 102.10176124166829,3.9130703388100585 103.46311805822387,4.34466596515739 104.82447487477944,4.776264235964057 106.18583169133503,5.2030569143718 107.5471885078906,5.620127390393982 108.90854532444618,6.02250675405304 110.26990214100175,6.405238646833027 111.63125895755732,6.763452644436278 112.9926157741129,7.092445308471177 114.35397259066848,7.387767312116445 115.71532940722406,7.645314244933282 117.07668622377963,7.861417914233044 118.43804304033522,8.032934289124817 119.79939985689079,8.15732379528368 121.16075667344637,8.23271957226656 122.52211349000194,8.257979626587812 123.88347030655753,8.23271957226656 125.2448271231131,8.15732379528368 126.60618393966868,8.032934289124817 127.96754075622425,7.861417914233044 129.32889757277982,7.645314244933282 130.6902543893354,7.387767312116452 132.051611205891,7.092445308471177 133.41296802244656,6.763452644436278 134.77432483900213,6.405238646833034 136.1356816555577,6.02250675405304 137.4970384721133,5.620127390393982 138.85839528866887,5.203056914371807 140.21975210522444,4.776264235964064 141.58110892178001,4.344665965157397 142.9424657383356,3.9130703388100585 144.30382255489118,3.4861296970675966 145.66517937144675,3.068300944962459 147.02653618800232,2.663813225324837 148.38789300455792,2.276641923782826 149.7492498211135,1.9104881009646917 151.11060663766906,1.5687624776993943 152.47196345422464,1.2545731659339978 153.8333202707802,0.970716425228396 155.1946770873358,0.7196698201597016 156.55603390389138,0.5035872495691152 157.91739072044695,0.3242954091534216 159.27874753700252,0.18329133162976063 160.64010435355812,0.08174072249580888 162.00146117011369,0.020476874376718968 163.36281798666926,0.0" stroke="blue" stroke-width="0.3" /></svg>