  0
SECTION
  2
HEADER
  9
$ACADVER
  1
AC1024
  9
$ACADMAINTVER
 70
6
  9
$DWGCODEPAGE
  3
ANSI_1252
  9
$LASTSAVEDBY
  1
ezdxf
  9
$INSBASE
 10
0.0
 20
0.0
 30
0.0
  9
$EXTMIN
 10
1e+20
 20
1e+20
 30
1e+20
  9
$EXTMAX
 10
-1e+20
 20
-1e+20
 30
-1e+20
  9
$LIMMIN
 10
0.0
 20
0.0
  9
$LIMMAX
 10
420.0
 20
297.0
  9
$ORTHOMODE
 70
0
  9
$REGENMODE
 70
1
  9
$FILLMODE
 70
1
  9
$QTEXTMODE
 70
0
  9
$MIRRTEXT
 70
1
  9
$LTSCALE
 40
1.0
  9
$ATTMODE
 70
1
  9
$TEXTSIZE
 40
2.5
  9
$TRACEWID
 40
1.0
  9
$TEXTSTYLE
  7
Standard
  9
$CLAYER
  8
0
  9
$CELTYPE
  6
ByLayer
  9
$CECOLOR
 62
256
  9
$CELTSCALE
 40
1.0
  9
$DISPSILH
 70
0
  9
$DIMSCALE
 40
1.0
  9
$DIMASZ
 40
2.5
  9
$DIMEXO
 40
0.625
  9
$DIMDLI
 40
3.75
  9
$DIMRND
 40
0.0
  9
$DIMDLE
 40
0.0
  9
$DIMEXE
 40
1.25
  9
$DIMTP
 40
0.0
  9
$DIMTM
 40
0.0
  9
$DIMTXT
 40
2.5
  9
$DIMCEN
 40
2.5
  9
$DIMTSZ
 40
0.0
  9
$DIMTOL
 70
0
  9
$DIMLIM
 70
0
  9
$DIMTIH
 70
0
  9
$DIMTOH
 70
0
  9
$DIMSE1
 70
0
  9
$DIMSE2
 70
0
  9
$DIMTAD
 70
1
  9
$DIMZIN
 70
8
  9
$DIMBLK
  1

  9
$DIMASO
 70
1
  9
$DIMSHO
 70
1
  9
$DIMPOST
  1

  9
$DIMAPOST
  1

  9
$DIMALT
 70
0
  9
$DIMALTD
 70
3
  9
$DIMALTF
 40
0.03937007874
  9
$DIMLFAC
 40
1.0
  9
$DIMTOFL
 70
1
  9
$DIMTVP
 40
0.0
  9
$DIMTIX
 70
0
  9
$DIMSOXD
 70
0
  9
$DIMSAH
 70
0
  9
$DIMBLK1
  1

  9
$DIMBLK2
  1

  9
$DIMSTYLE
  2
ISO-25
  9
$DIMCLRD
 70
0
  9
$DIMCLRE
 70
0
  9
$DIMCLRT
 70
0
  9
$DIMTFAC
 40
1.0
  9
$DIMGAP
 40
0.625
  9
$DIMJUST
 70
0
  9
$DIMSD1
 70
0
  9
$DIMSD2
 70
0
  9
$DIMTOLJ
 70
0
  9
$DIMTZIN
 70
8
  9
$DIMALTZ
 70
0
  9
$DIMALTTZ
 70
0
  9
$DIMUPT
 70
0
  9
$DIMDEC
 70
2
  9
$DIMTDEC
 70
2
  9
$DIMALTU
 70
2
  9
$DIMALTTD
 70
3
  9
$DIMTXSTY
  7
Standard
  9
$DIMAUNIT
 70
0
  9
$DIMADEC
 70
0
  9
$DIMALTRND
 40
0.0
  9
$DIMAZIN
 70
0
  9
$DIMDSEP
 70
44
  9
$DIMATFIT
 70
3
  9
$DIMFRAC
 70
0
  9
$DIMLDRBLK
  1

  9
$DIMLUNIT
 70
2
  9
$DIMLWD
 70
-2
  9
$DIMLWE
 70
-2
  9
$DIMTMOVE
 70
0
  9
$DIMFXL
 40
1.0
  9
$DIMFXLON
 70
0
  9
$DIMJOGANG
 40
0.785398163397
  9
$DIMTFILL
 70
0
  9
$DIMTFILLCLR
 70
0
  9
$DIMARCSYM
 70
0
  9
$DIMLTYPE
  6

  9
$DIMLTEX1
  6

  9
$DIMLTEX2
  6

  9
$DIMTXTDIRECTION
 70
0
  9
$LUNITS
 70
2
  9
$LUPREC
 70
4
  9
$SKETCHINC
 40
1.0
  9
$FILLETRAD
 40
10.0
  9
$AUNITS
 70
0
  9
$AUPREC
 70
2
  9
$MENU
  1
.
  9
$ELEVATION
 40
0.0
  9
$PELEVATION
 40
0.0
  9
$THICKNESS
 40
0.0
  9
$LIMCHECK
 70
0
  9
$CHAMFERA
 40
0.0
  9
$CHAMFERB
 40
0.0
  9
$CHAMFERC
 40
0.0
  9
$CHAMFERD
 40
0.0
  9
$SKPOLY
 70
0
  9
$TDCREATE
 40
2460843.7541203704
  9
$TDUCREATE
 40
2458532.153996898
  9
$TDUPDATE
 40
2460843.7541203704
  9
$TDUUPDATE
 40
2458532.1544311
  9
$TDINDWG
 40
0.0
  9
$TDUSRTIMER
 40
0.0
  9
$USRTIMER
 70
1
  9
$ANGBASE
 50
0.0
  9
$ANGDIR
 70
0
  9
$PDMODE
 70
0
  9
$PDSIZE
 40
0.0
  9
$PLINEWID
 40
0.0
  9
$SPLFRAME
 70
0
  9
$SPLINETYPE
 70
6
  9
$SPLINESEGS
 70
8
  9
$HANDSEED
  5
16D
  9
$SURFTAB1
 70
6
  9
$SURFTAB2
 70
6
  9
$SURFTYPE
 70
6
  9
$SURFU
 70
6
  9
$SURFV
 70
6
  9
$UCSBASE
  2

  9
$UCSNAME
  2

  9
$UCSORG
 10
0.0
 20
0.0
 30
0.0
  9
$UCSXDIR
 10
1.0
 20
0.0
 30
0.0
  9
$UCSYDIR
 10
0.0
 20
1.0
 30
0.0
  9
$UCSORTHOREF
  2

  9
$UCSORTHOVIEW
 70
0
  9
$UCSORGTOP
 10
0.0
 20
0.0
 30
0.0
  9
$UCSORGBOTTOM
 10
0.0
 20
0.0
 30
0.0
  9
$UCSORGLEFT
 10
0.0
 20
0.0
 30
0.0
  9
$UCSORGRIGHT
 10
0.0
 20
0.0
 30
0.0
  9
$UCSORGFRONT
 10
0.0
 20
0.0
 30
0.0
  9
$UCSORGBACK
 10
0.0
 20
0.0
 30
0.0
  9
$PUCSBASE
  2

  9
$PUCSNAME
  2

  9
$PUCSORG
 10
0.0
 20
0.0
 30
0.0
  9
$PUCSXDIR
 10
1.0
 20
0.0
 30
0.0
  9
$PUCSYDIR
 10
0.0
 20
1.0
 30
0.0
  9
$PUCSORTHOREF
  2

  9
$PUCSORTHOVIEW
 70
0
  9
$PUCSORGTOP
 10
0.0
 20
0.0
 30
0.0
  9
$PUCSORGBOTTOM
 10
0.0
 20
0.0
 30
0.0
  9
$PUCSORGLEFT
 10
0.0
 20
0.0
 30
0.0
  9
$PUCSORGRIGHT
 10
0.0
 20
0.0
 30
0.0
  9
$PUCSORGFRONT
 10
0.0
 20
0.0
 30
0.0
  9
$PUCSORGBACK
 10
0.0
 20
0.0
 30
0.0
  9
$USERI1
 70
0
  9
$USERI2
 70
0
  9
$USERI3
 70
0
  9
$USERI4
 70
0
  9
$USERI5
 70
0
  9
$USERR1
 40
0.0
  9
$USERR2
 40
0.0
  9
$USERR3
 40
0.0
  9
$USERR4
 40
0.0
  9
$USERR5
 40
0.0
  9
$WORLDVIEW
 70
1
  9
$SHADEDGE
 70
3
  9
$SHADEDIF
 70
70
  9
$TILEMODE
 70
1
  9
$MAXACTVP
 70
64
  9
$PINSBASE
 10
0.0
 20
0.0
 30
0.0
  9
$PLIMCHECK
 70
0
  9
$PEXTMIN
 10
1e+20
 20
1e+20
 30
1e+20
  9
$PEXTMAX
 10
-1e+20
 20
-1e+20
 30
-1e+20
  9
$PLIMMIN
 10
0.0
 20
0.0
  9
$PLIMMAX
 10
420.0
 20
297.0
  9
$UNITMODE
 70
0
  9
$VISRETAIN
 70
1
  9
$PLINEGEN
 70
0
  9
$PSLTSCALE
 70
1
  9
$TREEDEPTH
 70
3020
  9
$CMLSTYLE
  2
Standard
  9
$CMLJUST
 70
0
  9
$CMLSCALE
 40
20.0
  9
$PROXYGRAPHICS
 70
1
  9
$MEASUREMENT
 70
1
  9
$CELWEIGHT
370
-1
  9
$ENDCAPS
280
0
  9
$JOINSTYLE
280
0
  9
$LWDISPLAY
290
0
  9
$INSUNITS
 70
4
  9
$HYPERLINKBASE
  1

  9
$STYLESHEET
  1

  9
$XEDIT
290
1
  9
$CEPSNTYPE
380
0
  9
$PSTYLEMODE
290
1
  9
$FINGERPRINTGUID
  2
{9C8A0BAF-DA48-4C0E-BF8B-D9B02B2F149E}
  9
$VERSIONGUID
  2
{C9E415E5-2478-4559-93BA-158A8B111DE7}
  9
$EXTNAMES
290
1
  9
$PSVPSCALE
 40
0.0
  9
$OLESTARTUP
290
0
  9
$SORTENTS
280
127
  9
$INDEXCTL
280
0
  9
$HIDETEXT
280
1
  9
$XCLIPFRAME
280
1
  9
$HALOGAP
280
0
  9
$OBSCOLOR
 70
257
  9
$OBSLTYPE
280
0
  9
$INTERSECTIONDISPLAY
280
0
  9
$INTERSECTIONCOLOR
 70
257
  9
$DIMASSOC
280
2
  9
$PROJECTNAME
  1

  9
$CAMERADISPLAY
290
0
  9
$LENSLENGTH
 40
50.0
  9
$CAMERAHEIGHT
 40
0.0
  9
$STEPSPERSEC
 40
24.0
  9
$STEPSIZE
 40
100.0
  9
$3DDWFPREC
 40
2.0
  9
$PSOLWIDTH
 40
0.005
  9
$PSOLHEIGHT
 40
0.08
  9
$LOFTANG1
 40
1.570796326795
  9
$LOFTANG2
 40
1.570796326795
  9
$LOFTMAG1
 40
0.0
  9
$LOFTMAG2
 40
0.0
  9
$LOFTPARAM
 70
7
  9
$LOFTNORMALS
280
1
  9
$LATITUDE
 40
37.795
  9
$LONGITUDE
 40
-122.394
  9
$NORTHDIRECTION
 40
0.0
  9
$TIMEZONE
 70
-8000
  9
$LIGHTGLYPHDISPLAY
280
1
  9
$TILEMODELIGHTSYNCH
280
1
  9
$CMATERIAL
347
20
  9
$SOLIDHIST
280
0
  9
$SHOWHIST
280
1
  9
$DWFFRAME
280
2
  9
$DGNFRAME
280
2
  9
$REALWORLDSCALE
290
1
  9
$INTERFERECOLOR
 62
256
  9
$CSHADOW
280
0
  9
$SHADOWPLANELOCATION
 40
0.0
  0
ENDSEC
  0
SECTION
  2
CLASSES
  0
CLASS
  1
ACDBDICTIONARYWDFLT
  2
AcDbDictionaryWithDefault
  3
ObjectDBX Classes
 90
0
 91
0
280
0
281
0
  0
CLASS
  1
SUN
  2
AcDbSun
  3
SCENEOE
 90
1153
 91
0
280
0
281
0
  0
CLASS
  1
VISUALSTYLE
  2
AcDbVisualStyle
  3
ObjectDBX Classes
 90
4095
 91
0
280
0
281
0
  0
CLASS
  1
MATERIAL
  2
AcDbMaterial
  3
ObjectDBX Classes
 90
1153
 91
0
280
0
281
0
  0
CLASS
  1
SCALE
  2
AcDbScale
  3
ObjectDBX Classes
 90
1153
 91
0
280
0
281
0
  0
CLASS
  1
TABLESTYLE
  2
AcDbTableStyle
  3
ObjectDBX Classes
 90
4095
 91
0
280
0
281
0
  0
CLASS
  1
MLEADERSTYLE
  2
AcDbMLeaderStyle
  3
ACDB_MLEADERSTYLE_CLASS
 90
4095
 91
0
280
0
281
0
  0
CLASS
  1
DICTIONARYVAR
  2
AcDbDictionaryVar
  3
ObjectDBX Classes
 90
0
 91
0
280
0
281
0
  0
CLASS
  1
CELLSTYLEMAP
  2
AcDbCellStyleMap
  3
ObjectDBX Classes
 90
1152
 91
0
280
0
281
0
  0
CLASS
  1
MENTALRAYRENDERSETTINGS
  2
AcDbMentalRayRenderSettings
  3
SCENEOE
 90
1024
 91
0
280
0
281
0
  0
CLASS
  1
ACDBDETAILVIEWSTYLE
  2
AcDbDetailViewStyle
  3
ObjectDBX Classes
 90
1025
 91
0
280
0
281
0
  0
CLASS
  1
ACDBSECTIONVIEWSTYLE
  2
AcDbSectionViewStyle
  3
ObjectDBX Classes
 90
1025
 91
0
280
0
281
0
  0
CLASS
  1
RASTERVARIABLES
  2
AcDbRasterVariables
  3
ISM
 90
0
 91
0
280
0
281
0
  0
CLASS
  1
ACDBPLACEHOLDER
  2
AcDbPlaceHolder
  3
ObjectDBX Classes
 90
0
 91
0
280
0
281
0
  0
CLASS
  1
LAYOUT
  2
AcDbLayout
  3
ObjectDBX Classes
 90
0
 91
0
280
0
281
0
  0
ENDSEC
  0
SECTION
  2
TABLES
  0
TABLE
  2
VPORT
  5
8
330
0
100
AcDbSymbolTable
 70
1
  0
VPORT
  5
23
330
8
100
AcDbSymbolTableRecord
100
AcDbViewportTableRecord
  2
*Active
 70
0
 10
0.0
 20
0.0
 11
1.0
 21
1.0
 12
0.0
 22
0.0
 13
0.0
 23
0.0
 14
0.5
 24
0.5
 15
0.5
 25
0.5
 16
0.0
 26
0.0
 36
1.0
 17
0.0
 27
0.0
 37
0.0
 40
1000.0
 41
1.34
 42
50.0
 43
0.0
 44
0.0
 50
0.0
 51
0.0
 71
0
 72
1000
 73
1
 74
3
 75
0
 76
0
 77
0
 78
0
281
0
 65
0
146
0.0
  0
ENDTAB
  0
TABLE
  2
LTYPE
  5
2
330
0
100
AcDbSymbolTable
 70
3
  0
LTYPE
  5
24
330
2
100
AcDbSymbolTableRecord
100
AcDbLinetypeTableRecord
  2
ByBlock
 70
0
  3

 72
65
 73
0
 40
0.0
  0
LTYPE
  5
25
330
2
100
AcDbSymbolTableRecord
100
AcDbLinetypeTableRecord
  2
ByLayer
 70
0
  3

 72
65
 73
0
 40
0.0
  0
LTYPE
  5
26
330
2
100
AcDbSymbolTableRecord
100
AcDbLinetypeTableRecord
  2
Continuous
 70
0
  3

 72
65
 73
0
 40
0.0
  0
ENDTAB
  0
TABLE
  2
LAYER
  5
1
330
0
100
AcDbSymbolTable
 70
2
  0
LAYER
  5
27
330
1
100
AcDbSymbolTableRecord
100
AcDbLayerTableRecord
  2
0
 70
0
 62
7
  6
Continuous
370
-3
390
13
347
21
  0
LAYER
  5
28
330
1
100
AcDbSymbolTableRecord
100
AcDbLayerTableRecord
  2
Defpoints
 70
0
 62
7
  6
Continuous
290
0
370
-3
390
13
347
21
  0
ENDTAB
  0
TABLE
  2
STYLE
  5
5
330
0
100
AcDbSymbolTable
 70
1
  0
STYLE
  5
29
330
5
100
AcDbSymbolTableRecord
100
AcDbTextStyleTableRecord
  2
Standard
 70
0
 40
0.0
 41
1.0
 50
0.0
 71
0
 42
2.5
  3
txt
  4

  0
ENDTAB
  0
TABLE
  2
VIEW
  5
7
330
0
100
AcDbSymbolTable
 70
0
  0
ENDTAB
  0
TABLE
  2
UCS
  5
6
330
0
100
AcDbSymbolTable
 70
0
  0
ENDTAB
  0
TABLE
  2
APPID
  5
3
330
0
100
AcDbSymbolTable
 70
3
  0
APPID
  5
2A
330
3
100
AcDbSymbolTableRecord
100
AcDbRegAppTableRecord
  2
ACAD
 70
0
  0
APPID
  5
16A
330
3
100
AcDbSymbolTableRecord
100
AcDbRegAppTableRecord
  2
HATCHBACKGROUNDCOLOR
 70
0
  0
APPID
  5
16B
330
3
100
AcDbSymbolTableRecord
100
AcDbRegAppTableRecord
  2
EZDXF
 70
0
  0
ENDTAB
  0
TABLE
  2
DIMSTYLE
  5
4
330
0
100
AcDbSymbolTable
 70
1
100
AcDbDimStyleTable
  0
DIMSTYLE
105
2B
330
4
100
AcDbSymbolTableRecord
100
AcDbDimStyleTableRecord
  2
Standard
 70
0
 40
1.0
 41
2.5
 42
0.625
 43
3.75
 44
1.25
 45
0.0
 46
0.0
 47
0.0
 48
0.0
 49
2.5
140
2.5
141
2.5
142
0.0
143
0.03937007874
144
1.0
145
0.0
146
1.0
147
0.625
148
0.0
 69
0
 70
0
 71
0
 72
0
 73
0
 74
0
 75
0
 76
0
 77
1
 78
8
 79
3
170
0
171
3
172
1
173
0
174
0
175
0
176
0
177
0
178
0
179
2
271
2
272
2
273
2
274
3
275
0
276
0
277
2
278
44
279
0
280
0
281
0
282
0
283
0
284
8
285
0
286
0
288
0
289
3
290
0
371
-2
372
-2
  0
ENDTAB
  0
TABLE
  2
BLOCK_RECORD
  5
9
330
0
100
AcDbSymbolTable
 70
7
  0
BLOCK_RECORD
  5
17
330
9
100
AcDbSymbolTableRecord
100
AcDbBlockTableRecord
  2
*Model_Space
340
1A
 70
0
280
1
281
0
  0
BLOCK_RECORD
  5
1B
330
9
100
AcDbSymbolTableRecord
100
AcDbBlockTableRecord
  2
*Paper_Space
340
1E
 70
0
280
1
281
0
  0
BLOCK_RECORD
  5
129
330
9
100
AcDbSymbolTableRecord
100
AcDbBlockTableRecord
  2
*D1
340
0
 70
0
280
1
281
0
  0
BLOCK_RECORD
  5
12E
330
9
100
AcDbSymbolTableRecord
100
AcDbBlockTableRecord
  2
_CLOSEDFILLED
340
0
 70
0
280
1
281
0
  0
BLOCK_RECORD
  5
13D
330
9
100
AcDbSymbolTableRecord
100
AcDbBlockTableRecord
  2
*D2
340
0
 70
0
280
1
281
0
  0
BLOCK_RECORD
  5
14C
330
9
100
AcDbSymbolTableRecord
100
AcDbBlockTableRecord
  2
*D3
340
0
 70
0
280
1
281
0
  0
BLOCK_RECORD
  5
15B
330
9
100
AcDbSymbolTableRecord
100
AcDbBlockTableRecord
  2
*D4
340
0
 70
0
280
1
281
0
  0
ENDTAB
  0
ENDSEC
  0
SECTION
  2
BLOCKS
  0
BLOCK
  5
18
330
17
100
AcDbEntity
  8
0
100
AcDbBlockBegin
  2
*Model_Space
 70
0
 10
0.0
 20
0.0
 30
0.0
  3
*Model_Space
  1

  0
ENDBLK
  5
19
330
17
100
AcDbEntity
  8
0
100
AcDbBlockEnd
  0
BLOCK
  5
1C
330
1B
100
AcDbEntity
  8
0
100
AcDbBlockBegin
  2
*Paper_Space
 70
0
 10
0.0
 20
0.0
 30
0.0
  3
*Paper_Space
  1

  0
ENDBLK
  5
1D
330
1B
100
AcDbEntity
  8
0
100
AcDbBlockEnd
  0
BLOCK
  5
12A
330
129
100
AcDbEntity
  8
0
100
AcDbBlockBegin
  2
*D1
 70
1
 10
0.0
 20
0.0
 30
0.0
  3
*D1
  1

  0
LINE
  5
12C
330
129
100
AcDbEntity
  8
0
100
AcDbLine
 10
0.0
 20
-8.625224015056382
 30
0.0
 11
0.0
 21
-4.312612007528191
 31
0.0
  0
LINE
  5
12D
330
129
100
AcDbEntity
  8
0
100
AcDbLine
 10
163.36281798666926
 20
-8.625224015056382
 30
0.0
 11
163.36281798666926
 21
-4.312612007528191
 31
0.0
  0
INSERT
  5
132
330
129
100
AcDbEntity
  8
0
100
AcDbBlockReference
  2
_CLOSEDFILLED
 10
0.0
 20
-4.312612007528191
 30
0.0
 41
0.25
 42
0.25
 50
180.0
  0
INSERT
  5
134
330
129
100
AcDbEntity
  8
0
100
AcDbBlockReference
  2
_CLOSEDFILLED
 10
163.36281798666926
 20
-4.312612007528191
 30
0.0
 41
0.25
 42
0.25
  0
LINE
  5
136
330
129
100
AcDbEntity
  8
0
100
AcDbLine
 10
0.25
 20
-4.312612007528191
 30
0.0
 11
77.18140899333463
 21
-4.312612007528191
 31
0.0
  0
LINE
  5
137
330
129
100
AcDbEntity
  8
0
100
AcDbLine
 10
86.18140899333463
 20
-4.312612007528191
 30
0.0
 11
163.11281798666926
 21
-4.312612007528191
 31
0.0
  0
MTEXT
  5
138
330
129
100
AcDbEntity
  8
0
100
AcDbMText
 10
81.68140899333463
 20
-4.312612007528191
 30
0.0
 40
1.0
 71
5
  1
163,36 mm
  0
POINT
  5
139
330
129
100
AcDbEntity
  8
Defpoints
100
AcDbPoint
 10
0.0
 20
-4.312612007528191
 30
0.0
  0
POINT
  5
13A
330
129
100
AcDbEntity
  8
Defpoints
100
AcDbPoint
 10
0.0
 20
-8.625224015056382
 30
0.0
  0
POINT
  5
13B
330
129
100
AcDbEntity
  8
Defpoints
100
AcDbPoint
 10
163.36281798666926
 20
-8.625224015056382
 30
0.0
  0
ENDBLK
  5
12B
330
129
100
AcDbEntity
  8
0
100
AcDbBlockEnd
  0
BLOCK
  5
12F
330
12E
100
AcDbEntity
  8
0
100
AcDbBlockBegin
  2
_CLOSEDFILLED
 70
0
 10
0.0
 20
0.0
 30
0.0
  3
_CLOSEDFILLED
  1

  0
SOLID
  5
131
330
12E
100
AcDbEntity
  8
0
  6
BYBLOCK
 62
0
100
AcDbTrace
 10
-1.0
 20
0.16439898372402537
 30
0.0
 11
0.0
 21
0.0
 31
0.0
 12
-1.0
 22
-0.16439898372402537
 32
0.0
 13
-1.0
 23
-0.16439898372402537
 33
0.0
  0
ENDBLK
  5
130
330
12E
100
AcDbEntity
  8
0
100
AcDbBlockEnd
  0
BLOCK
  5
13E
330
13D
100
AcDbEntity
  8
0
100
AcDbBlockBegin
  2
*D2
 70
1
 10
0.0
 20
0.0
 30
0.0
  3
*D2
  1

  0
LINE
  5
140
330
13D
100
AcDbEntity
  8
0
100
AcDbLine
 10
0.0
 20
8.625224015056382
 30
0.0
 11
25.875672045169146
 21
8.625224015056382
 31
0.0
  0
LINE
  5
141
330
13D
100
AcDbEntity
  8
0
100
AcDbLine
 10
0.0
 20
-8.625224015056382
 30
0.0
 11
33.875672045169146
 21
-8.625224015056382
 31
0.0
  0
INSERT
  5
142
330
13D
100
AcDbEntity
  8
0
100
AcDbBlockReference
  2
_CLOSEDFILLED
 10
25.875672045169146
 20
8.625224015056382
 30
0.0
 41
1.5
 42
1.5
 50
90.0
  0
INSERT
  5
144
330
13D
100
AcDbEntity
  8
0
100
AcDbBlockReference
  2
_CLOSEDFILLED
 10
25.875672045169146
 20
-8.625224015056382
 30
0.0
 41
1.5
 42
1.5
 50
-90.0
  0
LINE
  5
146
330
13D
100
AcDbEntity
  8
0
100
AcDbLine
 10
25.875672045169146
 20
-6.531474015056382
 30
0.0
 11
25.875672045169146
 21
7.125224015056382
 31
0.0
  0
MTEXT
  5
147
330
13D
100
AcDbEntity
  8
0
100
AcDbMText
 10
29.875672045169146
 20
-7.500224015056382
 30
0.0
 40
1.0
 71
5
  1
17,25 mm
  0
POINT
  5
148
330
13D
100
AcDbEntity
  8
Defpoints
100
AcDbPoint
 10
25.875672045169146
 20
8.625224015056382
 30
0.0
  0
POINT
  5
149
330
13D
100
AcDbEntity
  8
Defpoints
100
AcDbPoint
 10
0.0
 20
8.625224015056382
 30
0.0
  0
POINT
  5
14A
330
13D
100
AcDbEntity
  8
Defpoints
100
AcDbPoint
 10
0.0
 20
-8.625224015056382
 30
0.0
  0
ENDBLK
  5
13F
330
13D
100
AcDbEntity
  8
0
100
AcDbBlockEnd
  0
BLOCK
  5
14D
330
14C
100
AcDbEntity
  8
0
100
AcDbBlockBegin
  2
*D3
 70
1
 10
0.0
 20
0.0
 30
0.0
  3
*D3
  1

  0
LINE
  5
14F
330
14C
100
AcDbEntity
  8
0
100
AcDbLine
 10
0.0
 20
0.0
 30
0.0
 11
8.625224015056382
 21
0.0
 31
0.0
  0
LINE
  5
150
330
14C
100
AcDbEntity
  8
0
100
AcDbLine
 10
0.0
 20
8.625224015056382
 30
0.0
 11
8.625224015056382
 21
8.625224015056382
 31
0.0
  0
INSERT
  5
151
330
14C
100
AcDbEntity
  8
0
100
AcDbBlockReference
  2
_CLOSEDFILLED
 10
8.625224015056382
 20
0.0
 30
0.0
 41
1.5
 42
1.5
 50
270.0
  0
INSERT
  5
153
330
14C
100
AcDbEntity
  8
0
100
AcDbBlockReference
  2
_CLOSEDFILLED
 10
8.625224015056382
 20
8.625224015056382
 30
0.0
 41
1.5
 42
1.5
 50
90.0
  0
LINE
  5
155
330
14C
100
AcDbEntity
  8
0
100
AcDbLine
 10
8.625224015056382
 20
1.5
 30
0.0
 11
8.625224015056382
 21
7.125224015056382
 31
0.0
  0
MTEXT
  5
156
330
14C
100
AcDbEntity
  8
0
100
AcDbMText
 10
7.500224015056382
 20
4.312612007528191
 30
0.0
 40
1.0
 71
5
  1
8,63 mm
 50
90.0
  0
POINT
  5
157
330
14C
100
AcDbEntity
  8
Defpoints
100
AcDbPoint
 10
8.625224015056382
 20
0.0
 30
0.0
  0
POINT
  5
158
330
14C
100
AcDbEntity
  8
Defpoints
100
AcDbPoint
 10
0.0
 20
0.0
 30
0.0
  0
POINT
  5
159
330
14C
100
AcDbEntity
  8
Defpoints
100
AcDbPoint
 10
0.0
 20
8.625224015056382
 30
0.0
  0
ENDBLK
  5
14E
330
14C
100
AcDbEntity
  8
0
100
AcDbBlockEnd
  0
BLOCK
  5
15C
330
15B
100
AcDbEntity
  8
0
100
AcDbBlockBegin
  2
*D4
 70
1
 10
0.0
 20
0.0
 30
0.0
  3
*D4
  1

  0
LINE
  5
15E
330
15B
100
AcDbEntity
  8
0
100
AcDbLine
 10
0.0
 20
0.0
 30
0.0
 11
17.250448030112764
 21
0.0
 31
0.0
  0
LINE
  5
15F
330
15B
100
AcDbEntity
  8
0
100
AcDbLine
 10
0.0
 20
-8.625224015056382
 30
0.0
 11
24.250448030112764
 21
-8.625224015056382
 31
0.0
  0
INSERT
  5
160
330
15B
100
AcDbEntity
  8
0
100
AcDbBlockReference
  2
_CLOSEDFILLED
 10
17.250448030112764
 20
0.0
 30
0.0
 41
1.5
 42
1.5
 50
90.0
  0
INSERT
  5
162
330
15B
100
AcDbEntity
  8
0
100
AcDbBlockReference
  2
_CLOSEDFILLED
 10
17.250448030112764
 20
-8.625224015056382
 30
0.0
 41
1.5
 42
1.5
 50
-90.0
  0
LINE
  5
164
330
15B
100
AcDbEntity
  8
0
100
AcDbLine
 10
17.250448030112764
 20
-6.531474015056382
 30
0.0
 11
17.250448030112764
 21
-1.5
 31
0.0
  0
MTEXT
  5
165
330
15B
100
AcDbEntity
  8
0
100
AcDbMText
 10
20.750448030112764
 20
-7.500224015056382
 30
0.0
 40
1.0
 71
5
  1
8,63 mm
  0
POINT
  5
166
330
15B
100
AcDbEntity
  8
Defpoints
100
AcDbPoint
 10
17.250448030112764
 20
0.0
 30
0.0
  0
POINT
  5
167
330
15B
100
AcDbEntity
  8
Defpoints
100
AcDbPoint
 10
0.0
 20
0.0
 30
0.0
  0
POINT
  5
168
330
15B
100
AcDbEntity
  8
Defpoints
100
AcDbPoint
 10
0.0
 20
-8.625224015056382
 30
0.0
  0
ENDBLK
  5
15D
330
15B
100
AcDbEntity
  8
0
100
AcDbBlockEnd
  0
ENDSEC
  0
SECTION
  2
ENTITIES
  0
POINT
  5
2F
330
17
100
AcDbEntity
  8
0
100
AcDbPoint
 10
0.0
 20
0.0
 30
0.0
  0
LINE
  5
30
330
17
100
AcDbEntity
  8
0
100
AcDbLine
 10
0.0
 20
0.0
 30
0.0
 11
0.0
 21
0.0
 31
0.0
  0
POINT
  5
31
330
17
100
AcDbEntity
  8
0
100
AcDbPoint
 10
1.3613568165555772
 20
0.02128796026179458
 30
0.0
  0
LINE
  5
32
330
17
100
AcDbEntity
  8
0
100
AcDbLine
 10
1.3613568165555772
 20
0.0
 30
0.0
 11
1.3613568165555772
 21
0.02128796026179458
 31
0.0
  0
POINT
  5
33
330
17
100
AcDbEntity
  8
0
100
AcDbPoint
 10
2.7227136331111543
 20
0.08498083556767
 30
0.0
  0
LINE
  5
34
330
17
100
AcDbEntity
  8
0
100
AcDbLine
 10
2.7227136331111543
 20
0.0
 30
0.0
 11
2.7227136331111543
 21
0.08498083556767
 31
0.0
  0
POINT
  5
35
330
17
100
AcDbEntity
  8
0
100
AcDbPoint
 10
4.084070449666731
 20
0.19056566395998686
 30
0.0
  0
LINE
  5
36
330
17
100
AcDbEntity
  8
0
100
AcDbLine
 10
4.084070449666731
 20
0.0
 30
0.0
 11
4.084070449666731
 21
0.19056566395998686
 31
0.0
  0
POINT
  5
37
330
17
100
AcDbEntity
  8
0
100
AcDbPoint
 10
5.445427266222309
 20
0.33718771114190815
 30
0.0
  0
LINE
  5
38
330
17
100
AcDbEntity
  8
0
100
AcDbLine
 10
5.445427266222309
 20
0.0
 30
0.0
 11
5.445427266222309
 21
0.33718771114190815
 31
0.0
  0
POINT
  5
39
330
17
100
AcDbEntity
  8
0
100
AcDbPoint
 10
6.806784082777886
 20
0.5236508474819317
 30
0.0
  0
LINE
  5
3A
330
17
100
AcDbEntity
  8
0
100
AcDbLine
 10
6.806784082777886
 20
0.0
 30
0.0
 11
6.806784082777886
 21
0.5236508474819317
 31
0.0
  0
POINT
  5
3B
330
17
100
AcDbEntity
  8
0
100
AcDbPoint
 10
8.168140899333462
 20
0.7484182269388739
 30
0.0
  0
LINE
  5
3C
330
17
100
AcDbEntity
  8
0
100
AcDbLine
 10
8.168140899333462
 20
0.0
 30
0.0
 11
8.168140899333462
 21
0.7484182269388739
 31
0.0
  0
POINT
  5
3D
330
17
100
AcDbEntity
  8
0
100
AcDbPoint
 10
9.52949771588904
 20
1.0096134283134646
 30
0.0
  0
LINE
  5
3E
330
17
100
AcDbEntity
  8
0
100
AcDbLine
 10
9.52949771588904
 20
0.0
 30
0.0
 11
9.52949771588904
 21
1.0096134283134646
 31
0.0
  0
POINT
  5
3F
330
17
100
AcDbEntity
  8
0
100
AcDbPoint
 10
10.890854532444617
 20
1.3050222781277654
 30
0.0
  0
LINE
  5
40
330
17
100
AcDbEntity
  8
0
100
AcDbLine
 10
10.890854532444617
 20
0.0
 30
0.0
 11
10.890854532444617
 21
1.3050222781277654
 31
0.0
  0
POINT
  5
41
330
17
100
AcDbEntity
  8
0
100
AcDbPoint
 10
12.252211349000195
 20
1.6320956426661368
 30
0.0
  0
LINE
  5
42
330
17
100
AcDbEntity
  8
0
100
AcDbLine
 10
12.252211349000195
 20
0.0
 30
0.0
 11
12.252211349000195
 21
1.6320956426661368
 31
0.0
  0
POINT
  5
43
330
17
100
AcDbEntity
  8
0
100
AcDbPoint
 10
13.613568165555773
 20
1.9879535556243653
 30
0.0
  0
LINE
  5
44
330
17
100
AcDbEntity
  8
0
100
AcDbLine
 10
13.613568165555773
 20
0.0
 30
0.0
 11
13.613568165555773
 21
1.9879535556243653
 31
0.0
  0
POINT
  5
45
330
17
100
AcDbEntity
  8
0
100
AcDbPoint
 10
14.974924982111348
 20
2.3693911379904264
 30
0.0
  0
LINE
  5
46
330
17
100
AcDbEntity
  8
0
100
AcDbLine
 10
14.974924982111348
 20
0.0
 30
0.0
 11
14.974924982111348
 21
2.3693911379904264
 31
0.0
  0
POINT
  5
47
330
17
100
AcDbEntity
  8
0
100
AcDbPoint
 10
16.336281798666924
 20
2.7728868676070775
 30
0.0
  0
LINE
  5
48
330
17
100
AcDbEntity
  8
0
100
AcDbLine
 10
16.336281798666924
 20
0.0
 30
0.0
 11
16.336281798666924
 21
2.7728868676070775
 31
0.0
  0
POINT
  5
49
330
17
100
AcDbEntity
  8
0
100
AcDbPoint
 10
17.697638615222502
 20
3.1946138649385603
 30
0.0
  0
LINE
  5
4A
330
17
100
AcDbEntity
  8
0
100
AcDbLine
 10
17.697638615222502
 20
0.0
 30
0.0
 11
17.697638615222502
 21
3.1946138649385603
 31
0.0
  0
POINT
  5
4B
330
17
100
AcDbEntity
  8
0
100
AcDbPoint
 10
19.05899543177808
 20
3.6304549739470104
 30
0.0
  0
LINE
  5
4C
330
17
100
AcDbEntity
  8
0
100
AcDbLine
 10
19.05899543177808
 20
0.0
 30
0.0
 11
19.05899543177808
 21
3.6304549739470104
 31
0.0
  0
POINT
  5
4D
330
17
100
AcDbEntity
  8
0
100
AcDbPoint
 10
20.420352248333657
 20
4.076022524357086
 30
0.0
  0
LINE
  5
4E
330
17
100
AcDbEntity
  8
0
100
AcDbLine
 10
20.420352248333657
 20
0.0
 30
0.0
 11
20.420352248333657
 21
4.076022524357086
 31
0.0
  0
POINT
  5
4F
330
17
100
AcDbEntity
  8
0
100
AcDbPoint
 10
21.781709064889235
 20
4.526683751372488
 30
0.0
  0
LINE
  5
50
330
17
100
AcDbEntity
  8
0
100
AcDbLine
 10
21.781709064889235
 20
0.0
 30
0.0
 11
21.781709064889235
 21
4.526683751372488
 31
0.0
  0
POINT
  5
51
330
17
100
AcDbEntity
  8
0
100
AcDbPoint
 10
23.143065881444812
 20
4.977592903563291
 30
0.0
  0
LINE
  5
52
330
17
100
AcDbEntity
  8
0
100
AcDbLine
 10
23.143065881444812
 20
0.0
 30
0.0
 11
23.143065881444812
 21
4.977592903563291
 31
0.0
  0
POINT
  5
53
330
17
100
AcDbEntity
  8
0
100
AcDbPoint
 10
24.50442269800039
 20
5.423731066433675
 30
0.0
  0
LINE
  5
54
330
17
100
AcDbEntity
  8
0
100
AcDbLine
 10
24.50442269800039
 20
0.0
 30
0.0
 11
24.50442269800039
 21
5.423731066433675
 31
0.0
  0
POINT
  5
55
330
17
100
AcDbEntity
  8
0
100
AcDbPoint
 10
25.865779514555967
 20
5.85995464082994
 30
0.0
  0
LINE
  5
56
330
17
100
AcDbEntity
  8
0
100
AcDbLine
 10
25.865779514555967
 20
0.0
 30
0.0
 11
25.865779514555967
 21
5.85995464082994
 31
0.0
  0
POINT
  5
57
330
17
100
AcDbEntity
  8
0
100
AcDbPoint
 10
27.227136331111545
 20
6.281053212107146
 30
0.0
  0
LINE
  5
58
330
17
100
AcDbEntity
  8
0
100
AcDbLine
 10
27.227136331111545
 20
0.0
 30
0.0
 11
27.227136331111545
 21
6.281053212107146
 31
0.0
  0
POINT
  5
59
330
17
100
AcDbEntity
  8
0
100
AcDbPoint
 10
28.58849314766712
 20
6.681817199579989
 30
0.0
  0
LINE
  5
5A
330
17
100
AcDbEntity
  8
0
100
AcDbLine
 10
28.58849314766712
 20
0.0
 30
0.0
 11
28.58849314766712
 21
6.681817199579989
 31
0.0
  0
POINT
  5
5B
330
17
100
AcDbEntity
  8
0
100
AcDbPoint
 10
29.949849964222697
 20
7.057115165636162
 30
0.0
  0
LINE
  5
5C
330
17
100
AcDbEntity
  8
0
100
AcDbLine
 10
29.949849964222697
 20
0.0
 30
0.0
 11
29.949849964222697
 21
7.057115165636162
 31
0.0
  0
POINT
  5
5D
330
17
100
AcDbEntity
  8
0
100
AcDbPoint
 10
31.311206780778274
 20
7.40197998520361
 30
0.0
  0
LINE
  5
5E
330
17
100
AcDbEntity
  8
0
100
AcDbLine
 10
31.311206780778274
 20
0.0
 30
0.0
 11
31.311206780778274
 21
7.40197998520361
 31
0.0
  0
POINT
  5
5F
330
17
100
AcDbEntity
  8
0
100
AcDbPoint
 10
32.67256359733385
 20
7.711702249181116
 30
0.0
  0
LINE
  5
60
330
17
100
AcDbEntity
  8
0
100
AcDbLine
 10
32.67256359733385
 20
0.0
 30
0.0
 11
32.67256359733385
 21
7.711702249181116
 31
0.0
  0
POINT
  5
61
330
17
100
AcDbEntity
  8
0
100
AcDbPoint
 10
34.033920413889426
 20
7.981928353007959
 30
0.0
  0
LINE
  5
62
330
17
100
AcDbEntity
  8
0
100
AcDbLine
 10
34.033920413889426
 20
0.0
 30
0.0
 11
34.033920413889426
 21
7.981928353007959
 31
0.0
  0
POINT
  5
63
330
17
100
AcDbEntity
  8
0
100
AcDbPoint
 10
35.395277230445004
 20
8.208759793444479
 30
0.0
  0
LINE
  5
64
330
17
100
AcDbEntity
  8
0
100
AcDbLine
 10
35.395277230445004
 20
0.0
 30
0.0
 11
35.395277230445004
 21
8.208759793444479
 31
0.0
  0
POINT
  5
65
330
17
100
AcDbEntity
  8
0
100
AcDbPoint
 10
36.75663404700058
 20
8.388849385241762
 30
0.0
  0
LINE
  5
66
330
17
100
AcDbEntity
  8
0
100
AcDbLine
 10
36.75663404700058
 20
0.0
 30
0.0
 11
36.75663404700058
 21
8.388849385241762
 31
0.0
  0
POINT
  5
67
330
17
100
AcDbEntity
  8
0
100
AcDbPoint
 10
38.11799086355616
 20
8.5194895555829
 30
0.0
  0
LINE
  5
68
330
17
100
AcDbEntity
  8
0
100
AcDbLine
 10
38.11799086355616
 20
0.0
 30
0.0
 11
38.11799086355616
 21
8.5194895555829
 31
0.0
  0
POINT
  5
69
330
17
100
AcDbEntity
  8
0
100
AcDbPoint
 10
39.47934768011174
 20
8.5986877128449
 30
0.0
  0
LINE
  5
6A
330
17
100
AcDbEntity
  8
0
100
AcDbLine
 10
39.47934768011174
 20
0.0
 30
0.0
 11
39.47934768011174
 21
8.5986877128449
 31
0.0
  0
POINT
  5
6B
330
17
100
AcDbEntity
  8
0
100
AcDbPoint
 10
40.840704496667314
 20
8.625224015056382
 30
0.0
  0
LINE
  5
6C
330
17
100
AcDbEntity
  8
0
100
AcDbLine
 10
40.840704496667314
 20
0.0
 30
0.0
 11
40.840704496667314
 21
8.625224015056382
 31
0.0
  0
POINT
  5
6D
330
17
100
AcDbEntity
  8
0
100
AcDbPoint
 10
42.20206131322289
 20
8.5986877128449
 30
0.0
  0
LINE
  5
6E
330
17
100
AcDbEntity
  8
0
100
AcDbLine
 10
42.20206131322289
 20
0.0
 30
0.0
 11
42.20206131322289
 21
8.5986877128449
 31
0.0
  0
POINT
  5
6F
330
17
100
AcDbEntity
  8
0
100
AcDbPoint
 10
43.56341812977847
 20
8.5194895555829
 30
0.0
  0
LINE
  5
70
330
17
100
AcDbEntity
  8
0
100
AcDbLine
 10
43.56341812977847
 20
0.0
 30
0.0
 11
43.56341812977847
 21
8.5194895555829
 31
0.0
  0
POINT
  5
71
330
17
100
AcDbEntity
  8
0
100
AcDbPoint
 10
44.92477494633405
 20
8.388849385241762
 30
0.0
  0
LINE
  5
72
330
17
100
AcDbEntity
  8
0
100
AcDbLine
 10
44.92477494633405
 20
0.0
 30
0.0
 11
44.92477494633405
 21
8.388849385241762
 31
0.0
  0
POINT
  5
73
330
17
100
AcDbEntity
  8
0
100
AcDbPoint
 10
46.286131762889624
 20
8.208759793444479
 30
0.0
  0
LINE
  5
74
330
17
100
AcDbEntity
  8
0
100
AcDbLine
 10
46.286131762889624
 20
0.0
 30
0.0
 11
46.286131762889624
 21
8.208759793444479
 31
0.0
  0
POINT
  5
75
330
17
100
AcDbEntity
  8
0
100
AcDbPoint
 10
47.6474885794452
 20
7.981928353007959
 30
0.0
  0
LINE
  5
76
330
17
100
AcDbEntity
  8
0
100
AcDbLine
 10
47.6474885794452
 20
0.0
 30
0.0
 11
47.6474885794452
 21
7.981928353007959
 31
0.0
  0
POINT
  5
77
330
17
100
AcDbEntity
  8
0
100
AcDbPoint
 10
49.00884539600078
 20
7.711702249181123
 30
0.0
  0
LINE
  5
78
330
17
100
AcDbEntity
  8
0
100
AcDbLine
 10
49.00884539600078
 20
0.0
 30
0.0
 11
49.00884539600078
 21
7.711702249181123
 31
0.0
  0
POINT
  5
79
330
17
100
AcDbEntity
  8
0
100
AcDbPoint
 10
50.37020221255636
 20
7.40197998520361
 30
0.0
  0
LINE
  5
7A
330
17
100
AcDbEntity
  8
0
100
AcDbLine
 10
50.37020221255636
 20
0.0
 30
0.0
 11
50.37020221255636
 21
7.40197998520361
 31
0.0
  0
POINT
  5
7B
330
17
100
AcDbEntity
  8
0
100
AcDbPoint
 10
51.731559029111935
 20
7.057115165636162
 30
0.0
  0
LINE
  5
7C
330
17
100
AcDbEntity
  8
0
100
AcDbLine
 10
51.731559029111935
 20
0.0
 30
0.0
 11
51.731559029111935
 21
7.057115165636162
 31
0.0
  0
POINT
  5
7D
330
17
100
AcDbEntity
  8
0
100
AcDbPoint
 10
53.09291584566751
 20
6.681817199579989
 30
0.0
  0
LINE
  5
7E
330
17
100
AcDbEntity
  8
0
100
AcDbLine
 10
53.09291584566751
 20
0.0
 30
0.0
 11
53.09291584566751
 21
6.681817199579989
 31
0.0
  0
POINT
  5
7F
330
17
100
AcDbEntity
  8
0
100
AcDbPoint
 10
54.45427266222309
 20
6.281053212107146
 30
0.0
  0
LINE
  5
80
330
17
100
AcDbEntity
  8
0
100
AcDbLine
 10
54.45427266222309
 20
0.0
 30
0.0
 11
54.45427266222309
 21
6.281053212107146
 31
0.0
  0
POINT
  5
81
330
17
100
AcDbEntity
  8
0
100
AcDbPoint
 10
55.81562947877866
 20
5.85995464082994
 30
0.0
  0
LINE
  5
82
330
17
100
AcDbEntity
  8
0
100
AcDbLine
 10
55.81562947877866
 20
0.0
 30
0.0
 11
55.81562947877866
 21
5.85995464082994
 31
0.0
  0
POINT
  5
83
330
17
100
AcDbEntity
  8
0
100
AcDbPoint
 10
57.17698629533424
 20
5.423731066433675
 30
0.0
  0
LINE
  5
84
330
17
100
AcDbEntity
  8
0
100
AcDbLine
 10
57.17698629533424
 20
0.0
 30
0.0
 11
57.17698629533424
 21
5.423731066433675
 31
0.0
  0
POINT
  5
85
330
17
100
AcDbEntity
  8
0
100
AcDbPoint
 10
58.538343111889816
 20
4.977592903563291
 30
0.0
  0
LINE
  5
86
330
17
100
AcDbEntity
  8
0
100
AcDbLine
 10
58.538343111889816
 20
0.0
 30
0.0
 11
58.538343111889816
 21
4.977592903563291
 31
0.0
  0
POINT
  5
87
330
17
100
AcDbEntity
  8
0
100
AcDbPoint
 10
59.89969992844539
 20
4.526683751372488
 30
0.0
  0
LINE
  5
88
330
17
100
AcDbEntity
  8
0
100
AcDbLine
 10
59.89969992844539
 20
0.0
 30
0.0
 11
59.89969992844539
 21
4.526683751372488
 31
0.0
  0
POINT
  5
89
330
17
100
AcDbEntity
  8
0
100
AcDbPoint
 10
61.26105674500097
 20
4.076022524357086
 30
0.0
  0
LINE
  5
8A
330
17
100
AcDbEntity
  8
0
100
AcDbLine
 10
61.26105674500097
 20
0.0
 30
0.0
 11
61.26105674500097
 21
4.076022524357086
 31
0.0
  0
POINT
  5
8B
330
17
100
AcDbEntity
  8
0
100
AcDbPoint
 10
62.62241356155655
 20
3.6304549739470104
 30
0.0
  0
LINE
  5
8C
330
17
100
AcDbEntity
  8
0
100
AcDbLine
 10
62.62241356155655
 20
0.0
 30
0.0
 11
62.62241356155655
 21
3.6304549739470104
 31
0.0
  0
POINT
  5
8D
330
17
100
AcDbEntity
  8
0
100
AcDbPoint
 10
63.983770378112126
 20
3.1946138649385603
 30
0.0
  0
LINE
  5
8E
330
17
100
AcDbEntity
  8
0
100
AcDbLine
 10
63.983770378112126
 20
0.0
 30
0.0
 11
63.983770378112126
 21
3.1946138649385603
 31
0.0
  0
POINT
  5
8F
330
17
100
AcDbEntity
  8
0
100
AcDbPoint
 10
65.3451271946677
 20
2.7728868676070775
 30
0.0
  0
LINE
  5
90
330
17
100
AcDbEntity
  8
0
100
AcDbLine
 10
65.3451271946677
 20
0.0
 30
0.0
 11
65.3451271946677
 21
2.7728868676070775
 31
0.0
  0
POINT
  5
91
330
17
100
AcDbEntity
  8
0
100
AcDbPoint
 10
66.70648401122328
 20
2.3693911379904264
 30
0.0
  0
LINE
  5
92
330
17
100
AcDbEntity
  8
0
100
AcDbLine
 10
66.70648401122328
 20
0.0
 30
0.0
 11
66.70648401122328
 21
2.3693911379904264
 31
0.0
  0
POINT
  5
93
330
17
100
AcDbEntity
  8
0
100
AcDbPoint
 10
68.06784082777885
 20
1.9879535556243653
 30
0.0
  0
LINE
  5
94
330
17
100
AcDbEntity
  8
0
100
AcDbLine
 10
68.06784082777885
 20
0.0
 30
0.0
 11
68.06784082777885
 21
1.9879535556243653
 31
0.0
  0
POINT
  5
95
330
17
100
AcDbEntity
  8
0
100
AcDbPoint
 10
69.42919764433444
 20
1.6320956426661368
 30
0.0
  0
LINE
  5
96
330
17
100
AcDbEntity
  8
0
100
AcDbLine
 10
69.42919764433444
 20
0.0
 30
0.0
 11
69.42919764433444
 21
1.6320956426661368
 31
0.0
  0
POINT
  5
97
330
17
100
AcDbEntity
  8
0
100
AcDbPoint
 10
70.79055446089001
 20
1.3050222781277654
 30
0.0
  0
LINE
  5
98
330
17
100
AcDbEntity
  8
0
100
AcDbLine
 10
70.79055446089001
 20
0.0
 30
0.0
 11
70.79055446089001
 21
1.3050222781277654
 31
0.0
  0
POINT
  5
99
330
17
100
AcDbEntity
  8
0
100
AcDbPoint
 10
72.15191127744559
 20
1.0096134283134646
 30
0.0
  0
LINE
  5
9A
330
17
100
AcDbEntity
  8
0
100
AcDbLine
 10
72.15191127744559
 20
0.0
 30
0.0
 11
72.15191127744559
 21
1.0096134283134646
 31
0.0
  0
POINT
  5
9B
330
17
100
AcDbEntity
  8
0
100
AcDbPoint
 10
73.51326809400116
 20
0.7484182269388739
 30
0.0
  0
LINE
  5
9C
330
17
100
AcDbEntity
  8
0
100
AcDbLine
 10
73.51326809400116
 20
0.0
 30
0.0
 11
73.51326809400116
 21
0.7484182269388739
 31
0.0
  0
POINT
  5
9D
330
17
100
AcDbEntity
  8
0
100
AcDbPoint
 10
74.87462491055675
 20
0.5236508474819317
 30
0.0
  0
LINE
  5
9E
330
17
100
AcDbEntity
  8
0
100
AcDbLine
 10
74.87462491055675
 20
0.0
 30
0.0
 11
74.87462491055675
 21
0.5236508474819317
 31
0.0
  0
POINT
  5
9F
330
17
100
AcDbEntity
  8
0
100
AcDbPoint
 10
76.23598172711232
 20
0.33718771114190815
 30
0.0
  0
LINE
  5
A0
330
17
100
AcDbEntity
  8
0
100
AcDbLine
 10
76.23598172711232
 20
0.0
 30
0.0
 11
76.23598172711232
 21
0.33718771114190815
 31
0.0
  0
POINT
  5
A1
330
17
100
AcDbEntity
  8
0
100
AcDbPoint
 10
77.5973385436679
 20
0.19056566395998686
 30
0.0
  0
LINE
  5
A2
330
17
100
AcDbEntity
  8
0
100
AcDbLine
 10
77.5973385436679
 20
0.0
 30
0.0
 11
77.5973385436679
 21
0.19056566395998686
 31
0.0
  0
POINT
  5
A3
330
17
100
AcDbEntity
  8
0
100
AcDbPoint
 10
78.95869536022347
 20
0.08498083556767
 30
0.0
  0
LINE
  5
A4
330
17
100
AcDbEntity
  8
0
100
AcDbLine
 10
78.95869536022347
 20
0.0
 30
0.0
 11
78.95869536022347
 21
0.08498083556767
 31
0.0
  0
POINT
  5
A5
330
17
100
AcDbEntity
  8
0
100
AcDbPoint
 10
80.32005217677906
 20
0.021287960261787475
 30
0.0
  0
LINE
  5
A6
330
17
100
AcDbEntity
  8
0
100
AcDbLine
 10
80.32005217677906
 20
0.0
 30
0.0
 11
80.32005217677906
 21
0.021287960261787475
 31
0.0
  0
POINT
  5
A7
330
17
100
AcDbEntity
  8
0
100
AcDbPoint
 10
81.68140899333463
 20
0.0
 30
0.0
  0
LINE
  5
A8
330
17
100
AcDbEntity
  8
0
100
AcDbLine
 10
81.68140899333463
 20
0.0
 30
0.0
 11
81.68140899333463
 21
0.0
 31
0.0
  0
POINT
  5
A9
330
17
100
AcDbEntity
  8
0
100
AcDbPoint
 10
83.04276580989021
 20
0.021287960261787475
 30
0.0
  0
LINE
  5
AA
330
17
100
AcDbEntity
  8
0
100
AcDbLine
 10
83.04276580989021
 20
0.0
 30
0.0
 11
83.04276580989021
 21
0.021287960261787475
 31
0.0
  0
POINT
  5
AB
330
17
100
AcDbEntity
  8
0
100
AcDbPoint
 10
84.40412262644578
 20
0.08498083556767
 30
0.0
  0
LINE
  5
AC
330
17
100
AcDbEntity
  8
0
100
AcDbLine
 10
84.40412262644578
 20
0.0
 30
0.0
 11
84.40412262644578
 21
0.08498083556767
 31
0.0
  0
POINT
  5
AD
330
17
100
AcDbEntity
  8
0
100
AcDbPoint
 10
85.76547944300137
 20
0.19056566395998686
 30
0.0
  0
LINE
  5
AE
330
17
100
AcDbEntity
  8
0
100
AcDbLine
 10
85.76547944300137
 20
0.0
 30
0.0
 11
85.76547944300137
 21
0.19056566395998686
 31
0.0
  0
POINT
  5
AF
330
17
100
AcDbEntity
  8
0
100
AcDbPoint
 10
87.12683625955694
 20
0.33718771114190815
 30
0.0
  0
LINE
  5
B0
330
17
100
AcDbEntity
  8
0
100
AcDbLine
 10
87.12683625955694
 20
0.0
 30
0.0
 11
87.12683625955694
 21
0.33718771114190815
 31
0.0
  0
POINT
  5
B1
330
17
100
AcDbEntity
  8
0
100
AcDbPoint
 10
88.48819307611251
 20
0.5236508474819317
 30
0.0
  0
LINE
  5
B2
330
17
100
AcDbEntity
  8
0
100
AcDbLine
 10
88.48819307611251
 20
0.0
 30
0.0
 11
88.48819307611251
 21
0.5236508474819317
 31
0.0
  0
POINT
  5
B3
330
17
100
AcDbEntity
  8
0
100
AcDbPoint
 10
89.8495498926681
 20
0.7484182269388739
 30
0.0
  0
LINE
  5
B4
330
17
100
AcDbEntity
  8
0
100
AcDbLine
 10
89.8495498926681
 20
0.0
 30
0.0
 11
89.8495498926681
 21
0.7484182269388739
 31
0.0
  0
POINT
  5
B5
330
17
100
AcDbEntity
  8
0
100
AcDbPoint
 10
91.21090670922366
 20
1.0096134283134717
 30
0.0
  0
LINE
  5
B6
330
17
100
AcDbEntity
  8
0
100
AcDbLine
 10
91.21090670922366
 20
0.0
 30
0.0
 11
91.21090670922366
 21
1.0096134283134717
 31
0.0
  0
POINT
  5
B7
330
17
100
AcDbEntity
  8
0
100
AcDbPoint
 10
92.57226352577925
 20
1.3050222781277654
 30
0.0
  0
LINE
  5
B8
330
17
100
AcDbEntity
  8
0
100
AcDbLine
 10
92.57226352577925
 20
0.0
 30
0.0
 11
92.57226352577925
 21
1.3050222781277654
 31
0.0
  0
POINT
  5
B9
330
17
100
AcDbEntity
  8
0
100
AcDbPoint
 10
93.93362034233482
 20
1.6320956426661368
 30
0.0
  0
LINE
  5
BA
330
17
100
AcDbEntity
  8
0
100
AcDbLine
 10
93.93362034233482
 20
0.0
 30
0.0
 11
93.93362034233482
 21
1.6320956426661368
 31
0.0
  0
POINT
  5
BB
330
17
100
AcDbEntity
  8
0
100
AcDbPoint
 10
95.2949771588904
 20
1.9879535556243653
 30
0.0
  0
LINE
  5
BC
330
17
100
AcDbEntity
  8
0
100
AcDbLine
 10
95.2949771588904
 20
0.0
 30
0.0
 11
95.2949771588904
 21
1.9879535556243653
 31
0.0
  0
POINT
  5
BD
330
17
100
AcDbEntity
  8
0
100
AcDbPoint
 10
96.65633397544597
 20
2.3693911379904264
 30
0.0
  0
LINE
  5
BE
330
17
100
AcDbEntity
  8
0
100
AcDbLine
 10
96.65633397544597
 20
0.0
 30
0.0
 11
96.65633397544597
 21
2.3693911379904264
 31
0.0
  0
POINT
  5
BF
330
17
100
AcDbEntity
  8
0
100
AcDbPoint
 10
98.01769079200156
 20
2.7728868676070775
 30
0.0
  0
LINE
  5
C0
330
17
100
AcDbEntity
  8
0
100
AcDbLine
 10
98.01769079200156
 20
0.0
 30
0.0
 11
98.01769079200156
 21
2.7728868676070775
 31
0.0
  0
POINT
  5
C1
330
17
100
AcDbEntity
  8
0
100
AcDbPoint
 10
99.37904760855713
 20
3.1946138649385674
 30
0.0
  0
LINE
  5
C2
330
17
100
AcDbEntity
  8
0
100
AcDbLine
 10
99.37904760855713
 20
0.0
 30
0.0
 11
99.37904760855713
 21
3.1946138649385674
 31
0.0
  0
POINT
  5
C3
330
17
100
AcDbEntity
  8
0
100
AcDbPoint
 10
100.74040442511271
 20
3.6304549739470104
 30
0.0
  0
LINE
  5
C4
330
17
100
AcDbEntity
  8
0
100
AcDbLine
 10
100.74040442511271
 20
0.0
 30
0.0
 11
100.74040442511271
 21
3.6304549739470104
 31
0.0
  0
POINT
  5
C5
330
17
100
AcDbEntity
  8
0
100
AcDbPoint
 10
102.10176124166829
 20
4.076022524357086
 30
0.0
  0
LINE
  5
C6
330
17
100
AcDbEntity
  8
0
100
AcDbLine
 10
102.10176124166829
 20
0.0
 30
0.0
 11
102.10176124166829
 21
4.076022524357086
 31
0.0
  0
POINT
  5
C7
330
17
100
AcDbEntity
  8
0
100
AcDbPoint
 10
103.46311805822387
 20
4.526683751372488
 30
0.0
  0
LINE
  5
C8
330
17
100
AcDbEntity
  8
0
100
AcDbLine
 10
103.46311805822387
 20
0.0
 30
0.0
 11
103.46311805822387
 21
4.526683751372488
 31
0.0
  0
POINT
  5
C9
330
17
100
AcDbEntity
  8
0
100
AcDbPoint
 10
104.82447487477944
 20
4.977592903563284
 30
0.0
  0
LINE
  5
CA
330
17
100
AcDbEntity
  8
0
100
AcDbLine
 10
104.82447487477944
 20
0.0
 30
0.0
 11
104.82447487477944
 21
4.977592903563284
 31
0.0
  0
POINT
  5
CB
330
17
100
AcDbEntity
  8
0
100
AcDbPoint
 10
106.18583169133503
 20
5.423731066433675
 30
0.0
  0
LINE
  5
CC
330
17
100
AcDbEntity
  8
0
100
AcDbLine
 10
106.18583169133503
 20
0.0
 30
0.0
 11
106.18583169133503
 21
5.423731066433675
 31
0.0
  0
POINT
  5
CD
330
17
100
AcDbEntity
  8
0
100
AcDbPoint
 10
107.5471885078906
 20
5.859954640829947
 30
0.0
  0
LINE
  5
CE
330
17
100
AcDbEntity
  8
0
100
AcDbLine
 10
107.5471885078906
 20
0.0
 30
0.0
 11
107.5471885078906
 21
5.859954640829947
 31
0.0
  0
POINT
  5
CF
330
17
100
AcDbEntity
  8
0
100
AcDbPoint
 10
108.90854532444618
 20
6.281053212107139
 30
0.0
  0
LINE
  5
D0
330
17
100
AcDbEntity
  8
0
100
AcDbLine
 10
108.90854532444618
 20
0.0
 30
0.0
 11
108.90854532444618
 21
6.281053212107139
 31
0.0
  0
POINT
  5
D1
330
17
100
AcDbEntity
  8
0
100
AcDbPoint
 10
110.26990214100175
 20
6.681817199579989
 30
0.0
  0
LINE
  5
D2
330
17
100
AcDbEntity
  8
0
100
AcDbLine
 10
110.26990214100175
 20
0.0
 30
0.0
 11
110.26990214100175
 21
6.681817199579989
 31
0.0
  0
POINT
  5
D3
330
17
100
AcDbEntity
  8
0
100
AcDbPoint
 10
111.63125895755732
 20
7.057115165636162
 30
0.0
  0
LINE
  5
D4
330
17
100
AcDbEntity
  8
0
100
AcDbLine
 10
111.63125895755732
 20
0.0
 30
0.0
 11
111.63125895755732
 21
7.057115165636162
 31
0.0
  0
POINT
  5
D5
330
17
100
AcDbEntity
  8
0
100
AcDbPoint
 10
112.9926157741129
 20
7.401979985203603
 30
0.0
  0
LINE
  5
D6
330
17
100
AcDbEntity
  8
0
100
AcDbLine
 10
112.9926157741129
 20
0.0
 30
0.0
 11
112.9926157741129
 21
7.401979985203603
 31
0.0
  0
POINT
  5
D7
330
17
100
AcDbEntity
  8
0
100
AcDbPoint
 10
114.35397259066848
 20
7.711702249181116
 30
0.0
  0
LINE
  5
D8
330
17
100
AcDbEntity
  8
0
100
AcDbLine
 10
114.35397259066848
 20
0.0
 30
0.0
 11
114.35397259066848
 21
7.711702249181116
 31
0.0
  0
POINT
  5
D9
330
17
100
AcDbEntity
  8
0
100
AcDbPoint
 10
115.71532940722406
 20
7.981928353007959
 30
0.0
  0
LINE
  5
DA
330
17
100
AcDbEntity
  8
0
100
AcDbLine
 10
115.71532940722406
 20
0.0
 30
0.0
 11
115.71532940722406
 21
7.981928353007959
 31
0.0
  0
POINT
  5
DB
330
17
100
AcDbEntity
  8
0
100
AcDbPoint
 10
117.07668622377963
 20
8.208759793444479
 30
0.0
  0
LINE
  5
DC
330
17
100
AcDbEntity
  8
0
100
AcDbLine
 10
117.07668622377963
 20
0.0
 30
0.0
 11
117.07668622377963
 21
8.208759793444479
 31
0.0
  0
POINT
  5
DD
330
17
100
AcDbEntity
  8
0
100
AcDbPoint
 10
118.43804304033522
 20
8.388849385241755
 30
0.0
  0
LINE
  5
DE
330
17
100
AcDbEntity
  8
0
100
AcDbLine
 10
118.43804304033522
 20
0.0
 30
0.0
 11
118.43804304033522
 21
8.388849385241755
 31
0.0
  0
POINT
  5
DF
330
17
100
AcDbEntity
  8
0
100
AcDbPoint
 10
119.79939985689079
 20
8.519489555582908
 30
0.0
  0
LINE
  5
E0
330
17
100
AcDbEntity
  8
0
100
AcDbLine
 10
119.79939985689079
 20
0.0
 30
0.0
 11
119.79939985689079
 21
8.519489555582908
 31
0.0
  0
POINT
  5
E1
330
17
100
AcDbEntity
  8
0
100
AcDbPoint
 10
121.16075667344637
 20
8.5986877128449
 30
0.0
  0
LINE
  5
E2
330
17
100
AcDbEntity
  8
0
100
AcDbLine
 10
121.16075667344637
 20
0.0
 30
0.0
 11
121.16075667344637
 21
8.5986877128449
 31
0.0
  0
POINT
  5
E3
330
17
100
AcDbEntity
  8
0
100
AcDbPoint
 10
122.52211349000194
 20
8.625224015056382
 30
0.0
  0
LINE
  5
E4
330
17
100
AcDbEntity
  8
0
100
AcDbLine
 10
122.52211349000194
 20
0.0
 30
0.0
 11
122.52211349000194
 21
8.625224015056382
 31
0.0
  0
POINT
  5
E5
330
17
100
AcDbEntity
  8
0
100
AcDbPoint
 10
123.88347030655753
 20
8.5986877128449
 30
0.0
  0
LINE
  5
E6
330
17
100
AcDbEntity
  8
0
100
AcDbLine
 10
123.88347030655753
 20
0.0
 30
0.0
 11
123.88347030655753
 21
8.5986877128449
 31
0.0
  0
POINT
  5
E7
330
17
100
AcDbEntity
  8
0
100
AcDbPoint
 10
125.2448271231131
 20
8.519489555582908
 30
0.0
  0
LINE
  5
E8
330
17
100
AcDbEntity
  8
0
100
AcDbLine
 10
125.2448271231131
 20
0.0
 30
0.0
 11
125.2448271231131
 21
8.519489555582908
 31
0.0
  0
POINT
  5
E9
330
17
100
AcDbEntity
  8
0
100
AcDbPoint
 10
126.60618393966868
 20
8.388849385241762
 30
0.0
  0
LINE
  5
EA
330
17
100
AcDbEntity
  8
0
100
AcDbLine
 10
126.60618393966868
 20
0.0
 30
0.0
 11
126.60618393966868
 21
8.388849385241762
 31
0.0
  0
POINT
  5
EB
330
17
100
AcDbEntity
  8
0
100
AcDbPoint
 10
127.96754075622425
 20
8.208759793444479
 30
0.0
  0
LINE
  5
EC
330
17
100
AcDbEntity
  8
0
100
AcDbLine
 10
127.96754075622425
 20
0.0
 30
0.0
 11
127.96754075622425
 21
8.208759793444479
 31
0.0
  0
POINT
  5
ED
330
17
100
AcDbEntity
  8
0
100
AcDbPoint
 10
129.32889757277982
 20
7.981928353007966
 30
0.0
  0
LINE
  5
EE
330
17
100
AcDbEntity
  8
0
100
AcDbLine
 10
129.32889757277982
 20
0.0
 30
0.0
 11
129.32889757277982
 21
7.981928353007966
 31
0.0
  0
POINT
  5
EF
330
17
100
AcDbEntity
  8
0
100
AcDbPoint
 10
130.6902543893354
 20
7.711702249181123
 30
0.0
  0
LINE
  5
F0
330
17
100
AcDbEntity
  8
0
100
AcDbLine
 10
130.6902543893354
 20
0.0
 30
0.0
 11
130.6902543893354
 21
7.711702249181123
 31
0.0
  0
POINT
  5
F1
330
17
100
AcDbEntity
  8
0
100
AcDbPoint
 10
132.051611205891
 20
7.40197998520361
 30
0.0
  0
LINE
  5
F2
330
17
100
AcDbEntity
  8
0
100
AcDbLine
 10
132.051611205891
 20
0.0
 30
0.0
 11
132.051611205891
 21
7.40197998520361
 31
0.0
  0
POINT
  5
F3
330
17
100
AcDbEntity
  8
0
100
AcDbPoint
 10
133.41296802244656
 20
7.057115165636162
 30
0.0
  0
LINE
  5
F4
330
17
100
AcDbEntity
  8
0
100
AcDbLine
 10
133.41296802244656
 20
0.0
 30
0.0
 11
133.41296802244656
 21
7.057115165636162
 31
0.0
  0
POINT
  5
F5
330
17
100
AcDbEntity
  8
0
100
AcDbPoint
 10
134.77432483900213
 20
6.681817199579989
 30
0.0
  0
LINE
  5
F6
330
17
100
AcDbEntity
  8
0
100
AcDbLine
 10
134.77432483900213
 20
0.0
 30
0.0
 11
134.77432483900213
 21
6.681817199579989
 31
0.0
  0
POINT
  5
F7
330
17
100
AcDbEntity
  8
0
100
AcDbPoint
 10
136.1356816555577
 20
6.281053212107146
 30
0.0
  0
LINE
  5
F8
330
17
100
AcDbEntity
  8
0
100
AcDbLine
 10
136.1356816555577
 20
0.0
 30
0.0
 11
136.1356816555577
 21
6.281053212107146
 31
0.0
  0
POINT
  5
F9
330
17
100
AcDbEntity
  8
0
100
AcDbPoint
 10
137.4970384721133
 20
5.859954640829947
 30
0.0
  0
LINE
  5
FA
330
17
100
AcDbEntity
  8
0
100
AcDbLine
 10
137.4970384721133
 20
0.0
 30
0.0
 11
137.4970384721133
 21
5.859954640829947
 31
0.0
  0
POINT
  5
FB
330
17
100
AcDbEntity
  8
0
100
AcDbPoint
 10
138.85839528866887
 20
5.423731066433682
 30
0.0
  0
LINE
  5
FC
330
17
100
AcDbEntity
  8
0
100
AcDbLine
 10
138.85839528866887
 20
0.0
 30
0.0
 11
138.85839528866887
 21
5.423731066433682
 31
0.0
  0
POINT
  5
FD
330
17
100
AcDbEntity
  8
0
100
AcDbPoint
 10
140.21975210522444
 20
4.977592903563291
 30
0.0
  0
LINE
  5
FE
330
17
100
AcDbEntity
  8
0
100
AcDbLine
 10
140.21975210522444
 20
0.0
 30
0.0
 11
140.21975210522444
 21
4.977592903563291
 31
0.0
  0
POINT
  5
FF
330
17
100
AcDbEntity
  8
0
100
AcDbPoint
 10
141.58110892178001
 20
4.526683751372495
 30
0.0
  0
LINE
  5
100
330
17
100
AcDbEntity
  8
0
100
AcDbLine
 10
141.58110892178001
 20
0.0
 30
0.0
 11
141.58110892178001
 21
4.526683751372495
 31
0.0
  0
POINT
  5
101
330
17
100
AcDbEntity
  8
0
100
AcDbPoint
 10
142.9424657383356
 20
4.076022524357086
 30
0.0
  0
LINE
  5
102
330
17
100
AcDbEntity
  8
0
100
AcDbLine
 10
142.9424657383356
 20
0.0
 30
0.0
 11
142.9424657383356
 21
4.076022524357086
 31
0.0
  0
POINT
  5
103
330
17
100
AcDbEntity
  8
0
100
AcDbPoint
 10
144.30382255489118
 20
3.6304549739470104
 30
0.0
  0
LINE
  5
104
330
17
100
AcDbEntity
  8
0
100
AcDbLine
 10
144.30382255489118
 20
0.0
 30
0.0
 11
144.30382255489118
 21
3.6304549739470104
 31
0.0
  0
POINT
  5
105
330
17
100
AcDbEntity
  8
0
100
AcDbPoint
 10
145.66517937144675
 20
3.1946138649385674
 30
0.0
  0
LINE
  5
106
330
17
100
AcDbEntity
  8
0
100
AcDbLine
 10
145.66517937144675
 20
0.0
 30
0.0
 11
145.66517937144675
 21
3.1946138649385674
 31
0.0
  0
POINT
  5
107
330
17
100
AcDbEntity
  8
0
100
AcDbPoint
 10
147.02653618800232
 20
2.7728868676070775
 30
0.0
  0
LINE
  5
108
330
17
100
AcDbEntity
  8
0
100
AcDbLine
 10
147.02653618800232
 20
0.0
 30
0.0
 11
147.02653618800232
 21
2.7728868676070775
 31
0.0
  0
POINT
  5
109
330
17
100
AcDbEntity
  8
0
100
AcDbPoint
 10
148.38789300455792
 20
2.3693911379904264
 30
0.0
  0
LINE
  5
10A
330
17
100
AcDbEntity
  8
0
100
AcDbLine
 10
148.38789300455792
 20
0.0
 30
0.0
 11
148.38789300455792
 21
2.3693911379904264
 31
0.0
  0
POINT
  5
10B
330
17
100
AcDbEntity
  8
0
100
AcDbPoint
 10
149.7492498211135
 20
1.9879535556243653
 30
0.0
  0
LINE
  5
10C
330
17
100
AcDbEntity
  8
0
100
AcDbLine
 10
149.7492498211135
 20
0.0
 30
0.0
 11
149.7492498211135
 21
1.9879535556243653
 31
0.0
  0
POINT
  5
10D
330
17
100
AcDbEntity
  8
0
100
AcDbPoint
 10
151.11060663766906
 20
1.6320956426661368
 30
0.0
  0
LINE
  5
10E
330
17
100
AcDbEntity
  8
0
100
AcDbLine
 10
151.11060663766906
 20
0.0
 30
0.0
 11
151.11060663766906
 21
1.6320956426661368
 31
0.0
  0
POINT
  5
10F
330
17
100
AcDbEntity
  8
0
100
AcDbPoint
 10
152.47196345422464
 20
1.3050222781277654
 30
0.0
  0
LINE
  5
110
330
17
100
AcDbEntity
  8
0
100
AcDbLine
 10
152.47196345422464
 20
0.0
 30
0.0
 11
152.47196345422464
 21
1.3050222781277654
 31
0.0
  0
POINT
  5
111
330
17
100
AcDbEntity
  8
0
100
AcDbPoint
 10
153.8333202707802
 20
1.0096134283134717
 30
0.0
  0
LINE
  5
112
330
17
100
AcDbEntity
  8
0
100
AcDbLine
 10
153.8333202707802
 20
0.0
 30
0.0
 11
153.8333202707802
 21
1.0096134283134717
 31
0.0
  0
POINT
  5
113
330
17
100
AcDbEntity
  8
0
100
AcDbPoint
 10
155.1946770873358
 20
0.7484182269388739
 30
0.0
  0
LINE
  5
114
330
17
100
AcDbEntity
  8
0
100
AcDbLine
 10
155.1946770873358
 20
0.0
 30
0.0
 11
155.1946770873358
 21
0.7484182269388739
 31
0.0
  0
POINT
  5
115
330
17
100
AcDbEntity
  8
0
100
AcDbPoint
 10
156.55603390389138
 20
0.5236508474819317
 30
0.0
  0
LINE
  5
116
330
17
100
AcDbEntity
  8
0
100
AcDbLine
 10
156.55603390389138
 20
0.0
 30
0.0
 11
156.55603390389138
 21
0.5236508474819317
 31
0.0
  0
POINT
  5
117
330
17
100
AcDbEntity
  8
0
100
AcDbPoint
 10
157.91739072044695
 20
0.33718771114190815
 30
0.0
  0
LINE
  5
118
330
17
100
AcDbEntity
  8
0
100
AcDbLine
 10
157.91739072044695
 20
0.0
 30
0.0
 11
157.91739072044695
 21
0.33718771114190815
 31
0.0
  0
POINT
  5
119
330
17
100
AcDbEntity
  8
0
100
AcDbPoint
 10
159.27874753700252
 20
0.19056566395998686
 30
0.0
  0
LINE
  5
11A
330
17
100
AcDbEntity
  8
0
100
AcDbLine
 10
159.27874753700252
 20
0.0
 30
0.0
 11
159.27874753700252
 21
0.19056566395998686
 31
0.0
  0
POINT
  5
11B
330
17
100
AcDbEntity
  8
0
100
AcDbPoint
 10
160.64010435355812
 20
0.08498083556767
 30
0.0
  0
LINE
  5
11C
330
17
100
AcDbEntity
  8
0
100
AcDbLine
 10
160.64010435355812
 20
0.0
 30
0.0
 11
160.64010435355812
 21
0.08498083556767
 31
0.0
  0
POINT
  5
11D
330
17
100
AcDbEntity
  8
0
100
AcDbPoint
 10
162.00146117011369
 20
0.02128796026179458
 30
0.0
  0
LINE
  5
11E
330
17
100
AcDbEntity
  8
0
100
AcDbLine
 10
162.00146117011369
 20
0.0
 30
0.0
 11
162.00146117011369
 21
0.02128796026179458
 31
0.0
  0
POINT
  5
11F
330
17
100
AcDbEntity
  8
0
100
AcDbPoint
 10
163.36281798666926
 20
0.0
 30
0.0
  0
LINE
  5
120
330
17
100
AcDbEntity
  8
0
100
AcDbLine
 10
163.36281798666926
 20
0.0
 30
0.0
 11
163.36281798666926
 21
0.0
 31
0.0
  0
LINE
  5
121
330
17
100
AcDbEntity
  8
0
370
158
100
AcDbLine
 10
0.0
 20
8.625224015056382
 30
0.0
 11
163.36281798666926
 21
8.625224015056382
 31
0.0
  0
LINE
  5
122
330
17
100
AcDbEntity
  8
0
370
158
100
AcDbLine
 10
0.0
 20
0.0
 30
0.0
 11
163.36281798666926
 21
0.0
 31
0.0
  0
LINE
  5
123
330
17
100
AcDbEntity
  8
0
370
158
100
AcDbLine
 10
0.0
 20
0.0
 30
0.0
 11
0.0
 21
8.625224015056382
 31
0.0
  0
LINE
  5
124
330
17
100
AcDbEntity
  8
0
370
158
100
AcDbLine
 10
163.36281798666926
 20
0.0
 30
0.0
 11
163.36281798666926
 21
8.625224015056382
 31
0.0
  0
LINE
  5
125
330
17
100
AcDbEntity
  8
0
370
158
100
AcDbLine
 10
0.0
 20
-8.625224015056382
 30
0.0
 11
163.36281798666926
 21
-8.625224015056382
 31
0.0
  0
LINE
  5
126
330
17
100
AcDbEntity
  8
0
370
158
100
AcDbLine
 10
0.0
 20
0.0
 30
0.0
 11
0.0
 21
-8.625224015056382
 31
0.0
  0
LINE
  5
127
330
17
100
AcDbEntity
  8
0
  6
DASHED
370
158
100
AcDbLine
 10
163.36281798666926
 20
0.0
 30
0.0
 11
163.36281798666926
 21
-8.625224015056382
 31
0.0
  0
DIMENSION
  5
128
330
17
100
AcDbEntity
  8
0
100
AcDbDimension
280
0
  2
*D1
  3
Standard
 10
0.0
 20
-4.312612007528191
 30
0.0
 11
81.68140899333463
 21
-4.312612007528191
 31
0.0
 70
32
 71
5
  1
<> mm
100
AcDbAlignedDimension
 13
0.0
 23
-8.625224015056382
 33
0.0
 14
163.36281798666926
 24
-8.625224015056382
 34
0.0
 50
0.0
100
AcDbRotatedDimension
1001
ACAD
1000
DSTYLE
1002
{
1070
140
1040
1.0
1070
280
1070
0
1002
}
  0
DIMENSION
  5
13C
330
17
100
AcDbEntity
  8
0
100
AcDbDimension
280
0
  2
*D2
  3
Standard
 10
25.875672045169146
 20
8.625224015056382
 30
0.0
 11
29.875672045169146
 21
-7.500224015056382
 31
0.0
 70
32
 71
5
  1
<> mm
100
AcDbAlignedDimension
 13
0.0
 23
8.625224015056382
 33
0.0
 14
0.0
 24
-8.625224015056382
 34
0.0
 50
-90.0
100
AcDbRotatedDimension
1001
ACAD
1000
DSTYLE
1002
{
1070
280
1070
4
1070
41
1040
1.5
1070
173
1070
0
1070
142
1040
0.0
1070
342
1005
0
1002
}
  0
DIMENSION
  5
14B
330
17
100
AcDbEntity
  8
0
100
AcDbDimension
280
0
  2
*D3
  3
Standard
 10
8.625224015056382
 20
0.0
 30
0.0
 11
7.500224015056382
 21
4.312612007528191
 31
0.0
 70
32
 71
5
  1
<> mm
100
AcDbAlignedDimension
 13
0.0
 23
0.0
 33
0.0
 14
0.0
 24
8.625224015056382
 34
0.0
 50
90.0
100
AcDbRotatedDimension
1001
ACAD
1000
DSTYLE
1002
{
1070
41
1040
1.5
1070
173
1070
0
1070
142
1040
0.0
1070
342
1005
0
1002
}
  0
DIMENSION
  5
15A
330
17
100
AcDbEntity
  8
0
100
AcDbDimension
280
0
  2
*D4
  3
Standard
 10
17.250448030112764
 20
0.0
 30
0.0
 11
20.750448030112764
 21
-7.500224015056382
 31
0.0
 70
32
 71
5
  1
<> mm
100
AcDbAlignedDimension
 13
0.0
 23
0.0
 33
0.0
 14
0.0
 24
-8.625224015056382
 34
0.0
 50
-90.0
100
AcDbRotatedDimension
1001
ACAD
1000
DSTYLE
1002
{
1070
280
1070
4
1070
41
1040
1.5
1070
173
1070
0
1070
142
1040
0.0
1070
342
1005
0
1002
}
  0
LWPOLYLINE
  5
169
330
17
100
AcDbEntity
  8
0
370
158
100
AcDbPolyline
 90
121
 70
0
 10
0.0
 20
0.0
 10
1.3613568165555772
 20
0.02128796026179458
 10
2.7227136331111543
 20
0.08498083556767
 10
4.084070449666731
 20
0.19056566395998686
 10
5.445427266222309
 20
0.33718771114190815
 10
6.806784082777886
 20
0.5236508474819317
 10
8.168140899333462
 20
0.7484182269388739
 10
9.52949771588904
 20
1.0096134283134646
 10
10.890854532444617
 20
1.3050222781277654
 10
12.252211349000195
 20
1.6320956426661368
 10
13.613568165555773
 20
1.9879535556243653
 10
14.974924982111348
 20
2.3693911379904264
 10
16.336281798666924
 20
2.7728868676070775
 10
17.697638615222502
 20
3.1946138649385603
 10
19.05899543177808
 20
3.6304549739470104
 10
20.420352248333657
 20
4.076022524357086
 10
21.781709064889235
 20
4.526683751372488
 10
23.143065881444812
 20
4.977592903563291
 10
24.50442269800039
 20
5.423731066433675
 10
25.865779514555967
 20
5.85995464082994
 10
27.227136331111545
 20
6.281053212107146
 10
28.58849314766712
 20
6.681817199579989
 10
29.949849964222697
 20
7.057115165636162
 10
31.311206780778274
 20
7.40197998520361
 10
32.67256359733385
 20
7.711702249181116
 10
34.033920413889426
 20
7.981928353007959
 10
35.395277230445004
 20
8.208759793444479
 10
36.75663404700058
 20
8.388849385241762
 10
38.11799086355616
 20
8.5194895555829
 10
39.47934768011174
 20
8.5986877128449
 10
40.840704496667314
 20
8.625224015056382
 10
42.20206131322289
 20
8.5986877128449
 10
43.56341812977847
 20
8.5194895555829
 10
44.92477494633405
 20
8.388849385241762
 10
46.286131762889624
 20
8.208759793444479
 10
47.6474885794452
 20
7.981928353007959
 10
49.00884539600078
 20
7.711702249181123
 10
50.37020221255636
 20
7.40197998520361
 10
51.731559029111935
 20
7.057115165636162
 10
53.09291584566751
 20
6.681817199579989
 10
54.45427266222309
 20
6.281053212107146
 10
55.81562947877866
 20
5.85995464082994
 10
57.17698629533424
 20
5.423731066433675
 10
58.538343111889816
 20
4.977592903563291
 10
59.89969992844539
 20
4.526683751372488
 10
61.26105674500097
 20
4.076022524357086
 10
62.62241356155655
 20
3.6304549739470104
 10
63.983770378112126
 20
3.1946138649385603
 10
65.3451271946677
 20
2.7728868676070775
 10
66.70648401122328
 20
2.3693911379904264
 10
68.06784082777885
 20
1.9879535556243653
 10
69.42919764433444
 20
1.6320956426661368
 10
70.79055446089001
 20
1.3050222781277654
 10
72.15191127744559
 20
1.0096134283134646
 10
73.51326809400116
 20
0.7484182269388739
 10
74.87462491055675
 20
0.5236508474819317
 10
76.23598172711232
 20
0.33718771114190815
 10
77.5973385436679
 20
0.19056566395998686
 10
78.95869536022347
 20
0.08498083556767
 10
80.32005217677906
 20
0.021287960261787475
 10
81.68140899333463
 20
0.0
 10
83.04276580989021
 20
0.021287960261787475
 10
84.40412262644578
 20
0.08498083556767
 10
85.76547944300137
 20
0.19056566395998686
 10
87.12683625955694
 20
0.33718771114190815
 10
88.48819307611251
 20
0.5236508474819317
 10
89.8495498926681
 20
0.7484182269388739
 10
91.21090670922366
 20
1.0096134283134717
 10
92.57226352577925
 20
1.3050222781277654
 10
93.93362034233482
 20
1.6320956426661368
 10
95.2949771588904
 20
1.9879535556243653
 10
96.65633397544597
 20
2.3693911379904264
 10
98.01769079200156
 20
2.7728868676070775
 10
99.37904760855713
 20
3.1946138649385674
 10
100.74040442511271
 20
3.6304549739470104
 10
102.10176124166829
 20
4.076022524357086
 10
103.46311805822387
 20
4.526683751372488
 10
104.82447487477944
 20
4.977592903563284
 10
106.18583169133503
 20
5.423731066433675
 10
107.5471885078906
 20
5.859954640829947
 10
108.90854532444618
 20
6.281053212107139
 10
110.26990214100175
 20
6.681817199579989
 10
111.63125895755732
 20
7.057115165636162
 10
112.9926157741129
 20
7.401979985203603
 10
114.35397259066848
 20
7.711702249181116
 10
115.71532940722406
 20
7.981928353007959
 10
117.07668622377963
 20
8.208759793444479
 10
118.43804304033522
 20
8.388849385241755
 10
119.79939985689079
 20
8.519489555582908
 10
121.16075667344637
 20
8.5986877128449
 10
122.52211349000194
 20
8.625224015056382
 10
123.88347030655753
 20
8.5986877128449
 10
125.2448271231131
 20
8.519489555582908
 10
126.60618393966868
 20
8.388849385241762
 10
127.96754075622425
 20
8.208759793444479
 10
129.32889757277982
 20
7.981928353007966
 10
130.6902543893354
 20
7.711702249181123
 10
132.051611205891
 20
7.40197998520361
 10
133.41296802244656
 20
7.057115165636162
 10
134.77432483900213
 20
6.681817199579989
 10
136.1356816555577
 20
6.281053212107146
 10
137.4970384721133
 20
5.859954640829947
 10
138.85839528866887
 20
5.423731066433682
 10
140.21975210522444
 20
4.977592903563291
 10
141.58110892178001
 20
4.526683751372495
 10
142.9424657383356
 20
4.076022524357086
 10
144.30382255489118
 20
3.6304549739470104
 10
145.66517937144675
 20
3.1946138649385674
 10
147.02653618800232
 20
2.7728868676070775
 10
148.38789300455792
 20
2.3693911379904264
 10
149.7492498211135
 20
1.9879535556243653
 10
151.11060663766906
 20
1.6320956426661368
 10
152.47196345422464
 20
1.3050222781277654
 10
153.8333202707802
 20
1.0096134283134717
 10
155.1946770873358
 20
0.7484182269388739
 10
156.55603390389138
 20
0.5236508474819317
 10
157.91739072044695
 20
0.33718771114190815
 10
159.27874753700252
 20
0.19056566395998686
 10
160.64010435355812
 20
0.08498083556767
 10
162.00146117011369
 20
0.02128796026179458
 10
163.36281798666926
 20
0.0
  0
ENDSEC
  0
SECTION
  2
OBJECTS
  0
DICTIONARY
  5
A
330
0
100
AcDbDictionary
281
1
  3
ACAD_COLOR
350
B
  3
ACAD_GROUP
350
C
  3
ACAD_LAYOUT
350
D
  3
ACAD_MATERIAL
350
E
  3
ACAD_MLEADERSTYLE
350
F
  3
ACAD_MLINESTYLE
350
10
  3
ACAD_PLOTSETTINGS
350
11
  3
ACAD_PLOTSTYLENAME
350
12
  3
ACAD_SCALELIST
350
14
  3
ACAD_TABLESTYLE
350
15
  3
ACAD_VISUALSTYLE
350
16
  3
EZDXF_META
350
2D
  0
DICTIONARY
  5
B
330
A
100
AcDbDictionary
281
1
  0
DICTIONARY
  5
C
330
A
100
AcDbDictionary
281
1
  0
DICTIONARY
  5
D
330
A
100
AcDbDictionary
281
1
  3
Model
350
1A
  3
Layout1
350
1E
  0
DICTIONARY
  5
E
330
A
100
AcDbDictionary
281
1
  3
ByBlock
350
1F
  3
ByLayer
350
20
  3
Global
350
21
  0
DICTIONARY
  5
F
330
A
100
AcDbDictionary
281
1
  3
Standard
350
2C
  0
DICTIONARY
  5
10
330
A
100
AcDbDictionary
281
1
  3
Standard
350
22
  0
DICTIONARY
  5
11
330
A
100
AcDbDictionary
281
1
  0
ACDBDICTIONARYWDFLT
  5
12
330
A
100
AcDbDictionary
281
1
  3
Normal
350
13
100
AcDbDictionaryWithDefault
340
13
  0
ACDBPLACEHOLDER
  5
13
330
12
  0
DICTIONARY
  5
14
330
A
100
AcDbDictionary
281
1
  0
DICTIONARY
  5
15
330
A
100
AcDbDictionary
281
1
  0
DICTIONARY
  5
16
330
A
100
AcDbDictionary
281
1
  0
LAYOUT
  5
1A
330
D
100
AcDbPlotSettings
  1

  4
A3
  6

 40
7.5
 41
20.0
 42
7.5
 43
20.0
 44
420.0
 45
297.0
 46
0.0
 47
0.0
 48
0.0
 49
0.0
140
0.0
141
0.0
142
1.0
143
1.0
 70
1024
 72
1
 73
0
 74
5
  7

 75
16
 76
0
 77
2
 78
300
147
1.0
148
0.0
149
0.0
100
AcDbLayout
  1
Model
 70
1
 71
0
 10
0.0
 20
0.0
 11
420.0
 21
297.0
 12
0.0
 22
0.0
 32
0.0
 14
1e+20
 24
1e+20
 34
1e+20
 15
-1e+20
 25
-1e+20
 35
-1e+20
146
0.0
 13
0.0
 23
0.0
 33
0.0
 16
1.0
 26
0.0
 36
0.0
 17
0.0
 27
1.0
 37
0.0
 76
1
330
17
  0
LAYOUT
  5
1E
330
D
100
AcDbPlotSettings
  1

  4
A3
  6

 40
7.5
 41
20.0
 42
7.5
 43
20.0
 44
420.0
 45
297.0
 46
0.0
 47
0.0
 48
0.0
 49
0.0
140
0.0
141
0.0
142
1.0
143
1.0
 70
0
 72
1
 73
0
 74
5
  7

 75
16
 76
0
 77
2
 78
300
147
1.0
148
0.0
149
0.0
100
AcDbLayout
  1
Layout1
 70
1
 71
1
 10
0.0
 20
0.0
 11
420.0
 21
297.0
 12
0.0
 22
0.0
 32
0.0
 14
1e+20
 24
1e+20
 34
1e+20
 15
-1e+20
 25
-1e+20
 35
-1e+20
146
0.0
 13
0.0
 23
0.0
 33
0.0
 16
1.0
 26
0.0
 36
0.0
 17
0.0
 27
1.0
 37
0.0
 76
1
330
1B
  0
MATERIAL
  5
1F
102
{ACAD_REACTORS
330
E
102
}
330
E
100
AcDbMaterial
  1
ByBlock
  2

 70
0
 40
1.0
 71
1
 41
1.0
 91
-1023410177
 42
1.0
 72
1
  3

 73
1
 74
1
 75
1
 44
0.5
 73
0
 45
1.0
 46
1.0
 77
1
  4

 78
1
 79
1
170
1
 48
1.0
171
1
  6

172
1
173
1
174
1
140
1.0
141
1.0
175
1
  7

176
1
177
1
178
1
143
1.0
179
1
  8

270
1
271
1
272
1
145
1.0
146
1.0
273
1
  9

274
1
275
1
276
1
 42
1.0
 72
1
  3

 73
1
 74
1
 75
1
 94
63
  0
MATERIAL
  5
20
102
{ACAD_REACTORS
330
E
102
}
330
E
100
AcDbMaterial
  1
ByLayer
  2

 70
0
 40
1.0
 71
1
 41
1.0
 91
-1023410177
 42
1.0
 72
1
  3

 73
1
 74
1
 75
1
 44
0.5
 73
0
 45
1.0
 46
1.0
 77
1
  4

 78
1
 79
1
170
1
 48
1.0
171
1
  6

172
1
173
1
174
1
140
1.0
141
1.0
175
1
  7

176
1
177
1
178
1
143
1.0
179
1
  8

270
1
271
1
272
1
145
1.0
146
1.0
273
1
  9

274
1
275
1
276
1
 42
1.0
 72
1
  3

 73
1
 74
1
 75
1
 94
63
  0
MATERIAL
  5
21
102
{ACAD_REACTORS
330
E
102
}
330
E
100
AcDbMaterial
  1
Global
  2

 70
0
 40
1.0
 71
1
 41
1.0
 91
-1023410177
 42
1.0
 72
1
  3

 73
1
 74
1
 75
1
 44
0.5
 73
0
 45
1.0
 46
1.0
 77
1
  4

 78
1
 79
1
170
1
 48
1.0
171
1
  6

172
1
173
1
174
1
140
1.0
141
1.0
175
1
  7

176
1
177
1
178
1
143
1.0
179
1
  8

270
1
271
1
272
1
145
1.0
146
1.0
273
1
  9

274
1
275
1
276
1
 42
1.0
 72
1
  3

 73
1
 74
1
 75
1
 94
63
  0
MLINESTYLE
  5
22
102
{ACAD_REACTORS
330
10
102
}
330
10
100
AcDbMlineStyle
  2
Standard
 70
0
  3

 62
256
 51
90.0
 52
90.0
 71
2
 49
0.5
 62
256
  6
BYLAYER
 49
-0.5
 62
256
  6
BYLAYER
  0
MLEADERSTYLE
  5
2C
102
{ACAD_REACTORS
330
F
102
}
330
F
100
AcDbMLeaderStyle
179
2
170
2
171
1
172
0
 90
2
 40
0.0
 41
0.0
173
1
 91
-1056964608
 92
-2
290
1
 42
2.0
291
1
 43
8.0
  3
Standard
 44
4.0
300

342
29
174
1
175
1
176
0
178
1
 93
-1056964608
 45
4.0
292
0
297
0
 46
4.0
 94
-1056964608
 47
1.0
 49
1.0
140
1.0
294
1
141
0.0
177
0
142
1.0
295
0
296
0
143
3.75
271
0
272
9
273
9
  0
DICTIONARY
  5
2D
330
A
100
AcDbDictionary
280
1
281
1
  3
CREATED_BY_EZDXF
350
2E
  3
WRITTEN_BY_EZDXF
350
16C
  0
DICTIONARYVAR
  5
2E
330
2D
100
DictionaryVariables
280
0
  1
1.4.2 @ 2025-06-16T23:05:56.226911+00:00
  0
DICTIONARYVAR
  5
16C
330
2D
100
DictionaryVariables
280
0
  1
1.4.2 @ 2025-06-16T23:05:56.236457+00:00
  0
ENDSEC
  0
EOF
