<?xml version="1.0" encoding="utf-8" ?>
<svg baseProfile="full" height="297mm" version="1.1" viewBox="0 0 210 297" width="210mm" xmlns="http://www.w3.org/2000/svg" xmlns:ev="http://www.w3.org/2001/xml-events" xmlns:xlink="http://www.w3.org/1999/xlink"><defs /><line stroke="black" stroke-dasharray="5,3" stroke-width="0.3" x1="20.0" x2="183.36281798666926" y1="150.0" y2="150.0" /><line stroke="black" stroke-dasharray="5,3" stroke-width="0.3" x1="20.0" x2="183.36281798666926" y1="141.74202037341217" y2="141.74202037341217" /><line stroke="black" stroke-dasharray="5,3" stroke-width="0.3" x1="20.0" x2="183.36281798666926" y1="158.25797962658783" y2="158.25797962658783" /><line stroke="black" stroke-dasharray="5,3" stroke-width="0.3" x1="20.0" x2="20.0" y1="141.74202037341217" y2="158.25797962658783" /><line stroke="black" stroke-dasharray="5,3" stroke-width="0.3" x1="183.36281798666926" x2="183.36281798666926" y1="158.25797962658783" y2="141.74202037341217" /><circle cx="20.0" cy="150.0" fill="red" r="0.5" /><line stroke="black" stroke-width="0.3" x1="20.0" x2="20.0" y1="150.0" y2="150.0" /><circle cx="20.0" cy="150.0" fill="green" r="0.5" /><circle cx="21.361356816555578" cy="150.02047687437673" fill="red" r="0.5" /><line stroke="black" stroke-width="0.3" x1="21.361356816555578" x2="21.361356816555578" y1="150.0" y2="150.02047687437673" /><circle cx="21.361356816555578" cy="150.0" fill="green" r="0.5" /><circle cx="22.722713633111155" cy="150.0817407224958" fill="red" r="0.5" /><line stroke="black" stroke-width="0.3" x1="22.722713633111155" x2="22.722713633111155" y1="150.0" y2="150.0817407224958" /><circle cx="22.722713633111155" cy="150.0" fill="green" r="0.5" /><circle cx="24.084070449666733" cy="150.18329133162976" fill="red" r="0.5" /><line stroke="black" stroke-width="0.3" x1="24.084070449666733" x2="24.084070449666733" y1="150.0" y2="150.18329133162976" /><circle cx="24.084070449666733" cy="150.0" fill="green" r="0.5" /><circle cx="25.44542726622231" cy="150.32429540915342" fill="red" r="0.5" /><line stroke="black" stroke-width="0.3" x1="25.44542726622231" x2="25.44542726622231" y1="150.0" y2="150.32429540915342" /><circle cx="25.44542726622231" cy="150.0" fill="green" r="0.5" /><circle cx="26.806784082777888" cy="150.5035872495691" fill="red" r="0.5" /><line stroke="black" stroke-width="0.3" x1="26.806784082777888" x2="26.806784082777888" y1="150.0" y2="150.5035872495691" /><circle cx="26.806784082777888" cy="150.0" fill="green" r="0.5" /><circle cx="28.168140899333462" cy="150.7196698201597" fill="red" r="0.5" /><line stroke="black" stroke-width="0.3" x1="28.168140899333462" x2="28.168140899333462" y1="150.0" y2="150.7196698201597" /><circle cx="28.168140899333462" cy="150.0" fill="green" r="0.5" /><circle cx="29.52949771588904" cy="150.9707164252284" fill="red" r="0.5" /><line stroke="black" stroke-width="0.3" x1="29.52949771588904" x2="29.52949771588904" y1="150.0" y2="150.9707164252284" /><circle cx="29.52949771588904" cy="150.0" fill="green" r="0.5" /><circle cx="30.890854532444617" cy="151.254573165934" fill="red" r="0.5" /><line stroke="black" stroke-width="0.3" x1="30.890854532444617" x2="30.890854532444617" y1="150.0" y2="151.254573165934" /><circle cx="30.890854532444617" cy="150.0" fill="green" r="0.5" /><circle cx="32.25221134900019" cy="151.5687624776994" fill="red" r="0.5" /><line stroke="black" stroke-width="0.3" x1="32.25221134900019" x2="32.25221134900019" y1="150.0" y2="151.5687624776994" /><circle cx="32.25221134900019" cy="150.0" fill="green" r="0.5" /><circle cx="33.613568165555776" cy="151.9104881009647" fill="red" r="0.5" /><line stroke="black" stroke-width="0.3" x1="33.613568165555776" x2="33.613568165555776" y1="150.0" y2="151.9104881009647" /><circle cx="33.613568165555776" cy="150.0" fill="green" r="0.5" /><circle cx="34.97492498211135" cy="152.27664192378282" fill="red" r="0.5" /><line stroke="black" stroke-width="0.3" x1="34.97492498211135" x2="34.97492498211135" y1="150.0" y2="152.27664192378282" /><circle cx="34.97492498211135" cy="150.0" fill="green" r="0.5" /><circle cx="36.336281798666924" cy="152.66381322532484" fill="red" r="0.5" /><line stroke="black" stroke-width="0.3" x1="36.336281798666924" x2="36.336281798666924" y1="150.0" y2="152.66381322532484" /><circle cx="36.336281798666924" cy="150.0" fill="green" r="0.5" /><circle cx="37.6976386152225" cy="153.06830094496246" fill="red" r="0.5" /><line stroke="black" stroke-width="0.3" x1="37.6976386152225" x2="37.6976386152225" y1="150.0" y2="153.06830094496246" /><circle cx="37.6976386152225" cy="150.0" fill="green" r="0.5" /><circle cx="39.05899543177808" cy="153.4861296970676" fill="red" r="0.5" /><line stroke="black" stroke-width="0.3" x1="39.05899543177808" x2="39.05899543177808" y1="150.0" y2="153.4861296970676" /><circle cx="39.05899543177808" cy="150.0" fill="green" r="0.5" /><circle cx="40.42035224833366" cy="153.91307033881006" fill="red" r="0.5" /><line stroke="black" stroke-width="0.3" x1="40.42035224833366" x2="40.42035224833366" y1="150.0" y2="153.91307033881006" /><circle cx="40.42035224833366" cy="150.0" fill="green" r="0.5" /><circle cx="41.781709064889235" cy="154.3446659651574" fill="red" r="0.5" /><line stroke="black" stroke-width="0.3" x1="41.781709064889235" x2="41.781709064889235" y1="150.0" y2="154.3446659651574" /><circle cx="41.781709064889235" cy="150.0" fill="green" r="0.5" /><circle cx="43.14306588144481" cy="154.77626423596405" fill="red" r="0.5" /><line stroke="black" stroke-width="0.3" x1="43.14306588144481" x2="43.14306588144481" y1="150.0" y2="154.77626423596405" /><circle cx="43.14306588144481" cy="150.0" fill="green" r="0.5" /><circle cx="44.50442269800039" cy="155.2030569143718" fill="red" r="0.5" /><line stroke="black" stroke-width="0.3" x1="44.50442269800039" x2="44.50442269800039" y1="150.0" y2="155.2030569143718" /><circle cx="44.50442269800039" cy="150.0" fill="green" r="0.5" /><circle cx="45.86577951455597" cy="155.62012739039398" fill="red" r="0.5" /><line stroke="black" stroke-width="0.3" x1="45.86577951455597" x2="45.86577951455597" y1="150.0" y2="155.62012739039398" /><circle cx="45.86577951455597" cy="150.0" fill="green" r="0.5" /><circle cx="47.227136331111545" cy="156.02250675405304" fill="red" r="0.5" /><line stroke="black" stroke-width="0.3" x1="47.227136331111545" x2="47.227136331111545" y1="150.0" y2="156.02250675405304" /><circle cx="47.227136331111545" cy="150.0" fill="green" r="0.5" /><circle cx="48.58849314766712" cy="156.40523864683303" fill="red" r="0.5" /><line stroke="black" stroke-width="0.3" x1="48.58849314766712" x2="48.58849314766712" y1="150.0" y2="156.40523864683303" /><circle cx="48.58849314766712" cy="150.0" fill="green" r="0.5" /><circle cx="49.94984996422269" cy="156.76345264443628" fill="red" r="0.5" /><line stroke="black" stroke-width="0.3" x1="49.94984996422269" x2="49.94984996422269" y1="150.0" y2="156.76345264443628" /><circle cx="49.94984996422269" cy="150.0" fill="green" r="0.5" /><circle cx="51.31120678077828" cy="157.09244530847118" fill="red" r="0.5" /><line stroke="black" stroke-width="0.3" x1="51.31120678077828" x2="51.31120678077828" y1="150.0" y2="157.09244530847118" /><circle cx="51.31120678077828" cy="150.0" fill="green" r="0.5" /><circle cx="52.67256359733385" cy="157.38776731211644" fill="red" r="0.5" /><line stroke="black" stroke-width="0.3" x1="52.67256359733385" x2="52.67256359733385" y1="150.0" y2="157.38776731211644" /><circle cx="52.67256359733385" cy="150.0" fill="green" r="0.5" /><circle cx="54.033920413889426" cy="157.64531424493327" fill="red" r="0.5" /><line stroke="black" stroke-width="0.3" x1="54.033920413889426" x2="54.033920413889426" y1="150.0" y2="157.64531424493327" /><circle cx="54.033920413889426" cy="150.0" fill="green" r="0.5" /><circle cx="55.395277230445004" cy="157.86141791423304" fill="red" r="0.5" /><line stroke="black" stroke-width="0.3" x1="55.395277230445004" x2="55.395277230445004" y1="150.0" y2="157.86141791423304" /><circle cx="55.395277230445004" cy="150.0" fill="green" r="0.5" /><circle cx="56.75663404700058" cy="158.03293428912482" fill="red" r="0.5" /><line stroke="black" stroke-width="0.3" x1="56.75663404700058" x2="56.75663404700058" y1="150.0" y2="158.03293428912482" /><circle cx="56.75663404700058" cy="150.0" fill="green" r="0.5" /><circle cx="58.11799086355616" cy="158.15732379528367" fill="red" r="0.5" /><line stroke="black" stroke-width="0.3" x1="58.11799086355616" x2="58.11799086355616" y1="150.0" y2="158.15732379528367" /><circle cx="58.11799086355616" cy="150.0" fill="green" r="0.5" /><circle cx="59.47934768011174" cy="158.23271957226655" fill="red" r="0.5" /><line stroke="black" stroke-width="0.3" x1="59.47934768011174" x2="59.47934768011174" y1="150.0" y2="158.23271957226655" /><circle cx="59.47934768011174" cy="150.0" fill="green" r="0.5" /><circle cx="60.840704496667314" cy="158.25797962658783" fill="red" r="0.5" /><line stroke="black" stroke-width="0.3" x1="60.840704496667314" x2="60.840704496667314" y1="150.0" y2="158.25797962658783" /><circle cx="60.840704496667314" cy="150.0" fill="green" r="0.5" /><circle cx="62.20206131322289" cy="158.23271957226655" fill="red" r="0.5" /><line stroke="black" stroke-width="0.3" x1="62.20206131322289" x2="62.20206131322289" y1="150.0" y2="158.23271957226655" /><circle cx="62.20206131322289" cy="150.0" fill="green" r="0.5" /><circle cx="63.56341812977847" cy="158.15732379528367" fill="red" r="0.5" /><line stroke="black" stroke-width="0.3" x1="63.56341812977847" x2="63.56341812977847" y1="150.0" y2="158.15732379528367" /><circle cx="63.56341812977847" cy="150.0" fill="green" r="0.5" /><circle cx="64.92477494633405" cy="158.03293428912482" fill="red" r="0.5" /><line stroke="black" stroke-width="0.3" x1="64.92477494633405" x2="64.92477494633405" y1="150.0" y2="158.03293428912482" /><circle cx="64.92477494633405" cy="150.0" fill="green" r="0.5" /><circle cx="66.28613176288962" cy="157.86141791423304" fill="red" r="0.5" /><line stroke="black" stroke-width="0.3" x1="66.28613176288962" x2="66.28613176288962" y1="150.0" y2="157.86141791423304" /><circle cx="66.28613176288962" cy="150.0" fill="green" r="0.5" /><circle cx="67.6474885794452" cy="157.64531424493327" fill="red" r="0.5" /><line stroke="black" stroke-width="0.3" x1="67.6474885794452" x2="67.6474885794452" y1="150.0" y2="157.64531424493327" /><circle cx="67.6474885794452" cy="150.0" fill="green" r="0.5" /><circle cx="69.00884539600078" cy="157.38776731211647" fill="red" r="0.5" /><line stroke="black" stroke-width="0.3" x1="69.00884539600078" x2="69.00884539600078" y1="150.0" y2="157.38776731211647" /><circle cx="69.00884539600078" cy="150.0" fill="green" r="0.5" /><circle cx="70.37020221255636" cy="157.09244530847118" fill="red" r="0.5" /><line stroke="black" stroke-width="0.3" x1="70.37020221255636" x2="70.37020221255636" y1="150.0" y2="157.09244530847118" /><circle cx="70.37020221255636" cy="150.0" fill="green" r="0.5" /><circle cx="71.73155902911193" cy="156.76345264443628" fill="red" r="0.5" /><line stroke="black" stroke-width="0.3" x1="71.73155902911193" x2="71.73155902911193" y1="150.0" y2="156.76345264443628" /><circle cx="71.73155902911193" cy="150.0" fill="green" r="0.5" /><circle cx="73.0929158456675" cy="156.40523864683303" fill="red" r="0.5" /><line stroke="black" stroke-width="0.3" x1="73.0929158456675" x2="73.0929158456675" y1="150.0" y2="156.40523864683303" /><circle cx="73.0929158456675" cy="150.0" fill="green" r="0.5" /><circle cx="74.45427266222309" cy="156.02250675405304" fill="red" r="0.5" /><line stroke="black" stroke-width="0.3" x1="74.45427266222309" x2="74.45427266222309" y1="150.0" y2="156.02250675405304" /><circle cx="74.45427266222309" cy="150.0" fill="green" r="0.5" /><circle cx="75.81562947877866" cy="155.62012739039398" fill="red" r="0.5" /><line stroke="black" stroke-width="0.3" x1="75.81562947877866" x2="75.81562947877866" y1="150.0" y2="155.62012739039398" /><circle cx="75.81562947877866" cy="150.0" fill="green" r="0.5" /><circle cx="77.17698629533425" cy="155.2030569143718" fill="red" r="0.5" /><line stroke="black" stroke-width="0.3" x1="77.17698629533425" x2="77.17698629533425" y1="150.0" y2="155.2030569143718" /><circle cx="77.17698629533425" cy="150.0" fill="green" r="0.5" /><circle cx="78.53834311188982" cy="154.77626423596405" fill="red" r="0.5" /><line stroke="black" stroke-width="0.3" x1="78.53834311188982" x2="78.53834311188982" y1="150.0" y2="154.77626423596405" /><circle cx="78.53834311188982" cy="150.0" fill="green" r="0.5" /><circle cx="79.89969992844539" cy="154.3446659651574" fill="red" r="0.5" /><line stroke="black" stroke-width="0.3" x1="79.89969992844539" x2="79.89969992844539" y1="150.0" y2="154.3446659651574" /><circle cx="79.89969992844539" cy="150.0" fill="green" r="0.5" /><circle cx="81.26105674500097" cy="153.91307033881006" fill="red" r="0.5" /><line stroke="black" stroke-width="0.3" x1="81.26105674500097" x2="81.26105674500097" y1="150.0" y2="153.91307033881006" /><circle cx="81.26105674500097" cy="150.0" fill="green" r="0.5" /><circle cx="82.62241356155656" cy="153.4861296970676" fill="red" r="0.5" /><line stroke="black" stroke-width="0.3" x1="82.62241356155656" x2="82.62241356155656" y1="150.0" y2="153.4861296970676" /><circle cx="82.62241356155656" cy="150.0" fill="green" r="0.5" /><circle cx="83.98377037811213" cy="153.06830094496246" fill="red" r="0.5" /><line stroke="black" stroke-width="0.3" x1="83.98377037811213" x2="83.98377037811213" y1="150.0" y2="153.06830094496246" /><circle cx="83.98377037811213" cy="150.0" fill="green" r="0.5" /><circle cx="85.3451271946677" cy="152.66381322532484" fill="red" r="0.5" /><line stroke="black" stroke-width="0.3" x1="85.3451271946677" x2="85.3451271946677" y1="150.0" y2="152.66381322532484" /><circle cx="85.3451271946677" cy="150.0" fill="green" r="0.5" /><circle cx="86.70648401122328" cy="152.27664192378285" fill="red" r="0.5" /><line stroke="black" stroke-width="0.3" x1="86.70648401122328" x2="86.70648401122328" y1="150.0" y2="152.27664192378285" /><circle cx="86.70648401122328" cy="150.0" fill="green" r="0.5" /><circle cx="88.06784082777885" cy="151.9104881009647" fill="red" r="0.5" /><line stroke="black" stroke-width="0.3" x1="88.06784082777885" x2="88.06784082777885" y1="150.0" y2="151.9104881009647" /><circle cx="88.06784082777885" cy="150.0" fill="green" r="0.5" /><circle cx="89.42919764433444" cy="151.5687624776994" fill="red" r="0.5" /><line stroke="black" stroke-width="0.3" x1="89.42919764433444" x2="89.42919764433444" y1="150.0" y2="151.5687624776994" /><circle cx="89.42919764433444" cy="150.0" fill="green" r="0.5" /><circle cx="90.79055446089001" cy="151.254573165934" fill="red" r="0.5" /><line stroke="black" stroke-width="0.3" x1="90.79055446089001" x2="90.79055446089001" y1="150.0" y2="151.254573165934" /><circle cx="90.79055446089001" cy="150.0" fill="green" r="0.5" /><circle cx="92.15191127744559" cy="150.9707164252284" fill="red" r="0.5" /><line stroke="black" stroke-width="0.3" x1="92.15191127744559" x2="92.15191127744559" y1="150.0" y2="150.9707164252284" /><circle cx="92.15191127744559" cy="150.0" fill="green" r="0.5" /><circle cx="93.51326809400116" cy="150.7196698201597" fill="red" r="0.5" /><line stroke="black" stroke-width="0.3" x1="93.51326809400116" x2="93.51326809400116" y1="150.0" y2="150.7196698201597" /><circle cx="93.51326809400116" cy="150.0" fill="green" r="0.5" /><circle cx="94.87462491055675" cy="150.5035872495691" fill="red" r="0.5" /><line stroke="black" stroke-width="0.3" x1="94.87462491055675" x2="94.87462491055675" y1="150.0" y2="150.5035872495691" /><circle cx="94.87462491055675" cy="150.0" fill="green" r="0.5" /><circle cx="96.23598172711232" cy="150.32429540915342" fill="red" r="0.5" /><line stroke="black" stroke-width="0.3" x1="96.23598172711232" x2="96.23598172711232" y1="150.0" y2="150.32429540915342" /><circle cx="96.23598172711232" cy="150.0" fill="green" r="0.5" /><circle cx="97.5973385436679" cy="150.18329133162976" fill="red" r="0.5" /><line stroke="black" stroke-width="0.3" x1="97.5973385436679" x2="97.5973385436679" y1="150.0" y2="150.18329133162976" /><circle cx="97.5973385436679" cy="150.0" fill="green" r="0.5" /><circle cx="98.95869536022347" cy="150.0817407224958" fill="red" r="0.5" /><line stroke="black" stroke-width="0.3" x1="98.95869536022347" x2="98.95869536022347" y1="150.0" y2="150.0817407224958" /><circle cx="98.95869536022347" cy="150.0" fill="green" r="0.5" /><circle cx="100.32005217677906" cy="150.02047687437673" fill="red" r="0.5" /><line stroke="black" stroke-width="0.3" x1="100.32005217677906" x2="100.32005217677906" y1="150.0" y2="150.02047687437673" /><circle cx="100.32005217677906" cy="150.0" fill="green" r="0.5" /><circle cx="101.68140899333463" cy="150.0" fill="red" r="0.5" /><line stroke="black" stroke-width="0.3" x1="101.68140899333463" x2="101.68140899333463" y1="150.0" y2="150.0" /><circle cx="101.68140899333463" cy="150.0" fill="green" r="0.5" /><circle cx="103.04276580989021" cy="150.02047687437673" fill="red" r="0.5" /><line stroke="black" stroke-width="0.3" x1="103.04276580989021" x2="103.04276580989021" y1="150.0" y2="150.02047687437673" /><circle cx="103.04276580989021" cy="150.0" fill="green" r="0.5" /><circle cx="104.40412262644578" cy="150.0817407224958" fill="red" r="0.5" /><line stroke="black" stroke-width="0.3" x1="104.40412262644578" x2="104.40412262644578" y1="150.0" y2="150.0817407224958" /><circle cx="104.40412262644578" cy="150.0" fill="green" r="0.5" /><circle cx="105.76547944300137" cy="150.18329133162976" fill="red" r="0.5" /><line stroke="black" stroke-width="0.3" x1="105.76547944300137" x2="105.76547944300137" y1="150.0" y2="150.18329133162976" /><circle cx="105.76547944300137" cy="150.0" fill="green" r="0.5" /><circle cx="107.12683625955694" cy="150.32429540915342" fill="red" r="0.5" /><line stroke="black" stroke-width="0.3" x1="107.12683625955694" x2="107.12683625955694" y1="150.0" y2="150.32429540915342" /><circle cx="107.12683625955694" cy="150.0" fill="green" r="0.5" /><circle cx="108.48819307611251" cy="150.5035872495691" fill="red" r="0.5" /><line stroke="black" stroke-width="0.3" x1="108.48819307611251" x2="108.48819307611251" y1="150.0" y2="150.5035872495691" /><circle cx="108.48819307611251" cy="150.0" fill="green" r="0.5" /><circle cx="109.8495498926681" cy="150.7196698201597" fill="red" r="0.5" /><line stroke="black" stroke-width="0.3" x1="109.8495498926681" x2="109.8495498926681" y1="150.0" y2="150.7196698201597" /><circle cx="109.8495498926681" cy="150.0" fill="green" r="0.5" /><circle cx="111.21090670922366" cy="150.9707164252284" fill="red" r="0.5" /><line stroke="black" stroke-width="0.3" x1="111.21090670922366" x2="111.21090670922366" y1="150.0" y2="150.9707164252284" /><circle cx="111.21090670922366" cy="150.0" fill="green" r="0.5" /><circle cx="112.57226352577925" cy="151.254573165934" fill="red" r="0.5" /><line stroke="black" stroke-width="0.3" x1="112.57226352577925" x2="112.57226352577925" y1="150.0" y2="151.254573165934" /><circle cx="112.57226352577925" cy="150.0" fill="green" r="0.5" /><circle cx="113.93362034233482" cy="151.5687624776994" fill="red" r="0.5" /><line stroke="black" stroke-width="0.3" x1="113.93362034233482" x2="113.93362034233482" y1="150.0" y2="151.5687624776994" /><circle cx="113.93362034233482" cy="150.0" fill="green" r="0.5" /><circle cx="115.2949771588904" cy="151.9104881009647" fill="red" r="0.5" /><line stroke="black" stroke-width="0.3" x1="115.2949771588904" x2="115.2949771588904" y1="150.0" y2="151.9104881009647" /><circle cx="115.2949771588904" cy="150.0" fill="green" r="0.5" /><circle cx="116.65633397544597" cy="152.27664192378282" fill="red" r="0.5" /><line stroke="black" stroke-width="0.3" x1="116.65633397544597" x2="116.65633397544597" y1="150.0" y2="152.27664192378282" /><circle cx="116.65633397544597" cy="150.0" fill="green" r="0.5" /><circle cx="118.01769079200156" cy="152.66381322532484" fill="red" r="0.5" /><line stroke="black" stroke-width="0.3" x1="118.01769079200156" x2="118.01769079200156" y1="150.0" y2="152.66381322532484" /><circle cx="118.01769079200156" cy="150.0" fill="green" r="0.5" /><circle cx="119.37904760855713" cy="153.06830094496246" fill="red" r="0.5" /><line stroke="black" stroke-width="0.3" x1="119.37904760855713" x2="119.37904760855713" y1="150.0" y2="153.06830094496246" /><circle cx="119.37904760855713" cy="150.0" fill="green" r="0.5" /><circle cx="120.74040442511271" cy="153.4861296970676" fill="red" r="0.5" /><line stroke="black" stroke-width="0.3" x1="120.74040442511271" x2="120.74040442511271" y1="150.0" y2="153.4861296970676" /><circle cx="120.74040442511271" cy="150.0" fill="green" r="0.5" /><circle cx="122.10176124166829" cy="153.91307033881006" fill="red" r="0.5" /><line stroke="black" stroke-width="0.3" x1="122.10176124166829" x2="122.10176124166829" y1="150.0" y2="153.91307033881006" /><circle cx="122.10176124166829" cy="150.0" fill="green" r="0.5" /><circle cx="123.46311805822387" cy="154.3446659651574" fill="red" r="0.5" /><line stroke="black" stroke-width="0.3" x1="123.46311805822387" x2="123.46311805822387" y1="150.0" y2="154.3446659651574" /><circle cx="123.46311805822387" cy="150.0" fill="green" r="0.5" /><circle cx="124.82447487477944" cy="154.77626423596405" fill="red" r="0.5" /><line stroke="black" stroke-width="0.3" x1="124.82447487477944" x2="124.82447487477944" y1="150.0" y2="154.77626423596405" /><circle cx="124.82447487477944" cy="150.0" fill="green" r="0.5" /><circle cx="126.18583169133503" cy="155.2030569143718" fill="red" r="0.5" /><line stroke="black" stroke-width="0.3" x1="126.18583169133503" x2="126.18583169133503" y1="150.0" y2="155.2030569143718" /><circle cx="126.18583169133503" cy="150.0" fill="green" r="0.5" /><circle cx="127.5471885078906" cy="155.62012739039398" fill="red" r="0.5" /><line stroke="black" stroke-width="0.3" x1="127.5471885078906" x2="127.5471885078906" y1="150.0" y2="155.62012739039398" /><circle cx="127.5471885078906" cy="150.0" fill="green" r="0.5" /><circle cx="128.90854532444618" cy="156.02250675405304" fill="red" r="0.5" /><line stroke="black" stroke-width="0.3" x1="128.90854532444618" x2="128.90854532444618" y1="150.0" y2="156.02250675405304" /><circle cx="128.90854532444618" cy="150.0" fill="green" r="0.5" /><circle cx="130.26990214100175" cy="156.40523864683303" fill="red" r="0.5" /><line stroke="black" stroke-width="0.3" x1="130.26990214100175" x2="130.26990214100175" y1="150.0" y2="156.40523864683303" /><circle cx="130.26990214100175" cy="150.0" fill="green" r="0.5" /><circle cx="131.63125895755732" cy="156.76345264443628" fill="red" r="0.5" /><line stroke="black" stroke-width="0.3" x1="131.63125895755732" x2="131.63125895755732" y1="150.0" y2="156.76345264443628" /><circle cx="131.63125895755732" cy="150.0" fill="green" r="0.5" /><circle cx="132.9926157741129" cy="157.09244530847118" fill="red" r="0.5" /><line stroke="black" stroke-width="0.3" x1="132.9926157741129" x2="132.9926157741129" y1="150.0" y2="157.09244530847118" /><circle cx="132.9926157741129" cy="150.0" fill="green" r="0.5" /><circle cx="134.3539725906685" cy="157.38776731211644" fill="red" r="0.5" /><line stroke="black" stroke-width="0.3" x1="134.3539725906685" x2="134.3539725906685" y1="150.0" y2="157.38776731211644" /><circle cx="134.3539725906685" cy="150.0" fill="green" r="0.5" /><circle cx="135.71532940722406" cy="157.64531424493327" fill="red" r="0.5" /><line stroke="black" stroke-width="0.3" x1="135.71532940722406" x2="135.71532940722406" y1="150.0" y2="157.64531424493327" /><circle cx="135.71532940722406" cy="150.0" fill="green" r="0.5" /><circle cx="137.07668622377963" cy="157.86141791423304" fill="red" r="0.5" /><line stroke="black" stroke-width="0.3" x1="137.07668622377963" x2="137.07668622377963" y1="150.0" y2="157.86141791423304" /><circle cx="137.07668622377963" cy="150.0" fill="green" r="0.5" /><circle cx="138.43804304033523" cy="158.03293428912482" fill="red" r="0.5" /><line stroke="black" stroke-width="0.3" x1="138.43804304033523" x2="138.43804304033523" y1="150.0" y2="158.03293428912482" /><circle cx="138.43804304033523" cy="150.0" fill="green" r="0.5" /><circle cx="139.79939985689077" cy="158.15732379528367" fill="red" r="0.5" /><line stroke="black" stroke-width="0.3" x1="139.79939985689077" x2="139.79939985689077" y1="150.0" y2="158.15732379528367" /><circle cx="139.79939985689077" cy="150.0" fill="green" r="0.5" /><circle cx="141.16075667344637" cy="158.23271957226655" fill="red" r="0.5" /><line stroke="black" stroke-width="0.3" x1="141.16075667344637" x2="141.16075667344637" y1="150.0" y2="158.23271957226655" /><circle cx="141.16075667344637" cy="150.0" fill="green" r="0.5" /><circle cx="142.52211349000194" cy="158.25797962658783" fill="red" r="0.5" /><line stroke="black" stroke-width="0.3" x1="142.52211349000194" x2="142.52211349000194" y1="150.0" y2="158.25797962658783" /><circle cx="142.52211349000194" cy="150.0" fill="green" r="0.5" /><circle cx="143.8834703065575" cy="158.23271957226655" fill="red" r="0.5" /><line stroke="black" stroke-width="0.3" x1="143.8834703065575" x2="143.8834703065575" y1="150.0" y2="158.23271957226655" /><circle cx="143.8834703065575" cy="150.0" fill="green" r="0.5" /><circle cx="145.2448271231131" cy="158.15732379528367" fill="red" r="0.5" /><line stroke="black" stroke-width="0.3" x1="145.2448271231131" x2="145.2448271231131" y1="150.0" y2="158.15732379528367" /><circle cx="145.2448271231131" cy="150.0" fill="green" r="0.5" /><circle cx="146.60618393966868" cy="158.03293428912482" fill="red" r="0.5" /><line stroke="black" stroke-width="0.3" x1="146.60618393966868" x2="146.60618393966868" y1="150.0" y2="158.03293428912482" /><circle cx="146.60618393966868" cy="150.0" fill="green" r="0.5" /><circle cx="147.96754075622425" cy="157.86141791423304" fill="red" r="0.5" /><line stroke="black" stroke-width="0.3" x1="147.96754075622425" x2="147.96754075622425" y1="150.0" y2="157.86141791423304" /><circle cx="147.96754075622425" cy="150.0" fill="green" r="0.5" /><circle cx="149.32889757277982" cy="157.64531424493327" fill="red" r="0.5" /><line stroke="black" stroke-width="0.3" x1="149.32889757277982" x2="149.32889757277982" y1="150.0" y2="157.64531424493327" /><circle cx="149.32889757277982" cy="150.0" fill="green" r="0.5" /><circle cx="150.6902543893354" cy="157.38776731211647" fill="red" r="0.5" /><line stroke="black" stroke-width="0.3" x1="150.6902543893354" x2="150.6902543893354" y1="150.0" y2="157.38776731211647" /><circle cx="150.6902543893354" cy="150.0" fill="green" r="0.5" /><circle cx="152.051611205891" cy="157.09244530847118" fill="red" r="0.5" /><line stroke="black" stroke-width="0.3" x1="152.051611205891" x2="152.051611205891" y1="150.0" y2="157.09244530847118" /><circle cx="152.051611205891" cy="150.0" fill="green" r="0.5" /><circle cx="153.41296802244656" cy="156.76345264443628" fill="red" r="0.5" /><line stroke="black" stroke-width="0.3" x1="153.41296802244656" x2="153.41296802244656" y1="150.0" y2="156.76345264443628" /><circle cx="153.41296802244656" cy="150.0" fill="green" r="0.5" /><circle cx="154.77432483900213" cy="156.40523864683303" fill="red" r="0.5" /><line stroke="black" stroke-width="0.3" x1="154.77432483900213" x2="154.77432483900213" y1="150.0" y2="156.40523864683303" /><circle cx="154.77432483900213" cy="150.0" fill="green" r="0.5" /><circle cx="156.1356816555577" cy="156.02250675405304" fill="red" r="0.5" /><line stroke="black" stroke-width="0.3" x1="156.1356816555577" x2="156.1356816555577" y1="150.0" y2="156.02250675405304" /><circle cx="156.1356816555577" cy="150.0" fill="green" r="0.5" /><circle cx="157.4970384721133" cy="155.62012739039398" fill="red" r="0.5" /><line stroke="black" stroke-width="0.3" x1="157.4970384721133" x2="157.4970384721133" y1="150.0" y2="155.62012739039398" /><circle cx="157.4970384721133" cy="150.0" fill="green" r="0.5" /><circle cx="158.85839528866887" cy="155.2030569143718" fill="red" r="0.5" /><line stroke="black" stroke-width="0.3" x1="158.85839528866887" x2="158.85839528866887" y1="150.0" y2="155.2030569143718" /><circle cx="158.85839528866887" cy="150.0" fill="green" r="0.5" /><circle cx="160.21975210522444" cy="154.77626423596405" fill="red" r="0.5" /><line stroke="black" stroke-width="0.3" x1="160.21975210522444" x2="160.21975210522444" y1="150.0" y2="154.77626423596405" /><circle cx="160.21975210522444" cy="150.0" fill="green" r="0.5" /><circle cx="161.58110892178001" cy="154.3446659651574" fill="red" r="0.5" /><line stroke="black" stroke-width="0.3" x1="161.58110892178001" x2="161.58110892178001" y1="150.0" y2="154.3446659651574" /><circle cx="161.58110892178001" cy="150.0" fill="green" r="0.5" /><circle cx="162.9424657383356" cy="153.91307033881006" fill="red" r="0.5" /><line stroke="black" stroke-width="0.3" x1="162.9424657383356" x2="162.9424657383356" y1="150.0" y2="153.91307033881006" /><circle cx="162.9424657383356" cy="150.0" fill="green" r="0.5" /><circle cx="164.30382255489118" cy="153.4861296970676" fill="red" r="0.5" /><line stroke="black" stroke-width="0.3" x1="164.30382255489118" x2="164.30382255489118" y1="150.0" y2="153.4861296970676" /><circle cx="164.30382255489118" cy="150.0" fill="green" r="0.5" /><circle cx="165.66517937144675" cy="153.06830094496246" fill="red" r="0.5" /><line stroke="black" stroke-width="0.3" x1="165.66517937144675" x2="165.66517937144675" y1="150.0" y2="153.06830094496246" /><circle cx="165.66517937144675" cy="150.0" fill="green" r="0.5" /><circle cx="167.02653618800232" cy="152.66381322532484" fill="red" r="0.5" /><line stroke="black" stroke-width="0.3" x1="167.02653618800232" x2="167.02653618800232" y1="150.0" y2="152.66381322532484" /><circle cx="167.02653618800232" cy="150.0" fill="green" r="0.5" /><circle cx="168.38789300455792" cy="152.27664192378282" fill="red" r="0.5" /><line stroke="black" stroke-width="0.3" x1="168.38789300455792" x2="168.38789300455792" y1="150.0" y2="152.27664192378282" /><circle cx="168.38789300455792" cy="150.0" fill="green" r="0.5" /><circle cx="169.7492498211135" cy="151.9104881009647" fill="red" r="0.5" /><line stroke="black" stroke-width="0.3" x1="169.7492498211135" x2="169.7492498211135" y1="150.0" y2="151.9104881009647" /><circle cx="169.7492498211135" cy="150.0" fill="green" r="0.5" /><circle cx="171.11060663766906" cy="151.5687624776994" fill="red" r="0.5" /><line stroke="black" stroke-width="0.3" x1="171.11060663766906" x2="171.11060663766906" y1="150.0" y2="151.5687624776994" /><circle cx="171.11060663766906" cy="150.0" fill="green" r="0.5" /><circle cx="172.47196345422464" cy="151.254573165934" fill="red" r="0.5" /><line stroke="black" stroke-width="0.3" x1="172.47196345422464" x2="172.47196345422464" y1="150.0" y2="151.254573165934" /><circle cx="172.47196345422464" cy="150.0" fill="green" r="0.5" /><circle cx="173.8333202707802" cy="150.9707164252284" fill="red" r="0.5" /><line stroke="black" stroke-width="0.3" x1="173.8333202707802" x2="173.8333202707802" y1="150.0" y2="150.9707164252284" /><circle cx="173.8333202707802" cy="150.0" fill="green" r="0.5" /><circle cx="175.1946770873358" cy="150.7196698201597" fill="red" r="0.5" /><line stroke="black" stroke-width="0.3" x1="175.1946770873358" x2="175.1946770873358" y1="150.0" y2="150.7196698201597" /><circle cx="175.1946770873358" cy="150.0" fill="green" r="0.5" /><circle cx="176.55603390389138" cy="150.5035872495691" fill="red" r="0.5" /><line stroke="black" stroke-width="0.3" x1="176.55603390389138" x2="176.55603390389138" y1="150.0" y2="150.5035872495691" /><circle cx="176.55603390389138" cy="150.0" fill="green" r="0.5" /><circle cx="177.91739072044695" cy="150.32429540915342" fill="red" r="0.5" /><line stroke="black" stroke-width="0.3" x1="177.91739072044695" x2="177.91739072044695" y1="150.0" y2="150.32429540915342" /><circle cx="177.91739072044695" cy="150.0" fill="green" r="0.5" /><circle cx="179.27874753700252" cy="150.18329133162976" fill="red" r="0.5" /><line stroke="black" stroke-width="0.3" x1="179.27874753700252" x2="179.27874753700252" y1="150.0" y2="150.18329133162976" /><circle cx="179.27874753700252" cy="150.0" fill="green" r="0.5" /><circle cx="180.64010435355812" cy="150.0817407224958" fill="red" r="0.5" /><line stroke="black" stroke-width="0.3" x1="180.64010435355812" x2="180.64010435355812" y1="150.0" y2="150.0817407224958" /><circle cx="180.64010435355812" cy="150.0" fill="green" r="0.5" /><circle cx="182.00146117011369" cy="150.02047687437673" fill="red" r="0.5" /><line stroke="black" stroke-width="0.3" x1="182.00146117011369" x2="182.00146117011369" y1="150.0" y2="150.02047687437673" /><circle cx="182.00146117011369" cy="150.0" fill="green" r="0.5" /><circle cx="183.36281798666926" cy="150.0" fill="red" r="0.5" /><line stroke="black" stroke-width="0.3" x1="183.36281798666926" x2="183.36281798666926" y1="150.0" y2="150.0" /><circle cx="183.36281798666926" cy="150.0" fill="green" r="0.5" /><polyline fill="none" points="20.0,150.0 21.361356816555578,150.02047687437673 22.722713633111155,150.0817407224958 24.084070449666733,150.18329133162976 25.44542726622231,150.32429540915342 26.806784082777888,150.5035872495691 28.168140899333462,150.7196698201597 29.52949771588904,150.9707164252284 30.890854532444617,151.254573165934 32.25221134900019,151.5687624776994 33.613568165555776,151.9104881009647 34.97492498211135,152.27664192378282 36.336281798666924,152.66381322532484 37.6976386152225,153.06830094496246 39.05899543177808,153.4861296970676 40.42035224833366,153.91307033881006 41.781709064889235,154.3446659651574 43.14306588144481,154.77626423596405 44.50442269800039,155.2030569143718 45.86577951455597,155.62012739039398 47.227136331111545,156.02250675405304 48.58849314766712,156.40523864683303 49.94984996422269,156.76345264443628 51.31120678077828,157.09244530847118 52.67256359733385,157.38776731211644 54.033920413889426,157.64531424493327 55.395277230445004,157.86141791423304 56.75663404700058,158.03293428912482 58.11799086355616,158.15732379528367 59.47934768011174,158.23271957226655 60.840704496667314,158.25797962658783 62.20206131322289,158.23271957226655 63.56341812977847,158.15732379528367 64.92477494633405,158.03293428912482 66.28613176288962,157.86141791423304 67.6474885794452,157.64531424493327 69.00884539600078,157.38776731211647 70.37020221255636,157.09244530847118 71.73155902911193,156.76345264443628 73.0929158456675,156.40523864683303 74.45427266222309,156.02250675405304 75.81562947877866,155.62012739039398 77.17698629533425,155.2030569143718 78.53834311188982,154.77626423596405 79.89969992844539,154.3446659651574 81.26105674500097,153.91307033881006 82.62241356155656,153.4861296970676 83.98377037811213,153.06830094496246 85.3451271946677,152.66381322532484 86.70648401122328,152.27664192378285 88.06784082777885,151.9104881009647 89.42919764433444,151.5687624776994 90.79055446089001,151.254573165934 92.15191127744559,150.9707164252284 93.51326809400116,150.7196698201597 94.87462491055675,150.5035872495691 96.23598172711232,150.32429540915342 97.5973385436679,150.18329133162976 98.95869536022347,150.0817407224958 100.32005217677906,150.02047687437673 101.68140899333463,150.0 103.04276580989021,150.02047687437673 104.40412262644578,150.0817407224958 105.76547944300137,150.18329133162976 107.12683625955694,150.32429540915342 108.48819307611251,150.5035872495691 109.8495498926681,150.7196698201597 111.21090670922366,150.9707164252284 112.57226352577925,151.254573165934 113.93362034233482,151.5687624776994 115.2949771588904,151.9104881009647 116.65633397544597,152.27664192378282 118.01769079200156,152.66381322532484 119.37904760855713,153.06830094496246 120.74040442511271,153.4861296970676 122.10176124166829,153.91307033881006 123.46311805822387,154.3446659651574 124.82447487477944,154.77626423596405 126.18583169133503,155.2030569143718 127.5471885078906,155.62012739039398 128.90854532444618,156.02250675405304 130.26990214100175,156.40523864683303 131.63125895755732,156.76345264443628 132.9926157741129,157.09244530847118 134.3539725906685,157.38776731211644 135.71532940722406,157.64531424493327 137.07668622377963,157.86141791423304 138.43804304033523,158.03293428912482 139.79939985689077,158.15732379528367 141.16075667344637,158.23271957226655 142.52211349000194,158.25797962658783 143.8834703065575,158.23271957226655 145.2448271231131,158.15732379528367 146.60618393966868,158.03293428912482 147.96754075622425,157.86141791423304 149.32889757277982,157.64531424493327 150.6902543893354,157.38776731211647 152.051611205891,157.09244530847118 153.41296802244656,156.76345264443628 154.77432483900213,156.40523864683303 156.1356816555577,156.02250675405304 157.4970384721133,155.62012739039398 158.85839528866887,155.2030569143718 160.21975210522444,154.77626423596405 161.58110892178001,154.3446659651574 162.9424657383356,153.91307033881006 164.30382255489118,153.4861296970676 165.66517937144675,153.06830094496246 167.02653618800232,152.66381322532484 168.38789300455792,152.27664192378282 169.7492498211135,151.9104881009647 171.11060663766906,151.5687624776994 172.47196345422464,151.254573165934 173.8333202707802,150.9707164252284 175.1946770873358,150.7196698201597 176.55603390389138,150.5035872495691 177.91739072044695,150.32429540915342 179.27874753700252,150.18329133162976 180.64010435355812,150.0817407224958 182.00146117011369,150.02047687437673 183.36281798666926,150.0" stroke="blue" stroke-width="0.3" /></svg>