  0
SECTION
  2
HEADER
  9
$ACADVER
  1
AC1024
  9
$ACADMAINTVER
 70
6
  9
$DWGCODEPAGE
  3
ANSI_1252
  9
$LASTSAVEDBY
  1
ezdxf
  9
$INSBASE
 10
0.0
 20
0.0
 30
0.0
  9
$EXTMIN
 10
1e+20
 20
1e+20
 30
1e+20
  9
$EXTMAX
 10
-1e+20
 20
-1e+20
 30
-1e+20
  9
$LIMMIN
 10
0.0
 20
0.0
  9
$LIMMAX
 10
420.0
 20
297.0
  9
$ORTHOMODE
 70
0
  9
$REGENMODE
 70
1
  9
$FILLMODE
 70
1
  9
$QTEXTMODE
 70
0
  9
$MIRRTEXT
 70
1
  9
$LTSCALE
 40
1.0
  9
$ATTMODE
 70
1
  9
$TEXTSIZE
 40
2.5
  9
$TRACEWID
 40
1.0
  9
$TEXTSTYLE
  7
Standard
  9
$CLAYER
  8
0
  9
$CELTYPE
  6
ByLayer
  9
$CECOLOR
 62
256
  9
$CELTSCALE
 40
1.0
  9
$DISPSILH
 70
0
  9
$DIMSCALE
 40
1.0
  9
$DIMASZ
 40
2.5
  9
$DIMEXO
 40
0.625
  9
$DIMDLI
 40
3.75
  9
$DIMRND
 40
0.0
  9
$DIMDLE
 40
0.0
  9
$DIMEXE
 40
1.25
  9
$DIMTP
 40
0.0
  9
$DIMTM
 40
0.0
  9
$DIMTXT
 40
2.5
  9
$DIMCEN
 40
2.5
  9
$DIMTSZ
 40
0.0
  9
$DIMTOL
 70
0
  9
$DIMLIM
 70
0
  9
$DIMTIH
 70
0
  9
$DIMTOH
 70
0
  9
$DIMSE1
 70
0
  9
$DIMSE2
 70
0
  9
$DIMTAD
 70
1
  9
$DIMZIN
 70
8
  9
$DIMBLK
  1

  9
$DIMASO
 70
1
  9
$DIMSHO
 70
1
  9
$DIMPOST
  1

  9
$DIMAPOST
  1

  9
$DIMALT
 70
0
  9
$DIMALTD
 70
3
  9
$DIMALTF
 40
0.03937007874
  9
$DIMLFAC
 40
1.0
  9
$DIMTOFL
 70
1
  9
$DIMTVP
 40
0.0
  9
$DIMTIX
 70
0
  9
$DIMSOXD
 70
0
  9
$DIMSAH
 70
0
  9
$DIMBLK1
  1

  9
$DIMBLK2
  1

  9
$DIMSTYLE
  2
ISO-25
  9
$DIMCLRD
 70
0
  9
$DIMCLRE
 70
0
  9
$DIMCLRT
 70
0
  9
$DIMTFAC
 40
1.0
  9
$DIMGAP
 40
0.625
  9
$DIMJUST
 70
0
  9
$DIMSD1
 70
0
  9
$DIMSD2
 70
0
  9
$DIMTOLJ
 70
0
  9
$DIMTZIN
 70
8
  9
$DIMALTZ
 70
0
  9
$DIMALTTZ
 70
0
  9
$DIMUPT
 70
0
  9
$DIMDEC
 70
2
  9
$DIMTDEC
 70
2
  9
$DIMALTU
 70
2
  9
$DIMALTTD
 70
3
  9
$DIMTXSTY
  7
Standard
  9
$DIMAUNIT
 70
0
  9
$DIMADEC
 70
0
  9
$DIMALTRND
 40
0.0
  9
$DIMAZIN
 70
0
  9
$DIMDSEP
 70
44
  9
$DIMATFIT
 70
3
  9
$DIMFRAC
 70
0
  9
$DIMLDRBLK
  1

  9
$DIMLUNIT
 70
2
  9
$DIMLWD
 70
-2
  9
$DIMLWE
 70
-2
  9
$DIMTMOVE
 70
0
  9
$DIMFXL
 40
1.0
  9
$DIMFXLON
 70
0
  9
$DIMJOGANG
 40
0.785398163397
  9
$DIMTFILL
 70
0
  9
$DIMTFILLCLR
 70
0
  9
$DIMARCSYM
 70
0
  9
$DIMLTYPE
  6

  9
$DIMLTEX1
  6

  9
$DIMLTEX2
  6

  9
$DIMTXTDIRECTION
 70
0
  9
$LUNITS
 70
2
  9
$LUPREC
 70
4
  9
$SKETCHINC
 40
1.0
  9
$FILLETRAD
 40
10.0
  9
$AUNITS
 70
0
  9
$AUPREC
 70
2
  9
$MENU
  1
.
  9
$ELEVATION
 40
0.0
  9
$PELEVATION
 40
0.0
  9
$THICKNESS
 40
0.0
  9
$LIMCHECK
 70
0
  9
$CHAMFERA
 40
0.0
  9
$CHAMFERB
 40
0.0
  9
$CHAMFERC
 40
0.0
  9
$CHAMFERD
 40
0.0
  9
$SKPOLY
 70
0
  9
$TDCREATE
 40
2460844.767905093
  9
$TDUCREATE
 40
2458532.153996898
  9
$TDUPDATE
 40
2460844.767905093
  9
$TDUUPDATE
 40
2458532.1544311
  9
$TDINDWG
 40
0.0
  9
$TDUSRTIMER
 40
0.0
  9
$USRTIMER
 70
1
  9
$ANGBASE
 50
0.0
  9
$ANGDIR
 70
0
  9
$PDMODE
 70
0
  9
$PDSIZE
 40
0.0
  9
$PLINEWID
 40
0.0
  9
$SPLFRAME
 70
0
  9
$SPLINETYPE
 70
6
  9
$SPLINESEGS
 70
8
  9
$HANDSEED
  5
16D
  9
$SURFTAB1
 70
6
  9
$SURFTAB2
 70
6
  9
$SURFTYPE
 70
6
  9
$SURFU
 70
6
  9
$SURFV
 70
6
  9
$UCSBASE
  2

  9
$UCSNAME
  2

  9
$UCSORG
 10
0.0
 20
0.0
 30
0.0
  9
$UCSXDIR
 10
1.0
 20
0.0
 30
0.0
  9
$UCSYDIR
 10
0.0
 20
1.0
 30
0.0
  9
$UCSORTHOREF
  2

  9
$UCSORTHOVIEW
 70
0
  9
$UCSORGTOP
 10
0.0
 20
0.0
 30
0.0
  9
$UCSORGBOTTOM
 10
0.0
 20
0.0
 30
0.0
  9
$UCSORGLEFT
 10
0.0
 20
0.0
 30
0.0
  9
$UCSORGRIGHT
 10
0.0
 20
0.0
 30
0.0
  9
$UCSORGFRONT
 10
0.0
 20
0.0
 30
0.0
  9
$UCSORGBACK
 10
0.0
 20
0.0
 30
0.0
  9
$PUCSBASE
  2

  9
$PUCSNAME
  2

  9
$PUCSORG
 10
0.0
 20
0.0
 30
0.0
  9
$PUCSXDIR
 10
1.0
 20
0.0
 30
0.0
  9
$PUCSYDIR
 10
0.0
 20
1.0
 30
0.0
  9
$PUCSORTHOREF
  2

  9
$PUCSORTHOVIEW
 70
0
  9
$PUCSORGTOP
 10
0.0
 20
0.0
 30
0.0
  9
$PUCSORGBOTTOM
 10
0.0
 20
0.0
 30
0.0
  9
$PUCSORGLEFT
 10
0.0
 20
0.0
 30
0.0
  9
$PUCSORGRIGHT
 10
0.0
 20
0.0
 30
0.0
  9
$PUCSORGFRONT
 10
0.0
 20
0.0
 30
0.0
  9
$PUCSORGBACK
 10
0.0
 20
0.0
 30
0.0
  9
$USERI1
 70
0
  9
$USERI2
 70
0
  9
$USERI3
 70
0
  9
$USERI4
 70
0
  9
$USERI5
 70
0
  9
$USERR1
 40
0.0
  9
$USERR2
 40
0.0
  9
$USERR3
 40
0.0
  9
$USERR4
 40
0.0
  9
$USERR5
 40
0.0
  9
$WORLDVIEW
 70
1
  9
$SHADEDGE
 70
3
  9
$SHADEDIF
 70
70
  9
$TILEMODE
 70
1
  9
$MAXACTVP
 70
64
  9
$PINSBASE
 10
0.0
 20
0.0
 30
0.0
  9
$PLIMCHECK
 70
0
  9
$PEXTMIN
 10
1e+20
 20
1e+20
 30
1e+20
  9
$PEXTMAX
 10
-1e+20
 20
-1e+20
 30
-1e+20
  9
$PLIMMIN
 10
0.0
 20
0.0
  9
$PLIMMAX
 10
420.0
 20
297.0
  9
$UNITMODE
 70
0
  9
$VISRETAIN
 70
1
  9
$PLINEGEN
 70
0
  9
$PSLTSCALE
 70
1
  9
$TREEDEPTH
 70
3020
  9
$CMLSTYLE
  2
Standard
  9
$CMLJUST
 70
0
  9
$CMLSCALE
 40
20.0
  9
$PROXYGRAPHICS
 70
1
  9
$MEASUREMENT
 70
1
  9
$CELWEIGHT
370
-1
  9
$ENDCAPS
280
0
  9
$JOINSTYLE
280
0
  9
$LWDISPLAY
290
0
  9
$INSUNITS
 70
4
  9
$HYPERLINKBASE
  1

  9
$STYLESHEET
  1

  9
$XEDIT
290
1
  9
$CEPSNTYPE
380
0
  9
$PSTYLEMODE
290
1
  9
$FINGERPRINTGUID
  2
{F6334FEC-7B27-4C33-BA1B-DD686BE1D218}
  9
$VERSIONGUID
  2
{6E162782-D1CD-4BC5-825C-596B70AF56B0}
  9
$EXTNAMES
290
1
  9
$PSVPSCALE
 40
0.0
  9
$OLESTARTUP
290
0
  9
$SORTENTS
280
127
  9
$INDEXCTL
280
0
  9
$HIDETEXT
280
1
  9
$XCLIPFRAME
280
1
  9
$HALOGAP
280
0
  9
$OBSCOLOR
 70
257
  9
$OBSLTYPE
280
0
  9
$INTERSECTIONDISPLAY
280
0
  9
$INTERSECTIONCOLOR
 70
257
  9
$DIMASSOC
280
2
  9
$PROJECTNAME
  1

  9
$CAMERADISPLAY
290
0
  9
$LENSLENGTH
 40
50.0
  9
$CAMERAHEIGHT
 40
0.0
  9
$STEPSPERSEC
 40
24.0
  9
$STEPSIZE
 40
100.0
  9
$3DDWFPREC
 40
2.0
  9
$PSOLWIDTH
 40
0.005
  9
$PSOLHEIGHT
 40
0.08
  9
$LOFTANG1
 40
1.570796326795
  9
$LOFTANG2
 40
1.570796326795
  9
$LOFTMAG1
 40
0.0
  9
$LOFTMAG2
 40
0.0
  9
$LOFTPARAM
 70
7
  9
$LOFTNORMALS
280
1
  9
$LATITUDE
 40
37.795
  9
$LONGITUDE
 40
-122.394
  9
$NORTHDIRECTION
 40
0.0
  9
$TIMEZONE
 70
-8000
  9
$LIGHTGLYPHDISPLAY
280
1
  9
$TILEMODELIGHTSYNCH
280
1
  9
$CMATERIAL
347
20
  9
$SOLIDHIST
280
0
  9
$SHOWHIST
280
1
  9
$DWFFRAME
280
2
  9
$DGNFRAME
280
2
  9
$REALWORLDSCALE
290
1
  9
$INTERFERECOLOR
 62
256
  9
$CSHADOW
280
0
  9
$SHADOWPLANELOCATION
 40
0.0
  0
ENDSEC
  0
SECTION
  2
CLASSES
  0
CLASS
  1
ACDBDICTIONARYWDFLT
  2
AcDbDictionaryWithDefault
  3
ObjectDBX Classes
 90
0
 91
0
280
0
281
0
  0
CLASS
  1
SUN
  2
AcDbSun
  3
SCENEOE
 90
1153
 91
0
280
0
281
0
  0
CLASS
  1
VISUALSTYLE
  2
AcDbVisualStyle
  3
ObjectDBX Classes
 90
4095
 91
0
280
0
281
0
  0
CLASS
  1
MATERIAL
  2
AcDbMaterial
  3
ObjectDBX Classes
 90
1153
 91
0
280
0
281
0
  0
CLASS
  1
SCALE
  2
AcDbScale
  3
ObjectDBX Classes
 90
1153
 91
0
280
0
281
0
  0
CLASS
  1
TABLESTYLE
  2
AcDbTableStyle
  3
ObjectDBX Classes
 90
4095
 91
0
280
0
281
0
  0
CLASS
  1
MLEADERSTYLE
  2
AcDbMLeaderStyle
  3
ACDB_MLEADERSTYLE_CLASS
 90
4095
 91
0
280
0
281
0
  0
CLASS
  1
DICTIONARYVAR
  2
AcDbDictionaryVar
  3
ObjectDBX Classes
 90
0
 91
0
280
0
281
0
  0
CLASS
  1
CELLSTYLEMAP
  2
AcDbCellStyleMap
  3
ObjectDBX Classes
 90
1152
 91
0
280
0
281
0
  0
CLASS
  1
MENTALRAYRENDERSETTINGS
  2
AcDbMentalRayRenderSettings
  3
SCENEOE
 90
1024
 91
0
280
0
281
0
  0
CLASS
  1
ACDBDETAILVIEWSTYLE
  2
AcDbDetailViewStyle
  3
ObjectDBX Classes
 90
1025
 91
0
280
0
281
0
  0
CLASS
  1
ACDBSECTIONVIEWSTYLE
  2
AcDbSectionViewStyle
  3
ObjectDBX Classes
 90
1025
 91
0
280
0
281
0
  0
CLASS
  1
RASTERVARIABLES
  2
AcDbRasterVariables
  3
ISM
 90
0
 91
0
280
0
281
0
  0
CLASS
  1
LAYOUT
  2
AcDbLayout
  3
ObjectDBX Classes
 90
0
 91
0
280
0
281
0
  0
CLASS
  1
ACDBPLACEHOLDER
  2
AcDbPlaceHolder
  3
ObjectDBX Classes
 90
0
 91
0
280
0
281
0
  0
ENDSEC
  0
SECTION
  2
TABLES
  0
TABLE
  2
VPORT
  5
8
330
0
100
AcDbSymbolTable
 70
1
  0
VPORT
  5
23
330
8
100
AcDbSymbolTableRecord
100
AcDbViewportTableRecord
  2
*Active
 70
0
 10
0.0
 20
0.0
 11
1.0
 21
1.0
 12
0.0
 22
0.0
 13
0.0
 23
0.0
 14
0.5
 24
0.5
 15
0.5
 25
0.5
 16
0.0
 26
0.0
 36
1.0
 17
0.0
 27
0.0
 37
0.0
 40
1000.0
 41
1.34
 42
50.0
 43
0.0
 44
0.0
 50
0.0
 51
0.0
 71
0
 72
1000
 73
1
 74
3
 75
0
 76
0
 77
0
 78
0
281
0
 65
0
146
0.0
  0
ENDTAB
  0
TABLE
  2
LTYPE
  5
2
330
0
100
AcDbSymbolTable
 70
3
  0
LTYPE
  5
24
330
2
100
AcDbSymbolTableRecord
100
AcDbLinetypeTableRecord
  2
ByBlock
 70
0
  3

 72
65
 73
0
 40
0.0
  0
LTYPE
  5
25
330
2
100
AcDbSymbolTableRecord
100
AcDbLinetypeTableRecord
  2
ByLayer
 70
0
  3

 72
65
 73
0
 40
0.0
  0
LTYPE
  5
26
330
2
100
AcDbSymbolTableRecord
100
AcDbLinetypeTableRecord
  2
Continuous
 70
0
  3

 72
65
 73
0
 40
0.0
  0
ENDTAB
  0
TABLE
  2
LAYER
  5
1
330
0
100
AcDbSymbolTable
 70
2
  0
LAYER
  5
27
330
1
100
AcDbSymbolTableRecord
100
AcDbLayerTableRecord
  2
0
 70
0
 62
7
  6
Continuous
370
-3
390
13
347
21
  0
LAYER
  5
28
330
1
100
AcDbSymbolTableRecord
100
AcDbLayerTableRecord
  2
Defpoints
 70
0
 62
7
  6
Continuous
290
0
370
-3
390
13
347
21
  0
ENDTAB
  0
TABLE
  2
STYLE
  5
5
330
0
100
AcDbSymbolTable
 70
1
  0
STYLE
  5
29
330
5
100
AcDbSymbolTableRecord
100
AcDbTextStyleTableRecord
  2
Standard
 70
0
 40
0.0
 41
1.0
 50
0.0
 71
0
 42
2.5
  3
txt
  4

  0
ENDTAB
  0
TABLE
  2
VIEW
  5
7
330
0
100
AcDbSymbolTable
 70
0
  0
ENDTAB
  0
TABLE
  2
UCS
  5
6
330
0
100
AcDbSymbolTable
 70
0
  0
ENDTAB
  0
TABLE
  2
APPID
  5
3
330
0
100
AcDbSymbolTable
 70
3
  0
APPID
  5
2A
330
3
100
AcDbSymbolTableRecord
100
AcDbRegAppTableRecord
  2
ACAD
 70
0
  0
APPID
  5
16A
330
3
100
AcDbSymbolTableRecord
100
AcDbRegAppTableRecord
  2
HATCHBACKGROUNDCOLOR
 70
0
  0
APPID
  5
16B
330
3
100
AcDbSymbolTableRecord
100
AcDbRegAppTableRecord
  2
EZDXF
 70
0
  0
ENDTAB
  0
TABLE
  2
DIMSTYLE
  5
4
330
0
100
AcDbSymbolTable
 70
1
100
AcDbDimStyleTable
  0
DIMSTYLE
105
2B
330
4
100
AcDbSymbolTableRecord
100
AcDbDimStyleTableRecord
  2
Standard
 70
0
 40
1.0
 41
2.5
 42
0.625
 43
3.75
 44
1.25
 45
0.0
 46
0.0
 47
0.0
 48
0.0
 49
2.5
140
2.5
141
2.5
142
0.0
143
0.03937007874
144
1.0
145
0.0
146
1.0
147
0.625
148
0.0
 69
0
 70
0
 71
0
 72
0
 73
0
 74
0
 75
0
 76
0
 77
1
 78
8
 79
3
170
0
171
3
172
1
173
0
174
0
175
0
176
0
177
0
178
0
179
2
271
2
272
2
273
2
274
3
275
0
276
0
277
2
278
44
279
0
280
0
281
0
282
0
283
0
284
8
285
0
286
0
288
0
289
3
290
0
371
-2
372
-2
  0
ENDTAB
  0
TABLE
  2
BLOCK_RECORD
  5
9
330
0
100
AcDbSymbolTable
 70
7
  0
BLOCK_RECORD
  5
17
330
9
100
AcDbSymbolTableRecord
100
AcDbBlockTableRecord
  2
*Model_Space
340
1A
 70
0
280
1
281
0
  0
BLOCK_RECORD
  5
1B
330
9
100
AcDbSymbolTableRecord
100
AcDbBlockTableRecord
  2
*Paper_Space
340
1E
 70
0
280
1
281
0
  0
BLOCK_RECORD
  5
129
330
9
100
AcDbSymbolTableRecord
100
AcDbBlockTableRecord
  2
*D1
340
0
 70
0
280
1
281
0
  0
BLOCK_RECORD
  5
12E
330
9
100
AcDbSymbolTableRecord
100
AcDbBlockTableRecord
  2
_CLOSEDFILLED
340
0
 70
0
280
1
281
0
  0
BLOCK_RECORD
  5
13D
330
9
100
AcDbSymbolTableRecord
100
AcDbBlockTableRecord
  2
*D2
340
0
 70
0
280
1
281
0
  0
BLOCK_RECORD
  5
14C
330
9
100
AcDbSymbolTableRecord
100
AcDbBlockTableRecord
  2
*D3
340
0
 70
0
280
1
281
0
  0
BLOCK_RECORD
  5
15B
330
9
100
AcDbSymbolTableRecord
100
AcDbBlockTableRecord
  2
*D4
340
0
 70
0
280
1
281
0
  0
ENDTAB
  0
ENDSEC
  0
SECTION
  2
BLOCKS
  0
BLOCK
  5
18
330
17
100
AcDbEntity
  8
0
100
AcDbBlockBegin
  2
*Model_Space
 70
0
 10
0.0
 20
0.0
 30
0.0
  3
*Model_Space
  1

  0
ENDBLK
  5
19
330
17
100
AcDbEntity
  8
0
100
AcDbBlockEnd
  0
BLOCK
  5
1C
330
1B
100
AcDbEntity
  8
0
100
AcDbBlockBegin
  2
*Paper_Space
 70
0
 10
0.0
 20
0.0
 30
0.0
  3
*Paper_Space
  1

  0
ENDBLK
  5
1D
330
1B
100
AcDbEntity
  8
0
100
AcDbBlockEnd
  0
BLOCK
  5
12A
330
129
100
AcDbEntity
  8
0
100
AcDbBlockBegin
  2
*D1
 70
1
 10
0.0
 20
0.0
 30
0.0
  3
*D1
  1

  0
LINE
  5
12C
330
129
100
AcDbEntity
  8
0
100
AcDbLine
 10
20.0
 20
141.74202037341217
 30
0.0
 11
20.0
 21
145.8710101867061
 31
0.0
  0
LINE
  5
12D
330
129
100
AcDbEntity
  8
0
100
AcDbLine
 10
183.36281798666926
 20
141.74202037341217
 30
0.0
 11
183.36281798666926
 21
145.8710101867061
 31
0.0
  0
INSERT
  5
132
330
129
100
AcDbEntity
  8
0
100
AcDbBlockReference
  2
_CLOSEDFILLED
 10
20.0
 20
145.8710101867061
 30
0.0
 41
0.25
 42
0.25
 50
180.0
  0
INSERT
  5
134
330
129
100
AcDbEntity
  8
0
100
AcDbBlockReference
  2
_CLOSEDFILLED
 10
183.36281798666926
 20
145.8710101867061
 30
0.0
 41
0.25
 42
0.25
  0
LINE
  5
136
330
129
100
AcDbEntity
  8
0
100
AcDbLine
 10
20.25
 20
145.8710101867061
 30
0.0
 11
97.18140899333463
 21
145.8710101867061
 31
0.0
  0
LINE
  5
137
330
129
100
AcDbEntity
  8
0
100
AcDbLine
 10
106.18140899333463
 20
145.8710101867061
 30
0.0
 11
183.11281798666926
 21
145.8710101867061
 31
0.0
  0
MTEXT
  5
138
330
129
100
AcDbEntity
  8
0
100
AcDbMText
 10
101.68140899333463
 20
145.8710101867061
 30
0.0
 40
1.0
 71
5
  1
163,36 mm
  0
POINT
  5
139
330
129
100
AcDbEntity
  8
Defpoints
100
AcDbPoint
 10
20.0
 20
145.8710101867061
 30
0.0
  0
POINT
  5
13A
330
129
100
AcDbEntity
  8
Defpoints
100
AcDbPoint
 10
20.0
 20
141.74202037341217
 30
0.0
  0
POINT
  5
13B
330
129
100
AcDbEntity
  8
Defpoints
100
AcDbPoint
 10
183.36281798666926
 20
141.74202037341217
 30
0.0
  0
ENDBLK
  5
12B
330
129
100
AcDbEntity
  8
0
100
AcDbBlockEnd
  0
BLOCK
  5
12F
330
12E
100
AcDbEntity
  8
0
100
AcDbBlockBegin
  2
_CLOSEDFILLED
 70
0
 10
0.0
 20
0.0
 30
0.0
  3
_CLOSEDFILLED
  1

  0
SOLID
  5
131
330
12E
100
AcDbEntity
  8
0
  6
BYBLOCK
 62
0
100
AcDbTrace
 10
-1.0
 20
0.16439898372402537
 30
0.0
 11
0.0
 21
0.0
 31
0.0
 12
-1.0
 22
-0.16439898372402537
 32
0.0
 13
-1.0
 23
-0.16439898372402537
 33
0.0
  0
ENDBLK
  5
130
330
12E
100
AcDbEntity
  8
0
100
AcDbBlockEnd
  0
BLOCK
  5
13E
330
13D
100
AcDbEntity
  8
0
100
AcDbBlockBegin
  2
*D2
 70
1
 10
0.0
 20
0.0
 30
0.0
  3
*D2
  1

  0
LINE
  5
140
330
13D
100
AcDbEntity
  8
0
100
AcDbLine
 10
20.0
 20
158.25797962658783
 30
0.0
 11
44.77393887976348
 21
158.25797962658783
 31
0.0
  0
LINE
  5
141
330
13D
100
AcDbEntity
  8
0
100
AcDbLine
 10
20.0
 20
141.74202037341217
 30
0.0
 11
52.77393887976348
 21
141.74202037341217
 31
0.0
  0
INSERT
  5
142
330
13D
100
AcDbEntity
  8
0
100
AcDbBlockReference
  2
_CLOSEDFILLED
 10
44.77393887976348
 20
158.25797962658783
 30
0.0
 41
1.5
 42
1.5
 50
90.0
  0
INSERT
  5
144
330
13D
100
AcDbEntity
  8
0
100
AcDbBlockReference
  2
_CLOSEDFILLED
 10
44.77393887976348
 20
141.74202037341217
 30
0.0
 41
1.5
 42
1.5
 50
-90.0
  0
LINE
  5
146
330
13D
100
AcDbEntity
  8
0
100
AcDbLine
 10
44.77393887976348
 20
143.83577037341217
 30
0.0
 11
44.77393887976348
 21
156.75797962658783
 31
0.0
  0
MTEXT
  5
147
330
13D
100
AcDbEntity
  8
0
100
AcDbMText
 10
48.77393887976348
 20
142.86702037341217
 30
0.0
 40
1.0
 71
5
  1
16,52 mm
  0
POINT
  5
148
330
13D
100
AcDbEntity
  8
Defpoints
100
AcDbPoint
 10
44.77393887976348
 20
158.25797962658783
 30
0.0
  0
POINT
  5
149
330
13D
100
AcDbEntity
  8
Defpoints
100
AcDbPoint
 10
20.0
 20
158.25797962658783
 30
0.0
  0
POINT
  5
14A
330
13D
100
AcDbEntity
  8
Defpoints
100
AcDbPoint
 10
20.0
 20
141.74202037341217
 30
0.0
  0
ENDBLK
  5
13F
330
13D
100
AcDbEntity
  8
0
100
AcDbBlockEnd
  0
BLOCK
  5
14D
330
14C
100
AcDbEntity
  8
0
100
AcDbBlockBegin
  2
*D3
 70
1
 10
0.0
 20
0.0
 30
0.0
  3
*D3
  1

  0
LINE
  5
14F
330
14C
100
AcDbEntity
  8
0
100
AcDbLine
 10
20.0
 20
150.0
 30
0.0
 11
28.257979626587826
 21
150.0
 31
0.0
  0
LINE
  5
150
330
14C
100
AcDbEntity
  8
0
100
AcDbLine
 10
20.0
 20
158.25797962658783
 30
0.0
 11
28.257979626587826
 21
158.25797962658783
 31
0.0
  0
INSERT
  5
151
330
14C
100
AcDbEntity
  8
0
100
AcDbBlockReference
  2
_CLOSEDFILLED
 10
28.257979626587826
 20
150.0
 30
0.0
 41
1.5
 42
1.5
 50
270.0
  0
INSERT
  5
153
330
14C
100
AcDbEntity
  8
0
100
AcDbBlockReference
  2
_CLOSEDFILLED
 10
28.257979626587826
 20
158.25797962658783
 30
0.0
 41
1.5
 42
1.5
 50
90.0
  0
LINE
  5
155
330
14C
100
AcDbEntity
  8
0
100
AcDbLine
 10
28.257979626587826
 20
151.5
 30
0.0
 11
28.257979626587826
 21
156.75797962658783
 31
0.0
  0
MTEXT
  5
156
330
14C
100
AcDbEntity
  8
0
100
AcDbMText
 10
27.132979626587826
 20
154.1289898132939
 30
0.0
 40
1.0
 71
5
  1
8,26 mm
 50
90.0
  0
POINT
  5
157
330
14C
100
AcDbEntity
  8
Defpoints
100
AcDbPoint
 10
28.257979626587826
 20
150.0
 30
0.0
  0
POINT
  5
158
330
14C
100
AcDbEntity
  8
Defpoints
100
AcDbPoint
 10
20.0
 20
150.0
 30
0.0
  0
POINT
  5
159
330
14C
100
AcDbEntity
  8
Defpoints
100
AcDbPoint
 10
20.0
 20
158.25797962658783
 30
0.0
  0
ENDBLK
  5
14E
330
14C
100
AcDbEntity
  8
0
100
AcDbBlockEnd
  0
BLOCK
  5
15C
330
15B
100
AcDbEntity
  8
0
100
AcDbBlockBegin
  2
*D4
 70
1
 10
0.0
 20
0.0
 30
0.0
  3
*D4
  1

  0
LINE
  5
15E
330
15B
100
AcDbEntity
  8
0
100
AcDbLine
 10
20.0
 20
150.0
 30
0.0
 11
36.51595925317565
 21
150.0
 31
0.0
  0
LINE
  5
15F
330
15B
100
AcDbEntity
  8
0
100
AcDbLine
 10
20.0
 20
141.74202037341217
 30
0.0
 11
43.51595925317565
 21
141.74202037341217
 31
0.0
  0
INSERT
  5
160
330
15B
100
AcDbEntity
  8
0
100
AcDbBlockReference
  2
_CLOSEDFILLED
 10
36.51595925317565
 20
150.0
 30
0.0
 41
1.5
 42
1.5
 50
90.0
  0
INSERT
  5
162
330
15B
100
AcDbEntity
  8
0
100
AcDbBlockReference
  2
_CLOSEDFILLED
 10
36.51595925317565
 20
141.74202037341217
 30
0.0
 41
1.5
 42
1.5
 50
-90.0
  0
LINE
  5
164
330
15B
100
AcDbEntity
  8
0
100
AcDbLine
 10
36.51595925317565
 20
143.83577037341217
 30
0.0
 11
36.51595925317565
 21
148.5
 31
0.0
  0
MTEXT
  5
165
330
15B
100
AcDbEntity
  8
0
100
AcDbMText
 10
40.01595925317565
 20
142.86702037341217
 30
0.0
 40
1.0
 71
5
  1
8,26 mm
  0
POINT
  5
166
330
15B
100
AcDbEntity
  8
Defpoints
100
AcDbPoint
 10
36.51595925317565
 20
150.0
 30
0.0
  0
POINT
  5
167
330
15B
100
AcDbEntity
  8
Defpoints
100
AcDbPoint
 10
20.0
 20
150.0
 30
0.0
  0
POINT
  5
168
330
15B
100
AcDbEntity
  8
Defpoints
100
AcDbPoint
 10
20.0
 20
141.74202037341217
 30
0.0
  0
ENDBLK
  5
15D
330
15B
100
AcDbEntity
  8
0
100
AcDbBlockEnd
  0
ENDSEC
  0
SECTION
  2
ENTITIES
  0
POINT
  5
2F
330
17
100
AcDbEntity
  8
0
100
AcDbPoint
 10
20.0
 20
150.0
 30
0.0
  0
LINE
  5
30
330
17
100
AcDbEntity
  8
0
100
AcDbLine
 10
20.0
 20
150.0
 30
0.0
 11
20.0
 21
150.0
 31
0.0
  0
POINT
  5
31
330
17
100
AcDbEntity
  8
0
100
AcDbPoint
 10
21.361356816555578
 20
150.02047687437673
 30
0.0
  0
LINE
  5
32
330
17
100
AcDbEntity
  8
0
100
AcDbLine
 10
21.361356816555578
 20
150.0
 30
0.0
 11
21.361356816555578
 21
150.02047687437673
 31
0.0
  0
POINT
  5
33
330
17
100
AcDbEntity
  8
0
100
AcDbPoint
 10
22.722713633111155
 20
150.0817407224958
 30
0.0
  0
LINE
  5
34
330
17
100
AcDbEntity
  8
0
100
AcDbLine
 10
22.722713633111155
 20
150.0
 30
0.0
 11
22.722713633111155
 21
150.0817407224958
 31
0.0
  0
POINT
  5
35
330
17
100
AcDbEntity
  8
0
100
AcDbPoint
 10
24.084070449666733
 20
150.18329133162976
 30
0.0
  0
LINE
  5
36
330
17
100
AcDbEntity
  8
0
100
AcDbLine
 10
24.084070449666733
 20
150.0
 30
0.0
 11
24.084070449666733
 21
150.18329133162976
 31
0.0
  0
POINT
  5
37
330
17
100
AcDbEntity
  8
0
100
AcDbPoint
 10
25.44542726622231
 20
150.32429540915342
 30
0.0
  0
LINE
  5
38
330
17
100
AcDbEntity
  8
0
100
AcDbLine
 10
25.44542726622231
 20
150.0
 30
0.0
 11
25.44542726622231
 21
150.32429540915342
 31
0.0
  0
POINT
  5
39
330
17
100
AcDbEntity
  8
0
100
AcDbPoint
 10
26.806784082777888
 20
150.5035872495691
 30
0.0
  0
LINE
  5
3A
330
17
100
AcDbEntity
  8
0
100
AcDbLine
 10
26.806784082777888
 20
150.0
 30
0.0
 11
26.806784082777888
 21
150.5035872495691
 31
0.0
  0
POINT
  5
3B
330
17
100
AcDbEntity
  8
0
100
AcDbPoint
 10
28.168140899333462
 20
150.7196698201597
 30
0.0
  0
LINE
  5
3C
330
17
100
AcDbEntity
  8
0
100
AcDbLine
 10
28.168140899333462
 20
150.0
 30
0.0
 11
28.168140899333462
 21
150.7196698201597
 31
0.0
  0
POINT
  5
3D
330
17
100
AcDbEntity
  8
0
100
AcDbPoint
 10
29.52949771588904
 20
150.9707164252284
 30
0.0
  0
LINE
  5
3E
330
17
100
AcDbEntity
  8
0
100
AcDbLine
 10
29.52949771588904
 20
150.0
 30
0.0
 11
29.52949771588904
 21
150.9707164252284
 31
0.0
  0
POINT
  5
3F
330
17
100
AcDbEntity
  8
0
100
AcDbPoint
 10
30.890854532444617
 20
151.254573165934
 30
0.0
  0
LINE
  5
40
330
17
100
AcDbEntity
  8
0
100
AcDbLine
 10
30.890854532444617
 20
150.0
 30
0.0
 11
30.890854532444617
 21
151.254573165934
 31
0.0
  0
POINT
  5
41
330
17
100
AcDbEntity
  8
0
100
AcDbPoint
 10
32.25221134900019
 20
151.5687624776994
 30
0.0
  0
LINE
  5
42
330
17
100
AcDbEntity
  8
0
100
AcDbLine
 10
32.25221134900019
 20
150.0
 30
0.0
 11
32.25221134900019
 21
151.5687624776994
 31
0.0
  0
POINT
  5
43
330
17
100
AcDbEntity
  8
0
100
AcDbPoint
 10
33.613568165555776
 20
151.9104881009647
 30
0.0
  0
LINE
  5
44
330
17
100
AcDbEntity
  8
0
100
AcDbLine
 10
33.613568165555776
 20
150.0
 30
0.0
 11
33.613568165555776
 21
151.9104881009647
 31
0.0
  0
POINT
  5
45
330
17
100
AcDbEntity
  8
0
100
AcDbPoint
 10
34.97492498211135
 20
152.27664192378282
 30
0.0
  0
LINE
  5
46
330
17
100
AcDbEntity
  8
0
100
AcDbLine
 10
34.97492498211135
 20
150.0
 30
0.0
 11
34.97492498211135
 21
152.27664192378282
 31
0.0
  0
POINT
  5
47
330
17
100
AcDbEntity
  8
0
100
AcDbPoint
 10
36.336281798666924
 20
152.66381322532484
 30
0.0
  0
LINE
  5
48
330
17
100
AcDbEntity
  8
0
100
AcDbLine
 10
36.336281798666924
 20
150.0
 30
0.0
 11
36.336281798666924
 21
152.66381322532484
 31
0.0
  0
POINT
  5
49
330
17
100
AcDbEntity
  8
0
100
AcDbPoint
 10
37.6976386152225
 20
153.06830094496246
 30
0.0
  0
LINE
  5
4A
330
17
100
AcDbEntity
  8
0
100
AcDbLine
 10
37.6976386152225
 20
150.0
 30
0.0
 11
37.6976386152225
 21
153.06830094496246
 31
0.0
  0
POINT
  5
4B
330
17
100
AcDbEntity
  8
0
100
AcDbPoint
 10
39.05899543177808
 20
153.4861296970676
 30
0.0
  0
LINE
  5
4C
330
17
100
AcDbEntity
  8
0
100
AcDbLine
 10
39.05899543177808
 20
150.0
 30
0.0
 11
39.05899543177808
 21
153.4861296970676
 31
0.0
  0
POINT
  5
4D
330
17
100
AcDbEntity
  8
0
100
AcDbPoint
 10
40.42035224833366
 20
153.91307033881006
 30
0.0
  0
LINE
  5
4E
330
17
100
AcDbEntity
  8
0
100
AcDbLine
 10
40.42035224833366
 20
150.0
 30
0.0
 11
40.42035224833366
 21
153.91307033881006
 31
0.0
  0
POINT
  5
4F
330
17
100
AcDbEntity
  8
0
100
AcDbPoint
 10
41.781709064889235
 20
154.3446659651574
 30
0.0
  0
LINE
  5
50
330
17
100
AcDbEntity
  8
0
100
AcDbLine
 10
41.781709064889235
 20
150.0
 30
0.0
 11
41.781709064889235
 21
154.3446659651574
 31
0.0
  0
POINT
  5
51
330
17
100
AcDbEntity
  8
0
100
AcDbPoint
 10
43.14306588144481
 20
154.77626423596405
 30
0.0
  0
LINE
  5
52
330
17
100
AcDbEntity
  8
0
100
AcDbLine
 10
43.14306588144481
 20
150.0
 30
0.0
 11
43.14306588144481
 21
154.77626423596405
 31
0.0
  0
POINT
  5
53
330
17
100
AcDbEntity
  8
0
100
AcDbPoint
 10
44.50442269800039
 20
155.2030569143718
 30
0.0
  0
LINE
  5
54
330
17
100
AcDbEntity
  8
0
100
AcDbLine
 10
44.50442269800039
 20
150.0
 30
0.0
 11
44.50442269800039
 21
155.2030569143718
 31
0.0
  0
POINT
  5
55
330
17
100
AcDbEntity
  8
0
100
AcDbPoint
 10
45.86577951455597
 20
155.62012739039398
 30
0.0
  0
LINE
  5
56
330
17
100
AcDbEntity
  8
0
100
AcDbLine
 10
45.86577951455597
 20
150.0
 30
0.0
 11
45.86577951455597
 21
155.62012739039398
 31
0.0
  0
POINT
  5
57
330
17
100
AcDbEntity
  8
0
100
AcDbPoint
 10
47.227136331111545
 20
156.02250675405304
 30
0.0
  0
LINE
  5
58
330
17
100
AcDbEntity
  8
0
100
AcDbLine
 10
47.227136331111545
 20
150.0
 30
0.0
 11
47.227136331111545
 21
156.02250675405304
 31
0.0
  0
POINT
  5
59
330
17
100
AcDbEntity
  8
0
100
AcDbPoint
 10
48.58849314766712
 20
156.40523864683303
 30
0.0
  0
LINE
  5
5A
330
17
100
AcDbEntity
  8
0
100
AcDbLine
 10
48.58849314766712
 20
150.0
 30
0.0
 11
48.58849314766712
 21
156.40523864683303
 31
0.0
  0
POINT
  5
5B
330
17
100
AcDbEntity
  8
0
100
AcDbPoint
 10
49.94984996422269
 20
156.76345264443628
 30
0.0
  0
LINE
  5
5C
330
17
100
AcDbEntity
  8
0
100
AcDbLine
 10
49.94984996422269
 20
150.0
 30
0.0
 11
49.94984996422269
 21
156.76345264443628
 31
0.0
  0
POINT
  5
5D
330
17
100
AcDbEntity
  8
0
100
AcDbPoint
 10
51.31120678077828
 20
157.09244530847118
 30
0.0
  0
LINE
  5
5E
330
17
100
AcDbEntity
  8
0
100
AcDbLine
 10
51.31120678077828
 20
150.0
 30
0.0
 11
51.31120678077828
 21
157.09244530847118
 31
0.0
  0
POINT
  5
5F
330
17
100
AcDbEntity
  8
0
100
AcDbPoint
 10
52.67256359733385
 20
157.38776731211644
 30
0.0
  0
LINE
  5
60
330
17
100
AcDbEntity
  8
0
100
AcDbLine
 10
52.67256359733385
 20
150.0
 30
0.0
 11
52.67256359733385
 21
157.38776731211644
 31
0.0
  0
POINT
  5
61
330
17
100
AcDbEntity
  8
0
100
AcDbPoint
 10
54.033920413889426
 20
157.64531424493327
 30
0.0
  0
LINE
  5
62
330
17
100
AcDbEntity
  8
0
100
AcDbLine
 10
54.033920413889426
 20
150.0
 30
0.0
 11
54.033920413889426
 21
157.64531424493327
 31
0.0
  0
POINT
  5
63
330
17
100
AcDbEntity
  8
0
100
AcDbPoint
 10
55.395277230445004
 20
157.86141791423304
 30
0.0
  0
LINE
  5
64
330
17
100
AcDbEntity
  8
0
100
AcDbLine
 10
55.395277230445004
 20
150.0
 30
0.0
 11
55.395277230445004
 21
157.86141791423304
 31
0.0
  0
POINT
  5
65
330
17
100
AcDbEntity
  8
0
100
AcDbPoint
 10
56.75663404700058
 20
158.03293428912482
 30
0.0
  0
LINE
  5
66
330
17
100
AcDbEntity
  8
0
100
AcDbLine
 10
56.75663404700058
 20
150.0
 30
0.0
 11
56.75663404700058
 21
158.03293428912482
 31
0.0
  0
POINT
  5
67
330
17
100
AcDbEntity
  8
0
100
AcDbPoint
 10
58.11799086355616
 20
158.15732379528367
 30
0.0
  0
LINE
  5
68
330
17
100
AcDbEntity
  8
0
100
AcDbLine
 10
58.11799086355616
 20
150.0
 30
0.0
 11
58.11799086355616
 21
158.15732379528367
 31
0.0
  0
POINT
  5
69
330
17
100
AcDbEntity
  8
0
100
AcDbPoint
 10
59.47934768011174
 20
158.23271957226655
 30
0.0
  0
LINE
  5
6A
330
17
100
AcDbEntity
  8
0
100
AcDbLine
 10
59.47934768011174
 20
150.0
 30
0.0
 11
59.47934768011174
 21
158.23271957226655
 31
0.0
  0
POINT
  5
6B
330
17
100
AcDbEntity
  8
0
100
AcDbPoint
 10
60.840704496667314
 20
158.25797962658783
 30
0.0
  0
LINE
  5
6C
330
17
100
AcDbEntity
  8
0
100
AcDbLine
 10
60.840704496667314
 20
150.0
 30
0.0
 11
60.840704496667314
 21
158.25797962658783
 31
0.0
  0
POINT
  5
6D
330
17
100
AcDbEntity
  8
0
100
AcDbPoint
 10
62.20206131322289
 20
158.23271957226655
 30
0.0
  0
LINE
  5
6E
330
17
100
AcDbEntity
  8
0
100
AcDbLine
 10
62.20206131322289
 20
150.0
 30
0.0
 11
62.20206131322289
 21
158.23271957226655
 31
0.0
  0
POINT
  5
6F
330
17
100
AcDbEntity
  8
0
100
AcDbPoint
 10
63.56341812977847
 20
158.15732379528367
 30
0.0
  0
LINE
  5
70
330
17
100
AcDbEntity
  8
0
100
AcDbLine
 10
63.56341812977847
 20
150.0
 30
0.0
 11
63.56341812977847
 21
158.15732379528367
 31
0.0
  0
POINT
  5
71
330
17
100
AcDbEntity
  8
0
100
AcDbPoint
 10
64.92477494633405
 20
158.03293428912482
 30
0.0
  0
LINE
  5
72
330
17
100
AcDbEntity
  8
0
100
AcDbLine
 10
64.92477494633405
 20
150.0
 30
0.0
 11
64.92477494633405
 21
158.03293428912482
 31
0.0
  0
POINT
  5
73
330
17
100
AcDbEntity
  8
0
100
AcDbPoint
 10
66.28613176288962
 20
157.86141791423304
 30
0.0
  0
LINE
  5
74
330
17
100
AcDbEntity
  8
0
100
AcDbLine
 10
66.28613176288962
 20
150.0
 30
0.0
 11
66.28613176288962
 21
157.86141791423304
 31
0.0
  0
POINT
  5
75
330
17
100
AcDbEntity
  8
0
100
AcDbPoint
 10
67.6474885794452
 20
157.64531424493327
 30
0.0
  0
LINE
  5
76
330
17
100
AcDbEntity
  8
0
100
AcDbLine
 10
67.6474885794452
 20
150.0
 30
0.0
 11
67.6474885794452
 21
157.64531424493327
 31
0.0
  0
POINT
  5
77
330
17
100
AcDbEntity
  8
0
100
AcDbPoint
 10
69.00884539600078
 20
157.38776731211647
 30
0.0
  0
LINE
  5
78
330
17
100
AcDbEntity
  8
0
100
AcDbLine
 10
69.00884539600078
 20
150.0
 30
0.0
 11
69.00884539600078
 21
157.38776731211647
 31
0.0
  0
POINT
  5
79
330
17
100
AcDbEntity
  8
0
100
AcDbPoint
 10
70.37020221255636
 20
157.09244530847118
 30
0.0
  0
LINE
  5
7A
330
17
100
AcDbEntity
  8
0
100
AcDbLine
 10
70.37020221255636
 20
150.0
 30
0.0
 11
70.37020221255636
 21
157.09244530847118
 31
0.0
  0
POINT
  5
7B
330
17
100
AcDbEntity
  8
0
100
AcDbPoint
 10
71.73155902911193
 20
156.76345264443628
 30
0.0
  0
LINE
  5
7C
330
17
100
AcDbEntity
  8
0
100
AcDbLine
 10
71.73155902911193
 20
150.0
 30
0.0
 11
71.73155902911193
 21
156.76345264443628
 31
0.0
  0
POINT
  5
7D
330
17
100
AcDbEntity
  8
0
100
AcDbPoint
 10
73.0929158456675
 20
156.40523864683303
 30
0.0
  0
LINE
  5
7E
330
17
100
AcDbEntity
  8
0
100
AcDbLine
 10
73.0929158456675
 20
150.0
 30
0.0
 11
73.0929158456675
 21
156.40523864683303
 31
0.0
  0
POINT
  5
7F
330
17
100
AcDbEntity
  8
0
100
AcDbPoint
 10
74.45427266222309
 20
156.02250675405304
 30
0.0
  0
LINE
  5
80
330
17
100
AcDbEntity
  8
0
100
AcDbLine
 10
74.45427266222309
 20
150.0
 30
0.0
 11
74.45427266222309
 21
156.02250675405304
 31
0.0
  0
POINT
  5
81
330
17
100
AcDbEntity
  8
0
100
AcDbPoint
 10
75.81562947877866
 20
155.62012739039398
 30
0.0
  0
LINE
  5
82
330
17
100
AcDbEntity
  8
0
100
AcDbLine
 10
75.81562947877866
 20
150.0
 30
0.0
 11
75.81562947877866
 21
155.62012739039398
 31
0.0
  0
POINT
  5
83
330
17
100
AcDbEntity
  8
0
100
AcDbPoint
 10
77.17698629533425
 20
155.2030569143718
 30
0.0
  0
LINE
  5
84
330
17
100
AcDbEntity
  8
0
100
AcDbLine
 10
77.17698629533425
 20
150.0
 30
0.0
 11
77.17698629533425
 21
155.2030569143718
 31
0.0
  0
POINT
  5
85
330
17
100
AcDbEntity
  8
0
100
AcDbPoint
 10
78.53834311188982
 20
154.77626423596405
 30
0.0
  0
LINE
  5
86
330
17
100
AcDbEntity
  8
0
100
AcDbLine
 10
78.53834311188982
 20
150.0
 30
0.0
 11
78.53834311188982
 21
154.77626423596405
 31
0.0
  0
POINT
  5
87
330
17
100
AcDbEntity
  8
0
100
AcDbPoint
 10
79.89969992844539
 20
154.3446659651574
 30
0.0
  0
LINE
  5
88
330
17
100
AcDbEntity
  8
0
100
AcDbLine
 10
79.89969992844539
 20
150.0
 30
0.0
 11
79.89969992844539
 21
154.3446659651574
 31
0.0
  0
POINT
  5
89
330
17
100
AcDbEntity
  8
0
100
AcDbPoint
 10
81.26105674500097
 20
153.91307033881006
 30
0.0
  0
LINE
  5
8A
330
17
100
AcDbEntity
  8
0
100
AcDbLine
 10
81.26105674500097
 20
150.0
 30
0.0
 11
81.26105674500097
 21
153.91307033881006
 31
0.0
  0
POINT
  5
8B
330
17
100
AcDbEntity
  8
0
100
AcDbPoint
 10
82.62241356155656
 20
153.4861296970676
 30
0.0
  0
LINE
  5
8C
330
17
100
AcDbEntity
  8
0
100
AcDbLine
 10
82.62241356155656
 20
150.0
 30
0.0
 11
82.62241356155656
 21
153.4861296970676
 31
0.0
  0
POINT
  5
8D
330
17
100
AcDbEntity
  8
0
100
AcDbPoint
 10
83.98377037811213
 20
153.06830094496246
 30
0.0
  0
LINE
  5
8E
330
17
100
AcDbEntity
  8
0
100
AcDbLine
 10
83.98377037811213
 20
150.0
 30
0.0
 11
83.98377037811213
 21
153.06830094496246
 31
0.0
  0
POINT
  5
8F
330
17
100
AcDbEntity
  8
0
100
AcDbPoint
 10
85.3451271946677
 20
152.66381322532484
 30
0.0
  0
LINE
  5
90
330
17
100
AcDbEntity
  8
0
100
AcDbLine
 10
85.3451271946677
 20
150.0
 30
0.0
 11
85.3451271946677
 21
152.66381322532484
 31
0.0
  0
POINT
  5
91
330
17
100
AcDbEntity
  8
0
100
AcDbPoint
 10
86.70648401122328
 20
152.27664192378285
 30
0.0
  0
LINE
  5
92
330
17
100
AcDbEntity
  8
0
100
AcDbLine
 10
86.70648401122328
 20
150.0
 30
0.0
 11
86.70648401122328
 21
152.27664192378285
 31
0.0
  0
POINT
  5
93
330
17
100
AcDbEntity
  8
0
100
AcDbPoint
 10
88.06784082777885
 20
151.9104881009647
 30
0.0
  0
LINE
  5
94
330
17
100
AcDbEntity
  8
0
100
AcDbLine
 10
88.06784082777885
 20
150.0
 30
0.0
 11
88.06784082777885
 21
151.9104881009647
 31
0.0
  0
POINT
  5
95
330
17
100
AcDbEntity
  8
0
100
AcDbPoint
 10
89.42919764433444
 20
151.5687624776994
 30
0.0
  0
LINE
  5
96
330
17
100
AcDbEntity
  8
0
100
AcDbLine
 10
89.42919764433444
 20
150.0
 30
0.0
 11
89.42919764433444
 21
151.5687624776994
 31
0.0
  0
POINT
  5
97
330
17
100
AcDbEntity
  8
0
100
AcDbPoint
 10
90.79055446089001
 20
151.254573165934
 30
0.0
  0
LINE
  5
98
330
17
100
AcDbEntity
  8
0
100
AcDbLine
 10
90.79055446089001
 20
150.0
 30
0.0
 11
90.79055446089001
 21
151.254573165934
 31
0.0
  0
POINT
  5
99
330
17
100
AcDbEntity
  8
0
100
AcDbPoint
 10
92.15191127744559
 20
150.9707164252284
 30
0.0
  0
LINE
  5
9A
330
17
100
AcDbEntity
  8
0
100
AcDbLine
 10
92.15191127744559
 20
150.0
 30
0.0
 11
92.15191127744559
 21
150.9707164252284
 31
0.0
  0
POINT
  5
9B
330
17
100
AcDbEntity
  8
0
100
AcDbPoint
 10
93.51326809400116
 20
150.7196698201597
 30
0.0
  0
LINE
  5
9C
330
17
100
AcDbEntity
  8
0
100
AcDbLine
 10
93.51326809400116
 20
150.0
 30
0.0
 11
93.51326809400116
 21
150.7196698201597
 31
0.0
  0
POINT
  5
9D
330
17
100
AcDbEntity
  8
0
100
AcDbPoint
 10
94.87462491055675
 20
150.5035872495691
 30
0.0
  0
LINE
  5
9E
330
17
100
AcDbEntity
  8
0
100
AcDbLine
 10
94.87462491055675
 20
150.0
 30
0.0
 11
94.87462491055675
 21
150.5035872495691
 31
0.0
  0
POINT
  5
9F
330
17
100
AcDbEntity
  8
0
100
AcDbPoint
 10
96.23598172711232
 20
150.32429540915342
 30
0.0
  0
LINE
  5
A0
330
17
100
AcDbEntity
  8
0
100
AcDbLine
 10
96.23598172711232
 20
150.0
 30
0.0
 11
96.23598172711232
 21
150.32429540915342
 31
0.0
  0
POINT
  5
A1
330
17
100
AcDbEntity
  8
0
100
AcDbPoint
 10
97.5973385436679
 20
150.18329133162976
 30
0.0
  0
LINE
  5
A2
330
17
100
AcDbEntity
  8
0
100
AcDbLine
 10
97.5973385436679
 20
150.0
 30
0.0
 11
97.5973385436679
 21
150.18329133162976
 31
0.0
  0
POINT
  5
A3
330
17
100
AcDbEntity
  8
0
100
AcDbPoint
 10
98.95869536022347
 20
150.0817407224958
 30
0.0
  0
LINE
  5
A4
330
17
100
AcDbEntity
  8
0
100
AcDbLine
 10
98.95869536022347
 20
150.0
 30
0.0
 11
98.95869536022347
 21
150.0817407224958
 31
0.0
  0
POINT
  5
A5
330
17
100
AcDbEntity
  8
0
100
AcDbPoint
 10
100.32005217677906
 20
150.02047687437673
 30
0.0
  0
LINE
  5
A6
330
17
100
AcDbEntity
  8
0
100
AcDbLine
 10
100.32005217677906
 20
150.0
 30
0.0
 11
100.32005217677906
 21
150.02047687437673
 31
0.0
  0
POINT
  5
A7
330
17
100
AcDbEntity
  8
0
100
AcDbPoint
 10
101.68140899333463
 20
150.0
 30
0.0
  0
LINE
  5
A8
330
17
100
AcDbEntity
  8
0
100
AcDbLine
 10
101.68140899333463
 20
150.0
 30
0.0
 11
101.68140899333463
 21
150.0
 31
0.0
  0
POINT
  5
A9
330
17
100
AcDbEntity
  8
0
100
AcDbPoint
 10
103.04276580989021
 20
150.02047687437673
 30
0.0
  0
LINE
  5
AA
330
17
100
AcDbEntity
  8
0
100
AcDbLine
 10
103.04276580989021
 20
150.0
 30
0.0
 11
103.04276580989021
 21
150.02047687437673
 31
0.0
  0
POINT
  5
AB
330
17
100
AcDbEntity
  8
0
100
AcDbPoint
 10
104.40412262644578
 20
150.0817407224958
 30
0.0
  0
LINE
  5
AC
330
17
100
AcDbEntity
  8
0
100
AcDbLine
 10
104.40412262644578
 20
150.0
 30
0.0
 11
104.40412262644578
 21
150.0817407224958
 31
0.0
  0
POINT
  5
AD
330
17
100
AcDbEntity
  8
0
100
AcDbPoint
 10
105.76547944300137
 20
150.18329133162976
 30
0.0
  0
LINE
  5
AE
330
17
100
AcDbEntity
  8
0
100
AcDbLine
 10
105.76547944300137
 20
150.0
 30
0.0
 11
105.76547944300137
 21
150.18329133162976
 31
0.0
  0
POINT
  5
AF
330
17
100
AcDbEntity
  8
0
100
AcDbPoint
 10
107.12683625955694
 20
150.32429540915342
 30
0.0
  0
LINE
  5
B0
330
17
100
AcDbEntity
  8
0
100
AcDbLine
 10
107.12683625955694
 20
150.0
 30
0.0
 11
107.12683625955694
 21
150.32429540915342
 31
0.0
  0
POINT
  5
B1
330
17
100
AcDbEntity
  8
0
100
AcDbPoint
 10
108.48819307611251
 20
150.5035872495691
 30
0.0
  0
LINE
  5
B2
330
17
100
AcDbEntity
  8
0
100
AcDbLine
 10
108.48819307611251
 20
150.0
 30
0.0
 11
108.48819307611251
 21
150.5035872495691
 31
0.0
  0
POINT
  5
B3
330
17
100
AcDbEntity
  8
0
100
AcDbPoint
 10
109.8495498926681
 20
150.7196698201597
 30
0.0
  0
LINE
  5
B4
330
17
100
AcDbEntity
  8
0
100
AcDbLine
 10
109.8495498926681
 20
150.0
 30
0.0
 11
109.8495498926681
 21
150.7196698201597
 31
0.0
  0
POINT
  5
B5
330
17
100
AcDbEntity
  8
0
100
AcDbPoint
 10
111.21090670922366
 20
150.9707164252284
 30
0.0
  0
LINE
  5
B6
330
17
100
AcDbEntity
  8
0
100
AcDbLine
 10
111.21090670922366
 20
150.0
 30
0.0
 11
111.21090670922366
 21
150.9707164252284
 31
0.0
  0
POINT
  5
B7
330
17
100
AcDbEntity
  8
0
100
AcDbPoint
 10
112.57226352577925
 20
151.254573165934
 30
0.0
  0
LINE
  5
B8
330
17
100
AcDbEntity
  8
0
100
AcDbLine
 10
112.57226352577925
 20
150.0
 30
0.0
 11
112.57226352577925
 21
151.254573165934
 31
0.0
  0
POINT
  5
B9
330
17
100
AcDbEntity
  8
0
100
AcDbPoint
 10
113.93362034233482
 20
151.5687624776994
 30
0.0
  0
LINE
  5
BA
330
17
100
AcDbEntity
  8
0
100
AcDbLine
 10
113.93362034233482
 20
150.0
 30
0.0
 11
113.93362034233482
 21
151.5687624776994
 31
0.0
  0
POINT
  5
BB
330
17
100
AcDbEntity
  8
0
100
AcDbPoint
 10
115.2949771588904
 20
151.9104881009647
 30
0.0
  0
LINE
  5
BC
330
17
100
AcDbEntity
  8
0
100
AcDbLine
 10
115.2949771588904
 20
150.0
 30
0.0
 11
115.2949771588904
 21
151.9104881009647
 31
0.0
  0
POINT
  5
BD
330
17
100
AcDbEntity
  8
0
100
AcDbPoint
 10
116.65633397544597
 20
152.27664192378282
 30
0.0
  0
LINE
  5
BE
330
17
100
AcDbEntity
  8
0
100
AcDbLine
 10
116.65633397544597
 20
150.0
 30
0.0
 11
116.65633397544597
 21
152.27664192378282
 31
0.0
  0
POINT
  5
BF
330
17
100
AcDbEntity
  8
0
100
AcDbPoint
 10
118.01769079200156
 20
152.66381322532484
 30
0.0
  0
LINE
  5
C0
330
17
100
AcDbEntity
  8
0
100
AcDbLine
 10
118.01769079200156
 20
150.0
 30
0.0
 11
118.01769079200156
 21
152.66381322532484
 31
0.0
  0
POINT
  5
C1
330
17
100
AcDbEntity
  8
0
100
AcDbPoint
 10
119.37904760855713
 20
153.06830094496246
 30
0.0
  0
LINE
  5
C2
330
17
100
AcDbEntity
  8
0
100
AcDbLine
 10
119.37904760855713
 20
150.0
 30
0.0
 11
119.37904760855713
 21
153.06830094496246
 31
0.0
  0
POINT
  5
C3
330
17
100
AcDbEntity
  8
0
100
AcDbPoint
 10
120.74040442511271
 20
153.4861296970676
 30
0.0
  0
LINE
  5
C4
330
17
100
AcDbEntity
  8
0
100
AcDbLine
 10
120.74040442511271
 20
150.0
 30
0.0
 11
120.74040442511271
 21
153.4861296970676
 31
0.0
  0
POINT
  5
C5
330
17
100
AcDbEntity
  8
0
100
AcDbPoint
 10
122.10176124166829
 20
153.91307033881006
 30
0.0
  0
LINE
  5
C6
330
17
100
AcDbEntity
  8
0
100
AcDbLine
 10
122.10176124166829
 20
150.0
 30
0.0
 11
122.10176124166829
 21
153.91307033881006
 31
0.0
  0
POINT
  5
C7
330
17
100
AcDbEntity
  8
0
100
AcDbPoint
 10
123.46311805822387
 20
154.3446659651574
 30
0.0
  0
LINE
  5
C8
330
17
100
AcDbEntity
  8
0
100
AcDbLine
 10
123.46311805822387
 20
150.0
 30
0.0
 11
123.46311805822387
 21
154.3446659651574
 31
0.0
  0
POINT
  5
C9
330
17
100
AcDbEntity
  8
0
100
AcDbPoint
 10
124.82447487477944
 20
154.77626423596405
 30
0.0
  0
LINE
  5
CA
330
17
100
AcDbEntity
  8
0
100
AcDbLine
 10
124.82447487477944
 20
150.0
 30
0.0
 11
124.82447487477944
 21
154.77626423596405
 31
0.0
  0
POINT
  5
CB
330
17
100
AcDbEntity
  8
0
100
AcDbPoint
 10
126.18583169133503
 20
155.2030569143718
 30
0.0
  0
LINE
  5
CC
330
17
100
AcDbEntity
  8
0
100
AcDbLine
 10
126.18583169133503
 20
150.0
 30
0.0
 11
126.18583169133503
 21
155.2030569143718
 31
0.0
  0
POINT
  5
CD
330
17
100
AcDbEntity
  8
0
100
AcDbPoint
 10
127.5471885078906
 20
155.62012739039398
 30
0.0
  0
LINE
  5
CE
330
17
100
AcDbEntity
  8
0
100
AcDbLine
 10
127.5471885078906
 20
150.0
 30
0.0
 11
127.5471885078906
 21
155.62012739039398
 31
0.0
  0
POINT
  5
CF
330
17
100
AcDbEntity
  8
0
100
AcDbPoint
 10
128.90854532444618
 20
156.02250675405304
 30
0.0
  0
LINE
  5
D0
330
17
100
AcDbEntity
  8
0
100
AcDbLine
 10
128.90854532444618
 20
150.0
 30
0.0
 11
128.90854532444618
 21
156.02250675405304
 31
0.0
  0
POINT
  5
D1
330
17
100
AcDbEntity
  8
0
100
AcDbPoint
 10
130.26990214100175
 20
156.40523864683303
 30
0.0
  0
LINE
  5
D2
330
17
100
AcDbEntity
  8
0
100
AcDbLine
 10
130.26990214100175
 20
150.0
 30
0.0
 11
130.26990214100175
 21
156.40523864683303
 31
0.0
  0
POINT
  5
D3
330
17
100
AcDbEntity
  8
0
100
AcDbPoint
 10
131.63125895755732
 20
156.76345264443628
 30
0.0
  0
LINE
  5
D4
330
17
100
AcDbEntity
  8
0
100
AcDbLine
 10
131.63125895755732
 20
150.0
 30
0.0
 11
131.63125895755732
 21
156.76345264443628
 31
0.0
  0
POINT
  5
D5
330
17
100
AcDbEntity
  8
0
100
AcDbPoint
 10
132.9926157741129
 20
157.09244530847118
 30
0.0
  0
LINE
  5
D6
330
17
100
AcDbEntity
  8
0
100
AcDbLine
 10
132.9926157741129
 20
150.0
 30
0.0
 11
132.9926157741129
 21
157.09244530847118
 31
0.0
  0
POINT
  5
D7
330
17
100
AcDbEntity
  8
0
100
AcDbPoint
 10
134.3539725906685
 20
157.38776731211644
 30
0.0
  0
LINE
  5
D8
330
17
100
AcDbEntity
  8
0
100
AcDbLine
 10
134.3539725906685
 20
150.0
 30
0.0
 11
134.3539725906685
 21
157.38776731211644
 31
0.0
  0
POINT
  5
D9
330
17
100
AcDbEntity
  8
0
100
AcDbPoint
 10
135.71532940722406
 20
157.64531424493327
 30
0.0
  0
LINE
  5
DA
330
17
100
AcDbEntity
  8
0
100
AcDbLine
 10
135.71532940722406
 20
150.0
 30
0.0
 11
135.71532940722406
 21
157.64531424493327
 31
0.0
  0
POINT
  5
DB
330
17
100
AcDbEntity
  8
0
100
AcDbPoint
 10
137.07668622377963
 20
157.86141791423304
 30
0.0
  0
LINE
  5
DC
330
17
100
AcDbEntity
  8
0
100
AcDbLine
 10
137.07668622377963
 20
150.0
 30
0.0
 11
137.07668622377963
 21
157.86141791423304
 31
0.0
  0
POINT
  5
DD
330
17
100
AcDbEntity
  8
0
100
AcDbPoint
 10
138.43804304033523
 20
158.03293428912482
 30
0.0
  0
LINE
  5
DE
330
17
100
AcDbEntity
  8
0
100
AcDbLine
 10
138.43804304033523
 20
150.0
 30
0.0
 11
138.43804304033523
 21
158.03293428912482
 31
0.0
  0
POINT
  5
DF
330
17
100
AcDbEntity
  8
0
100
AcDbPoint
 10
139.79939985689077
 20
158.15732379528367
 30
0.0
  0
LINE
  5
E0
330
17
100
AcDbEntity
  8
0
100
AcDbLine
 10
139.79939985689077
 20
150.0
 30
0.0
 11
139.79939985689077
 21
158.15732379528367
 31
0.0
  0
POINT
  5
E1
330
17
100
AcDbEntity
  8
0
100
AcDbPoint
 10
141.16075667344637
 20
158.23271957226655
 30
0.0
  0
LINE
  5
E2
330
17
100
AcDbEntity
  8
0
100
AcDbLine
 10
141.16075667344637
 20
150.0
 30
0.0
 11
141.16075667344637
 21
158.23271957226655
 31
0.0
  0
POINT
  5
E3
330
17
100
AcDbEntity
  8
0
100
AcDbPoint
 10
142.52211349000194
 20
158.25797962658783
 30
0.0
  0
LINE
  5
E4
330
17
100
AcDbEntity
  8
0
100
AcDbLine
 10
142.52211349000194
 20
150.0
 30
0.0
 11
142.52211349000194
 21
158.25797962658783
 31
0.0
  0
POINT
  5
E5
330
17
100
AcDbEntity
  8
0
100
AcDbPoint
 10
143.8834703065575
 20
158.23271957226655
 30
0.0
  0
LINE
  5
E6
330
17
100
AcDbEntity
  8
0
100
AcDbLine
 10
143.8834703065575
 20
150.0
 30
0.0
 11
143.8834703065575
 21
158.23271957226655
 31
0.0
  0
POINT
  5
E7
330
17
100
AcDbEntity
  8
0
100
AcDbPoint
 10
145.2448271231131
 20
158.15732379528367
 30
0.0
  0
LINE
  5
E8
330
17
100
AcDbEntity
  8
0
100
AcDbLine
 10
145.2448271231131
 20
150.0
 30
0.0
 11
145.2448271231131
 21
158.15732379528367
 31
0.0
  0
POINT
  5
E9
330
17
100
AcDbEntity
  8
0
100
AcDbPoint
 10
146.60618393966868
 20
158.03293428912482
 30
0.0
  0
LINE
  5
EA
330
17
100
AcDbEntity
  8
0
100
AcDbLine
 10
146.60618393966868
 20
150.0
 30
0.0
 11
146.60618393966868
 21
158.03293428912482
 31
0.0
  0
POINT
  5
EB
330
17
100
AcDbEntity
  8
0
100
AcDbPoint
 10
147.96754075622425
 20
157.86141791423304
 30
0.0
  0
LINE
  5
EC
330
17
100
AcDbEntity
  8
0
100
AcDbLine
 10
147.96754075622425
 20
150.0
 30
0.0
 11
147.96754075622425
 21
157.86141791423304
 31
0.0
  0
POINT
  5
ED
330
17
100
AcDbEntity
  8
0
100
AcDbPoint
 10
149.32889757277982
 20
157.64531424493327
 30
0.0
  0
LINE
  5
EE
330
17
100
AcDbEntity
  8
0
100
AcDbLine
 10
149.32889757277982
 20
150.0
 30
0.0
 11
149.32889757277982
 21
157.64531424493327
 31
0.0
  0
POINT
  5
EF
330
17
100
AcDbEntity
  8
0
100
AcDbPoint
 10
150.6902543893354
 20
157.38776731211647
 30
0.0
  0
LINE
  5
F0
330
17
100
AcDbEntity
  8
0
100
AcDbLine
 10
150.6902543893354
 20
150.0
 30
0.0
 11
150.6902543893354
 21
157.38776731211647
 31
0.0
  0
POINT
  5
F1
330
17
100
AcDbEntity
  8
0
100
AcDbPoint
 10
152.051611205891
 20
157.09244530847118
 30
0.0
  0
LINE
  5
F2
330
17
100
AcDbEntity
  8
0
100
AcDbLine
 10
152.051611205891
 20
150.0
 30
0.0
 11
152.051611205891
 21
157.09244530847118
 31
0.0
  0
POINT
  5
F3
330
17
100
AcDbEntity
  8
0
100
AcDbPoint
 10
153.41296802244656
 20
156.76345264443628
 30
0.0
  0
LINE
  5
F4
330
17
100
AcDbEntity
  8
0
100
AcDbLine
 10
153.41296802244656
 20
150.0
 30
0.0
 11
153.41296802244656
 21
156.76345264443628
 31
0.0
  0
POINT
  5
F5
330
17
100
AcDbEntity
  8
0
100
AcDbPoint
 10
154.77432483900213
 20
156.40523864683303
 30
0.0
  0
LINE
  5
F6
330
17
100
AcDbEntity
  8
0
100
AcDbLine
 10
154.77432483900213
 20
150.0
 30
0.0
 11
154.77432483900213
 21
156.40523864683303
 31
0.0
  0
POINT
  5
F7
330
17
100
AcDbEntity
  8
0
100
AcDbPoint
 10
156.1356816555577
 20
156.02250675405304
 30
0.0
  0
LINE
  5
F8
330
17
100
AcDbEntity
  8
0
100
AcDbLine
 10
156.1356816555577
 20
150.0
 30
0.0
 11
156.1356816555577
 21
156.02250675405304
 31
0.0
  0
POINT
  5
F9
330
17
100
AcDbEntity
  8
0
100
AcDbPoint
 10
157.4970384721133
 20
155.62012739039398
 30
0.0
  0
LINE
  5
FA
330
17
100
AcDbEntity
  8
0
100
AcDbLine
 10
157.4970384721133
 20
150.0
 30
0.0
 11
157.4970384721133
 21
155.62012739039398
 31
0.0
  0
POINT
  5
FB
330
17
100
AcDbEntity
  8
0
100
AcDbPoint
 10
158.85839528866887
 20
155.2030569143718
 30
0.0
  0
LINE
  5
FC
330
17
100
AcDbEntity
  8
0
100
AcDbLine
 10
158.85839528866887
 20
150.0
 30
0.0
 11
158.85839528866887
 21
155.2030569143718
 31
0.0
  0
POINT
  5
FD
330
17
100
AcDbEntity
  8
0
100
AcDbPoint
 10
160.21975210522444
 20
154.77626423596405
 30
0.0
  0
LINE
  5
FE
330
17
100
AcDbEntity
  8
0
100
AcDbLine
 10
160.21975210522444
 20
150.0
 30
0.0
 11
160.21975210522444
 21
154.77626423596405
 31
0.0
  0
POINT
  5
FF
330
17
100
AcDbEntity
  8
0
100
AcDbPoint
 10
161.58110892178001
 20
154.3446659651574
 30
0.0
  0
LINE
  5
100
330
17
100
AcDbEntity
  8
0
100
AcDbLine
 10
161.58110892178001
 20
150.0
 30
0.0
 11
161.58110892178001
 21
154.3446659651574
 31
0.0
  0
POINT
  5
101
330
17
100
AcDbEntity
  8
0
100
AcDbPoint
 10
162.9424657383356
 20
153.91307033881006
 30
0.0
  0
LINE
  5
102
330
17
100
AcDbEntity
  8
0
100
AcDbLine
 10
162.9424657383356
 20
150.0
 30
0.0
 11
162.9424657383356
 21
153.91307033881006
 31
0.0
  0
POINT
  5
103
330
17
100
AcDbEntity
  8
0
100
AcDbPoint
 10
164.30382255489118
 20
153.4861296970676
 30
0.0
  0
LINE
  5
104
330
17
100
AcDbEntity
  8
0
100
AcDbLine
 10
164.30382255489118
 20
150.0
 30
0.0
 11
164.30382255489118
 21
153.4861296970676
 31
0.0
  0
POINT
  5
105
330
17
100
AcDbEntity
  8
0
100
AcDbPoint
 10
165.66517937144675
 20
153.06830094496246
 30
0.0
  0
LINE
  5
106
330
17
100
AcDbEntity
  8
0
100
AcDbLine
 10
165.66517937144675
 20
150.0
 30
0.0
 11
165.66517937144675
 21
153.06830094496246
 31
0.0
  0
POINT
  5
107
330
17
100
AcDbEntity
  8
0
100
AcDbPoint
 10
167.02653618800232
 20
152.66381322532484
 30
0.0
  0
LINE
  5
108
330
17
100
AcDbEntity
  8
0
100
AcDbLine
 10
167.02653618800232
 20
150.0
 30
0.0
 11
167.02653618800232
 21
152.66381322532484
 31
0.0
  0
POINT
  5
109
330
17
100
AcDbEntity
  8
0
100
AcDbPoint
 10
168.38789300455792
 20
152.27664192378282
 30
0.0
  0
LINE
  5
10A
330
17
100
AcDbEntity
  8
0
100
AcDbLine
 10
168.38789300455792
 20
150.0
 30
0.0
 11
168.38789300455792
 21
152.27664192378282
 31
0.0
  0
POINT
  5
10B
330
17
100
AcDbEntity
  8
0
100
AcDbPoint
 10
169.7492498211135
 20
151.9104881009647
 30
0.0
  0
LINE
  5
10C
330
17
100
AcDbEntity
  8
0
100
AcDbLine
 10
169.7492498211135
 20
150.0
 30
0.0
 11
169.7492498211135
 21
151.9104881009647
 31
0.0
  0
POINT
  5
10D
330
17
100
AcDbEntity
  8
0
100
AcDbPoint
 10
171.11060663766906
 20
151.5687624776994
 30
0.0
  0
LINE
  5
10E
330
17
100
AcDbEntity
  8
0
100
AcDbLine
 10
171.11060663766906
 20
150.0
 30
0.0
 11
171.11060663766906
 21
151.5687624776994
 31
0.0
  0
POINT
  5
10F
330
17
100
AcDbEntity
  8
0
100
AcDbPoint
 10
172.47196345422464
 20
151.254573165934
 30
0.0
  0
LINE
  5
110
330
17
100
AcDbEntity
  8
0
100
AcDbLine
 10
172.47196345422464
 20
150.0
 30
0.0
 11
172.47196345422464
 21
151.254573165934
 31
0.0
  0
POINT
  5
111
330
17
100
AcDbEntity
  8
0
100
AcDbPoint
 10
173.8333202707802
 20
150.9707164252284
 30
0.0
  0
LINE
  5
112
330
17
100
AcDbEntity
  8
0
100
AcDbLine
 10
173.8333202707802
 20
150.0
 30
0.0
 11
173.8333202707802
 21
150.9707164252284
 31
0.0
  0
POINT
  5
113
330
17
100
AcDbEntity
  8
0
100
AcDbPoint
 10
175.1946770873358
 20
150.7196698201597
 30
0.0
  0
LINE
  5
114
330
17
100
AcDbEntity
  8
0
100
AcDbLine
 10
175.1946770873358
 20
150.0
 30
0.0
 11
175.1946770873358
 21
150.7196698201597
 31
0.0
  0
POINT
  5
115
330
17
100
AcDbEntity
  8
0
100
AcDbPoint
 10
176.55603390389138
 20
150.5035872495691
 30
0.0
  0
LINE
  5
116
330
17
100
AcDbEntity
  8
0
100
AcDbLine
 10
176.55603390389138
 20
150.0
 30
0.0
 11
176.55603390389138
 21
150.5035872495691
 31
0.0
  0
POINT
  5
117
330
17
100
AcDbEntity
  8
0
100
AcDbPoint
 10
177.91739072044695
 20
150.32429540915342
 30
0.0
  0
LINE
  5
118
330
17
100
AcDbEntity
  8
0
100
AcDbLine
 10
177.91739072044695
 20
150.0
 30
0.0
 11
177.91739072044695
 21
150.32429540915342
 31
0.0
  0
POINT
  5
119
330
17
100
AcDbEntity
  8
0
100
AcDbPoint
 10
179.27874753700252
 20
150.18329133162976
 30
0.0
  0
LINE
  5
11A
330
17
100
AcDbEntity
  8
0
100
AcDbLine
 10
179.27874753700252
 20
150.0
 30
0.0
 11
179.27874753700252
 21
150.18329133162976
 31
0.0
  0
POINT
  5
11B
330
17
100
AcDbEntity
  8
0
100
AcDbPoint
 10
180.64010435355812
 20
150.0817407224958
 30
0.0
  0
LINE
  5
11C
330
17
100
AcDbEntity
  8
0
100
AcDbLine
 10
180.64010435355812
 20
150.0
 30
0.0
 11
180.64010435355812
 21
150.0817407224958
 31
0.0
  0
POINT
  5
11D
330
17
100
AcDbEntity
  8
0
100
AcDbPoint
 10
182.00146117011369
 20
150.02047687437673
 30
0.0
  0
LINE
  5
11E
330
17
100
AcDbEntity
  8
0
100
AcDbLine
 10
182.00146117011369
 20
150.0
 30
0.0
 11
182.00146117011369
 21
150.02047687437673
 31
0.0
  0
POINT
  5
11F
330
17
100
AcDbEntity
  8
0
100
AcDbPoint
 10
183.36281798666926
 20
150.0
 30
0.0
  0
LINE
  5
120
330
17
100
AcDbEntity
  8
0
100
AcDbLine
 10
183.36281798666926
 20
150.0
 30
0.0
 11
183.36281798666926
 21
150.0
 31
0.0
  0
LINE
  5
121
330
17
100
AcDbEntity
  8
0
370
158
100
AcDbLine
 10
20.0
 20
158.25797962658783
 30
0.0
 11
183.36281798666926
 21
158.25797962658783
 31
0.0
  0
LINE
  5
122
330
17
100
AcDbEntity
  8
0
370
158
100
AcDbLine
 10
20.0
 20
150.0
 30
0.0
 11
183.36281798666926
 21
150.0
 31
0.0
  0
LINE
  5
123
330
17
100
AcDbEntity
  8
0
370
158
100
AcDbLine
 10
20.0
 20
150.0
 30
0.0
 11
20.0
 21
158.25797962658783
 31
0.0
  0
LINE
  5
124
330
17
100
AcDbEntity
  8
0
370
158
100
AcDbLine
 10
183.36281798666926
 20
150.0
 30
0.0
 11
183.36281798666926
 21
158.25797962658783
 31
0.0
  0
LINE
  5
125
330
17
100
AcDbEntity
  8
0
370
158
100
AcDbLine
 10
20.0
 20
141.74202037341217
 30
0.0
 11
183.36281798666926
 21
141.74202037341217
 31
0.0
  0
LINE
  5
126
330
17
100
AcDbEntity
  8
0
370
158
100
AcDbLine
 10
20.0
 20
150.0
 30
0.0
 11
20.0
 21
141.74202037341217
 31
0.0
  0
LINE
  5
127
330
17
100
AcDbEntity
  8
0
  6
DASHED
370
158
100
AcDbLine
 10
183.36281798666926
 20
150.0
 30
0.0
 11
183.36281798666926
 21
141.74202037341217
 31
0.0
  0
DIMENSION
  5
128
330
17
100
AcDbEntity
  8
0
100
AcDbDimension
280
0
  2
*D1
  3
Standard
 10
20.0
 20
145.8710101867061
 30
0.0
 11
101.68140899333463
 21
145.8710101867061
 31
0.0
 70
32
 71
5
  1
<> mm
100
AcDbAlignedDimension
 13
20.0
 23
141.74202037341217
 33
0.0
 14
183.36281798666926
 24
141.74202037341217
 34
0.0
 50
0.0
100
AcDbRotatedDimension
1001
ACAD
1000
DSTYLE
1002
{
1070
140
1040
1.0
1070
280
1070
0
1002
}
  0
DIMENSION
  5
13C
330
17
100
AcDbEntity
  8
0
100
AcDbDimension
280
0
  2
*D2
  3
Standard
 10
44.77393887976348
 20
158.25797962658783
 30
0.0
 11
48.77393887976348
 21
142.86702037341217
 31
0.0
 70
32
 71
5
  1
<> mm
100
AcDbAlignedDimension
 13
20.0
 23
158.25797962658783
 33
0.0
 14
20.0
 24
141.74202037341217
 34
0.0
 50
-90.0
100
AcDbRotatedDimension
1001
ACAD
1000
DSTYLE
1002
{
1070
280
1070
4
1070
41
1040
1.5
1070
173
1070
0
1070
142
1040
0.0
1070
342
1005
0
1002
}
  0
DIMENSION
  5
14B
330
17
100
AcDbEntity
  8
0
100
AcDbDimension
280
0
  2
*D3
  3
Standard
 10
28.257979626587826
 20
150.0
 30
0.0
 11
27.132979626587826
 21
154.1289898132939
 31
0.0
 70
32
 71
5
  1
<> mm
100
AcDbAlignedDimension
 13
20.0
 23
150.0
 33
0.0
 14
20.0
 24
158.25797962658783
 34
0.0
 50
90.0
100
AcDbRotatedDimension
1001
ACAD
1000
DSTYLE
1002
{
1070
41
1040
1.5
1070
173
1070
0
1070
142
1040
0.0
1070
342
1005
0
1002
}
  0
DIMENSION
  5
15A
330
17
100
AcDbEntity
  8
0
100
AcDbDimension
280
0
  2
*D4
  3
Standard
 10
36.51595925317565
 20
150.0
 30
0.0
 11
40.01595925317565
 21
142.86702037341217
 31
0.0
 70
32
 71
5
  1
<> mm
100
AcDbAlignedDimension
 13
20.0
 23
150.0
 33
0.0
 14
20.0
 24
141.74202037341217
 34
0.0
 50
-90.0
100
AcDbRotatedDimension
1001
ACAD
1000
DSTYLE
1002
{
1070
280
1070
4
1070
41
1040
1.5
1070
173
1070
0
1070
142
1040
0.0
1070
342
1005
0
1002
}
  0
LWPOLYLINE
  5
169
330
17
100
AcDbEntity
  8
0
370
158
100
AcDbPolyline
 90
121
 70
0
 10
20.0
 20
150.0
 10
21.361356816555578
 20
150.02047687437673
 10
22.722713633111155
 20
150.0817407224958
 10
24.084070449666733
 20
150.18329133162976
 10
25.44542726622231
 20
150.32429540915342
 10
26.806784082777888
 20
150.5035872495691
 10
28.168140899333462
 20
150.7196698201597
 10
29.52949771588904
 20
150.9707164252284
 10
30.890854532444617
 20
151.254573165934
 10
32.25221134900019
 20
151.5687624776994
 10
33.613568165555776
 20
151.9104881009647
 10
34.97492498211135
 20
152.27664192378282
 10
36.336281798666924
 20
152.66381322532484
 10
37.6976386152225
 20
153.06830094496246
 10
39.05899543177808
 20
153.4861296970676
 10
40.42035224833366
 20
153.91307033881006
 10
41.781709064889235
 20
154.3446659651574
 10
43.14306588144481
 20
154.77626423596405
 10
44.50442269800039
 20
155.2030569143718
 10
45.86577951455597
 20
155.62012739039398
 10
47.227136331111545
 20
156.02250675405304
 10
48.58849314766712
 20
156.40523864683303
 10
49.94984996422269
 20
156.76345264443628
 10
51.31120678077828
 20
157.09244530847118
 10
52.67256359733385
 20
157.38776731211644
 10
54.033920413889426
 20
157.64531424493327
 10
55.395277230445004
 20
157.86141791423304
 10
56.75663404700058
 20
158.03293428912482
 10
58.11799086355616
 20
158.15732379528367
 10
59.47934768011174
 20
158.23271957226655
 10
60.840704496667314
 20
158.25797962658783
 10
62.20206131322289
 20
158.23271957226655
 10
63.56341812977847
 20
158.15732379528367
 10
64.92477494633405
 20
158.03293428912482
 10
66.28613176288962
 20
157.86141791423304
 10
67.6474885794452
 20
157.64531424493327
 10
69.00884539600078
 20
157.38776731211647
 10
70.37020221255636
 20
157.09244530847118
 10
71.73155902911193
 20
156.76345264443628
 10
73.0929158456675
 20
156.40523864683303
 10
74.45427266222309
 20
156.02250675405304
 10
75.81562947877866
 20
155.62012739039398
 10
77.17698629533425
 20
155.2030569143718
 10
78.53834311188982
 20
154.77626423596405
 10
79.89969992844539
 20
154.3446659651574
 10
81.26105674500097
 20
153.91307033881006
 10
82.62241356155656
 20
153.4861296970676
 10
83.98377037811213
 20
153.06830094496246
 10
85.3451271946677
 20
152.66381322532484
 10
86.70648401122328
 20
152.27664192378285
 10
88.06784082777885
 20
151.9104881009647
 10
89.42919764433444
 20
151.5687624776994
 10
90.79055446089001
 20
151.254573165934
 10
92.15191127744559
 20
150.9707164252284
 10
93.51326809400116
 20
150.7196698201597
 10
94.87462491055675
 20
150.5035872495691
 10
96.23598172711232
 20
150.32429540915342
 10
97.5973385436679
 20
150.18329133162976
 10
98.95869536022347
 20
150.0817407224958
 10
100.32005217677906
 20
150.02047687437673
 10
101.68140899333463
 20
150.0
 10
103.04276580989021
 20
150.02047687437673
 10
104.40412262644578
 20
150.0817407224958
 10
105.76547944300137
 20
150.18329133162976
 10
107.12683625955694
 20
150.32429540915342
 10
108.48819307611251
 20
150.5035872495691
 10
109.8495498926681
 20
150.7196698201597
 10
111.21090670922366
 20
150.9707164252284
 10
112.57226352577925
 20
151.254573165934
 10
113.93362034233482
 20
151.5687624776994
 10
115.2949771588904
 20
151.9104881009647
 10
116.65633397544597
 20
152.27664192378282
 10
118.01769079200156
 20
152.66381322532484
 10
119.37904760855713
 20
153.06830094496246
 10
120.74040442511271
 20
153.4861296970676
 10
122.10176124166829
 20
153.91307033881006
 10
123.46311805822387
 20
154.3446659651574
 10
124.82447487477944
 20
154.77626423596405
 10
126.18583169133503
 20
155.2030569143718
 10
127.5471885078906
 20
155.62012739039398
 10
128.90854532444618
 20
156.02250675405304
 10
130.26990214100175
 20
156.40523864683303
 10
131.63125895755732
 20
156.76345264443628
 10
132.9926157741129
 20
157.09244530847118
 10
134.3539725906685
 20
157.38776731211644
 10
135.71532940722406
 20
157.64531424493327
 10
137.07668622377963
 20
157.86141791423304
 10
138.43804304033523
 20
158.03293428912482
 10
139.79939985689077
 20
158.15732379528367
 10
141.16075667344637
 20
158.23271957226655
 10
142.52211349000194
 20
158.25797962658783
 10
143.8834703065575
 20
158.23271957226655
 10
145.2448271231131
 20
158.15732379528367
 10
146.60618393966868
 20
158.03293428912482
 10
147.96754075622425
 20
157.86141791423304
 10
149.32889757277982
 20
157.64531424493327
 10
150.6902543893354
 20
157.38776731211647
 10
152.051611205891
 20
157.09244530847118
 10
153.41296802244656
 20
156.76345264443628
 10
154.77432483900213
 20
156.40523864683303
 10
156.1356816555577
 20
156.02250675405304
 10
157.4970384721133
 20
155.62012739039398
 10
158.85839528866887
 20
155.2030569143718
 10
160.21975210522444
 20
154.77626423596405
 10
161.58110892178001
 20
154.3446659651574
 10
162.9424657383356
 20
153.91307033881006
 10
164.30382255489118
 20
153.4861296970676
 10
165.66517937144675
 20
153.06830094496246
 10
167.02653618800232
 20
152.66381322532484
 10
168.38789300455792
 20
152.27664192378282
 10
169.7492498211135
 20
151.9104881009647
 10
171.11060663766906
 20
151.5687624776994
 10
172.47196345422464
 20
151.254573165934
 10
173.8333202707802
 20
150.9707164252284
 10
175.1946770873358
 20
150.7196698201597
 10
176.55603390389138
 20
150.5035872495691
 10
177.91739072044695
 20
150.32429540915342
 10
179.27874753700252
 20
150.18329133162976
 10
180.64010435355812
 20
150.0817407224958
 10
182.00146117011369
 20
150.02047687437673
 10
183.36281798666926
 20
150.0
  0
ENDSEC
  0
SECTION
  2
OBJECTS
  0
DICTIONARY
  5
A
330
0
100
AcDbDictionary
281
1
  3
ACAD_COLOR
350
B
  3
ACAD_GROUP
350
C
  3
ACAD_LAYOUT
350
D
  3
ACAD_MATERIAL
350
E
  3
ACAD_MLEADERSTYLE
350
F
  3
ACAD_MLINESTYLE
350
10
  3
ACAD_PLOTSETTINGS
350
11
  3
ACAD_PLOTSTYLENAME
350
12
  3
ACAD_SCALELIST
350
14
  3
ACAD_TABLESTYLE
350
15
  3
ACAD_VISUALSTYLE
350
16
  3
EZDXF_META
350
2D
  0
DICTIONARY
  5
B
330
A
100
AcDbDictionary
281
1
  0
DICTIONARY
  5
C
330
A
100
AcDbDictionary
281
1
  0
DICTIONARY
  5
D
330
A
100
AcDbDictionary
281
1
  3
Model
350
1A
  3
Layout1
350
1E
  0
DICTIONARY
  5
E
330
A
100
AcDbDictionary
281
1
  3
ByBlock
350
1F
  3
ByLayer
350
20
  3
Global
350
21
  0
DICTIONARY
  5
F
330
A
100
AcDbDictionary
281
1
  3
Standard
350
2C
  0
DICTIONARY
  5
10
330
A
100
AcDbDictionary
281
1
  3
Standard
350
22
  0
DICTIONARY
  5
11
330
A
100
AcDbDictionary
281
1
  0
ACDBDICTIONARYWDFLT
  5
12
330
A
100
AcDbDictionary
281
1
  3
Normal
350
13
100
AcDbDictionaryWithDefault
340
13
  0
ACDBPLACEHOLDER
  5
13
330
12
  0
DICTIONARY
  5
14
330
A
100
AcDbDictionary
281
1
  0
DICTIONARY
  5
15
330
A
100
AcDbDictionary
281
1
  0
DICTIONARY
  5
16
330
A
100
AcDbDictionary
281
1
  0
LAYOUT
  5
1A
330
D
100
AcDbPlotSettings
  1

  4
A3
  6

 40
7.5
 41
20.0
 42
7.5
 43
20.0
 44
420.0
 45
297.0
 46
0.0
 47
0.0
 48
0.0
 49
0.0
140
0.0
141
0.0
142
1.0
143
1.0
 70
1024
 72
1
 73
0
 74
5
  7

 75
16
 76
0
 77
2
 78
300
147
1.0
148
0.0
149
0.0
100
AcDbLayout
  1
Model
 70
1
 71
0
 10
0.0
 20
0.0
 11
420.0
 21
297.0
 12
0.0
 22
0.0
 32
0.0
 14
1e+20
 24
1e+20
 34
1e+20
 15
-1e+20
 25
-1e+20
 35
-1e+20
146
0.0
 13
0.0
 23
0.0
 33
0.0
 16
1.0
 26
0.0
 36
0.0
 17
0.0
 27
1.0
 37
0.0
 76
1
330
17
  0
LAYOUT
  5
1E
330
D
100
AcDbPlotSettings
  1

  4
A3
  6

 40
7.5
 41
20.0
 42
7.5
 43
20.0
 44
420.0
 45
297.0
 46
0.0
 47
0.0
 48
0.0
 49
0.0
140
0.0
141
0.0
142
1.0
143
1.0
 70
0
 72
1
 73
0
 74
5
  7

 75
16
 76
0
 77
2
 78
300
147
1.0
148
0.0
149
0.0
100
AcDbLayout
  1
Layout1
 70
1
 71
1
 10
0.0
 20
0.0
 11
420.0
 21
297.0
 12
0.0
 22
0.0
 32
0.0
 14
1e+20
 24
1e+20
 34
1e+20
 15
-1e+20
 25
-1e+20
 35
-1e+20
146
0.0
 13
0.0
 23
0.0
 33
0.0
 16
1.0
 26
0.0
 36
0.0
 17
0.0
 27
1.0
 37
0.0
 76
1
330
1B
  0
MATERIAL
  5
1F
102
{ACAD_REACTORS
330
E
102
}
330
E
100
AcDbMaterial
  1
ByBlock
  2

 70
0
 40
1.0
 71
1
 41
1.0
 91
-1023410177
 42
1.0
 72
1
  3

 73
1
 74
1
 75
1
 44
0.5
 73
0
 45
1.0
 46
1.0
 77
1
  4

 78
1
 79
1
170
1
 48
1.0
171
1
  6

172
1
173
1
174
1
140
1.0
141
1.0
175
1
  7

176
1
177
1
178
1
143
1.0
179
1
  8

270
1
271
1
272
1
145
1.0
146
1.0
273
1
  9

274
1
275
1
276
1
 42
1.0
 72
1
  3

 73
1
 74
1
 75
1
 94
63
  0
MATERIAL
  5
20
102
{ACAD_REACTORS
330
E
102
}
330
E
100
AcDbMaterial
  1
ByLayer
  2

 70
0
 40
1.0
 71
1
 41
1.0
 91
-1023410177
 42
1.0
 72
1
  3

 73
1
 74
1
 75
1
 44
0.5
 73
0
 45
1.0
 46
1.0
 77
1
  4

 78
1
 79
1
170
1
 48
1.0
171
1
  6

172
1
173
1
174
1
140
1.0
141
1.0
175
1
  7

176
1
177
1
178
1
143
1.0
179
1
  8

270
1
271
1
272
1
145
1.0
146
1.0
273
1
  9

274
1
275
1
276
1
 42
1.0
 72
1
  3

 73
1
 74
1
 75
1
 94
63
  0
MATERIAL
  5
21
102
{ACAD_REACTORS
330
E
102
}
330
E
100
AcDbMaterial
  1
Global
  2

 70
0
 40
1.0
 71
1
 41
1.0
 91
-1023410177
 42
1.0
 72
1
  3

 73
1
 74
1
 75
1
 44
0.5
 73
0
 45
1.0
 46
1.0
 77
1
  4

 78
1
 79
1
170
1
 48
1.0
171
1
  6

172
1
173
1
174
1
140
1.0
141
1.0
175
1
  7

176
1
177
1
178
1
143
1.0
179
1
  8

270
1
271
1
272
1
145
1.0
146
1.0
273
1
  9

274
1
275
1
276
1
 42
1.0
 72
1
  3

 73
1
 74
1
 75
1
 94
63
  0
MLINESTYLE
  5
22
102
{ACAD_REACTORS
330
10
102
}
330
10
100
AcDbMlineStyle
  2
Standard
 70
0
  3

 62
256
 51
90.0
 52
90.0
 71
2
 49
0.5
 62
256
  6
BYLAYER
 49
-0.5
 62
256
  6
BYLAYER
  0
MLEADERSTYLE
  5
2C
102
{ACAD_REACTORS
330
F
102
}
330
F
100
AcDbMLeaderStyle
179
2
170
2
171
1
172
0
 90
2
 40
0.0
 41
0.0
173
1
 91
-1056964608
 92
-2
290
1
 42
2.0
291
1
 43
8.0
  3
Standard
 44
4.0
300

342
29
174
1
175
1
176
0
178
1
 93
-1056964608
 45
4.0
292
0
297
0
 46
4.0
 94
-1056964608
 47
1.0
 49
1.0
140
1.0
294
1
141
0.0
177
0
142
1.0
295
0
296
0
143
3.75
271
0
272
9
273
9
  0
DICTIONARY
  5
2D
330
A
100
AcDbDictionary
280
1
281
1
  3
CREATED_BY_EZDXF
350
2E
  3
WRITTEN_BY_EZDXF
350
16C
  0
DICTIONARYVAR
  5
2E
330
2D
100
DictionaryVariables
280
0
  1
1.4.2 @ 2025-06-17T23:25:47.849115+00:00
  0
DICTIONARYVAR
  5
16C
330
2D
100
DictionaryVariables
280
0
  1
1.4.2 @ 2025-06-17T23:25:47.857757+00:00
  0
ENDSEC
  0
EOF
